<?xml version="1.0" encoding="UTF-8"?>
<svg version="1.1" xmlns="http://www.w3.org/2000/svg" width="225" height="100">
<path d="M0 0 C7.73207262 1.2248003 14.81115625 4.04655658 22.01416016 7.00317383 C24.01649626 7.81922303 26.02898779 8.60578289 28.04296875 9.39257812 C29.32103214 9.91229631 30.59840393 10.43371921 31.875 10.95703125 C33.02742188 11.42085205 34.17984375 11.88467285 35.3671875 12.36254883 C38 14 38 14 38.8828125 16.69018555 C38.94082031 17.8335437 38.94082031 17.8335437 39 19 C38.55309814 19.33620361 38.10619629 19.67240723 37.64575195 20.01879883 C35.53169163 21.61279977 33.42167991 23.21204677 31.3125 24.8125 C30.54389648 25.39402832 29.77529297 25.97555664 28.98339844 26.57470703 C25.27857105 29.40134742 21.64142122 32.25701428 18.15234375 35.34765625 C17.57379639 35.85901123 16.99524902 36.37036621 16.39916992 36.8972168 C15.32096996 37.86336696 14.25407688 38.84232569 13.20043945 39.83520508 C11.734375 41.1484375 11.734375 41.1484375 9 43 C6.32910156 42.61572266 6.32910156 42.61572266 4 42 C3.28133709 37.28702395 2.56949682 32.57308472 1.86376953 27.8581543 C1.62309812 26.25663948 1.38061317 24.65539605 1.13623047 23.05444336 C0.78387974 20.7440293 0.43821233 18.43269545 0.09375 16.12109375 C-0.07030334 15.0597245 -0.07030334 15.0597245 -0.2376709 13.97691345 C-0.87938248 9.61666399 -1.18872819 5.40588767 -1 1 C-0.67 0.67 -0.34 0.34 0 0 Z " fill="#FC9454" transform="translate(177,4)"/>
<path d="M0 0 C2.9998271 0.24651429 4.56143882 0.57219691 6.74169922 2.69897461 C7.25748535 3.42608643 7.77327148 4.15319824 8.3046875 4.90234375 C9.17565063 6.1078186 9.17565063 6.1078186 10.06420898 7.33764648 C10.66177002 8.19559814 11.25933105 9.0535498 11.875 9.9375 C12.79937866 11.23506226 12.79937866 11.23506226 13.74243164 12.55883789 C14.95739626 14.26704571 16.16695567 15.97911317 17.37060547 17.6953125 C18.71949728 19.60324458 20.0934282 21.48132509 21.50390625 23.34375 C22.14199219 24.1996875 22.78007812 25.055625 23.4375 25.9375 C23.97246094 26.64777344 24.50742188 27.35804687 25.05859375 28.08984375 C26.25024033 30.50774904 25.74661802 31.48746238 25 34 C20.57159069 34.57530687 16.14247819 35.14476017 11.71264648 35.70898438 C10.20821214 35.90141766 8.70397533 36.09540223 7.19995117 36.29101562 C5.02834328 36.57317349 2.85606781 36.84960035 0.68359375 37.125 C-1.27235718 37.37636719 -1.27235718 37.37636719 -3.26782227 37.6328125 C-6.8737814 37.98758208 -10.3794816 38.06556683 -14 38 C-15.61446342 33.19238414 -14.0831296 29.92839689 -12.0703125 25.546875 C-11.7605246 24.84604797 -11.45073669 24.14522095 -11.13156128 23.42315674 C-10.14178977 21.19299142 -9.13345289 18.97177031 -8.125 16.75 C-7.45325231 15.24010544 -6.78266594 13.72969364 -6.11328125 12.21875 C-1.20697191 1.20697191 -1.20697191 1.20697191 0 0 Z " fill="#82D95C" transform="translate(196,46)"/>
<path d="M0 0 C2.6171875 0.41015625 2.6171875 0.41015625 5 1 C6.20650115 4.72328848 7.38680272 8.45438121 8.5625 12.1875 C9.07586914 13.77014648 9.07586914 13.77014648 9.59960938 15.38476562 C9.91865234 16.40634766 10.23769531 17.42792969 10.56640625 18.48046875 C10.86490479 19.41785889 11.16340332 20.35524902 11.47094727 21.32104492 C12.04579396 24.2318861 11.77691982 26.16030175 11 29 C4.65594974 28.35521919 -1.3329118 27.03753669 -7.5 25.4375 C-8.4178125 25.20353516 -9.335625 24.96957031 -10.28125 24.72851562 C-12.52197923 24.15666285 -14.76147688 23.58041707 -17 23 C-17.57421875 21.10253906 -17.57421875 21.10253906 -18 19 C-16.8125 17.359375 -16.8125 17.359375 -15 15.75 C-12.26805073 13.21435846 -9.74134413 10.64176095 -7.3125 7.8125 C-6.44431641 6.81863281 -6.44431641 6.81863281 -5.55859375 5.8046875 C-4.31382986 4.36338194 -3.0906568 2.90343908 -1.875 1.4375 C-1.25625 0.963125 -0.6375 0.48875 0 0 Z " fill="#43B8FA" transform="translate(167,30)"/>
<path d="M0 0 C0.33 1.32 0.66 2.64 1 4 C0.195625 4.28875 -0.60875 4.5775 -1.4375 4.875 C-4.1326468 5.73262568 -4.1326468 5.73262568 -5 8 C-1.846632 8.70074844 0.72724974 9 4 9 C5.98 12.63 7.96 16.26 10 20 C12.15016583 17.13311223 13.67007588 14.88949817 15.1875 11.75 C15.53167969 11.04359375 15.87585938 10.3371875 16.23046875 9.609375 C16.61138672 8.81273438 16.61138672 8.81273438 17 8 C18.32 8.66 19.64 9.32 21 10 C18.91932667 16.76296354 16.26750264 23.13878613 13.3125 29.5625 C12.89677734 30.47580078 12.48105469 31.38910156 12.05273438 32.33007812 C11.03917098 34.55525752 10.02154784 36.77847781 9 39 C7.68 39 6.36 39 5 39 C4 36 4 36 5.5 32.625 C7.11404293 28.72439626 7.13899459 27.87730283 6 24 C4.83681982 21.59580806 4.83681982 21.59580806 3.4375 19.3125 C1 15.20396601 1 15.20396601 1 13 C-1.31 13.33 -3.62 13.66 -6 14 C-6 19.28 -6 24.56 -6 30 C-7.32 30 -8.64 30 -10 30 C-11.50156874 26.99686252 -11.09281204 24.20932478 -11.0625 20.875 C-11.05347656 19.59367187 -11.04445313 18.31234375 -11.03515625 16.9921875 C-11.02355469 16.00476563 -11.01195313 15.01734375 -11 14 C-11.99 13.67 -12.98 13.34 -14 13 C-13.67 11.68 -13.34 10.36 -13 9 C-12.34 9 -11.68 9 -11 9 C-10.731875 8.071875 -10.46375 7.14375 -10.1875 6.1875 C-8.0099613 0.34252771 -6.19672687 -0.41311512 0 0 Z " fill="#474747" transform="translate(131,57)"/>
<path d="M0 0 C3.1786241 2.5699514 4.70728109 4.12184327 6 8 C6.14554833 10.1216468 6.22080412 12.24856706 6.25 14.375 C6.27578125 15.49648437 6.3015625 16.61796875 6.328125 17.7734375 C5.96722865 21.32225158 5.04411478 23.12082079 3 26 C2.608125 26.5775 2.21625 27.155 1.8125 27.75 C-1.19233374 29.82229913 -4.44363035 30.1073621 -8 30 C-11.4375 28.875 -11.4375 28.875 -14 27 C-14.875 24.3125 -14.875 24.3125 -15 22 C-13.9790625 22.2165625 -13.9790625 22.2165625 -12.9375 22.4375 C-7.00928494 23.59570509 -7.00928494 23.59570509 -1 24 C-0.67 22.35 -0.34 20.7 0 19 C-0.66 19.66 -1.32 20.32 -2 21 C-8.93181818 21.68181818 -8.93181818 21.68181818 -12.9375 19.125 C-16.30716384 15.65322513 -16.39323645 13.01131931 -16.35546875 8.328125 C-15.75147582 4.37230319 -13.89542195 2.69341577 -11 0 C-7.14822667 -1.28392444 -3.85543123 -1.11228815 0 0 Z M-9.8125 5.0625 C-11.69021039 8.12613274 -11.43729494 10.50164045 -11 14 C-9.44202118 16.14782671 -9.44202118 16.14782671 -7 17 C-3.83912282 16.92290543 -2.47729531 16.42956578 -0.125 14.3125 C1.41959084 11.13750771 1.0140792 9.33197451 0 6 C-3.51767212 3.65488525 -6.01091691 2.83398578 -9.8125 5.0625 Z " fill="#4F4F4F" transform="translate(73,66)"/>
<path d="M0 0 C0.474375 0.474375 0.94875 0.94875 1.4375 1.4375 C1.1075 2.7575 0.7775 4.0775 0.4375 5.4375 C-4.4375 4.5625 -4.4375 4.5625 -5.5625 3.4375 C-9.5886512 3.39739889 -13.37733478 3.47455326 -16.5625 6.0625 C-18.49073571 10.64205981 -19.07180286 14.01681307 -17.375 18.75 C-15.14751658 22.09123041 -15.14751658 22.09123041 -11.5625 23.4375 C-8.08763528 23.17926007 -8.08763528 23.17926007 -4.5625 22.4375 C-3.593125 22.251875 -2.62375 22.06625 -1.625 21.875 C-0.944375 21.730625 -0.26375 21.58625 0.4375 21.4375 C0.7675 22.4275 1.0975 23.4175 1.4375 24.4375 C-0.94627394 27.1976593 -3.02915639 28.49527504 -6.5625 29.4375 C-12.39875256 29.25222214 -16.06755002 28.42166021 -20.5625 24.4375 C-23.55276189 20.44446147 -24.90872064 16.82003261 -24.5625 11.8125 C-23.68462496 6.66939369 -21.42619419 3.12647286 -17.5625 -0.375 C-12.19216511 -3.56363634 -5.27137572 -3.21425349 0 0 Z " fill="#464646" transform="translate(26.5625,58.5625)"/>
<path d="M0 0 C3.19877975 2.66564979 4.63661405 4.17020705 5.44140625 8.22265625 C5.65311405 12.31339733 5.32946868 14.4728501 3.125 18 C-0.36712504 21.28670592 -3.01727652 21.41101167 -7.671875 21.3359375 C-11.8397042 20.73453933 -13.29785688 19.24257175 -16 16 C-17.4949461 11.88678671 -17.26538023 8.82736188 -15.9375 4.6875 C-11.88825436 -0.92919557 -6.38379969 -2.32019003 0 0 Z M-10.375 5.625 C-12.28822408 7.94163123 -12.28822408 7.94163123 -12 11.0625 C-11.20642601 14.02812617 -11.20642601 14.02812617 -9.25 15.9375 C-6.36241486 17.30108187 -4.98583817 17.02147095 -2 16 C0.36410488 14.06268472 0.36410488 14.06268472 0.3125 10.5625 C0.27836668 7.13088181 0.27836668 7.13088181 -1.1875 5.0625 C-4.71314982 2.99573976 -7.06022009 3.35699269 -10.375 5.625 Z " fill="#464646" transform="translate(48,66)"/>
<path d="M0 0 C1.34262065 0.29369827 2.67696283 0.6278958 4 1 C4.66 0.67 5.32 0.34 6 0 C8.94827837 -0.40203796 11.08145963 -0.54942715 13.69140625 1.01171875 C16.40626033 3.19014383 17.8883354 4.66500621 19 8 C19.09416778 10.01906808 19.12991192 12.04124313 19.125 14.0625 C19.12886719 15.65771484 19.12886719 15.65771484 19.1328125 17.28515625 C19 20 19 20 18 22 C16.68 22 15.36 22 14 22 C12.15912819 18.31825638 12.53031595 13.93175819 12.28125 9.87109375 C12.31700202 7.10540179 12.31700202 7.10540179 11 6 C8.69 6 6.38 6 4 6 C3.67 11.28 3.34 16.56 3 22 C1.35 21.67 -0.3 21.34 -2 21 C-2.05791844 17.87507749 -2.09356746 14.75029234 -2.125 11.625 C-2.14175781 10.73554687 -2.15851563 9.84609375 -2.17578125 8.9296875 C-2.18222656 8.07890625 -2.18867187 7.228125 -2.1953125 6.3515625 C-2.20578613 5.56604004 -2.21625977 4.78051758 -2.22705078 3.97119141 C-2 2 -2 2 0 0 Z " fill="#515151" transform="translate(85,65)"/>
<path d="M0 0 C4.95 0 9.9 0 15 0 C16 5 16 5 14.12890625 8.11328125 C13.2886528 9.19171679 12.43253837 10.25794687 11.5625 11.3125 C10.9118457 12.13717773 10.9118457 12.13717773 10.24804688 12.97851562 C9.17880496 14.32975541 8.09114189 15.66638214 7 17 C9.01822917 16.90234375 11.03645833 16.8046875 13.0546875 16.70703125 C13.69664062 16.80371094 14.33859375 16.90039062 15 17 C15.66 17.99 16.32 18.98 17 20 C16.67 20.66 16.34 21.32 16 22 C10.72 22 5.44 22 0 22 C-0.33 20.68 -0.66 19.36 -1 18 C0.40367622 15.73770764 1.77300018 13.79936943 3.4375 11.75 C4.0881543 10.91855469 4.0881543 10.91855469 4.75195312 10.0703125 C5.82333224 8.70459846 6.91021796 7.35107481 8 6 C5.03 5.67 2.06 5.34 -1 5 C-0.67 3.35 -0.34 1.7 0 0 Z " fill="#505050" transform="translate(154,65)"/>
<path d="M0 0 C1.32 0.66 2.64 1.32 4 2 C1.91932667 8.76296354 -0.73249736 15.13878613 -3.6875 21.5625 C-4.10322266 22.47580078 -4.51894531 23.38910156 -4.94726562 24.33007812 C-5.96082902 26.55525752 -6.97845216 28.77847781 -8 31 C-9.32 31 -10.64 31 -12 31 C-13 28 -13 28 -11.5 24.625 C-9.89909552 20.75614749 -9.6054662 19.81172572 -11 16 C-12.01244554 13.93020206 -13.05482955 11.88903064 -14.16015625 9.8671875 C-15 8 -15 8 -15 5 C-12.6875 5.125 -12.6875 5.125 -10 6 C-8.1875 9.0625 -8.1875 9.0625 -7 12 C-3.95950199 8.35140239 -2.03481238 4.2555467 0 0 Z " fill="#3F3F3F" transform="translate(148,65)"/>
<path d="M0 0 C2.12890625 0.171875 2.12890625 0.171875 4.5625 0.75 C5.77099609 1.02070312 5.77099609 1.02070312 7.00390625 1.296875 C9 2 9 2 10 4 C8.68 4 7.36 4 6 4 C6 4.66 6 5.32 6 6 C5.34 6 4.68 6 4 6 C3.67 11.28 3.34 16.56 3 22 C1.35 21.67 -0.3 21.34 -2 21 C-2.05791844 17.87507749 -2.09356746 14.75029234 -2.125 11.625 C-2.14175781 10.73554687 -2.15851563 9.84609375 -2.17578125 8.9296875 C-2.18222656 8.07890625 -2.18867187 7.228125 -2.1953125 6.3515625 C-2.20578613 5.56604004 -2.21625977 4.78051758 -2.22705078 3.97119141 C-2 2 -2 2 0 0 Z " fill="#3E3E3E" transform="translate(85,65)"/>
<path d="M0 0 C5.68898176 0.73248692 10.83506276 2.5823698 16 5 C14.125 6.0625 14.125 6.0625 12 7 C11.34 6.67 10.68 6.34 10 6 C10 5.34 10 4.68 10 4 C9.01 4.33 8.02 4.66 7 5 C7 4.34 7 3.68 7 3 C5.35 3 3.7 3 2 3 C2.34768044 12.23151518 3.23730705 20.82151241 5.3671875 29.84765625 C6.20266147 34.00955436 6.21869055 37.77198266 6 42 C7.98 41.505 7.98 41.505 10 41 C9.67 41.66 9.34 42.32 9 43 C7.35 42.67 5.7 42.34 4 42 C3.28133709 37.28702395 2.56949682 32.57308472 1.86376953 27.8581543 C1.62309812 26.25663948 1.38061317 24.65539605 1.13623047 23.05444336 C0.78387974 20.7440293 0.43821233 18.43269545 0.09375 16.12109375 C-0.07030334 15.0597245 -0.07030334 15.0597245 -0.2376709 13.97691345 C-0.87938248 9.61666399 -1.18872819 5.40588767 -1 1 C-0.67 0.67 -0.34 0.34 0 0 Z " fill="#F5BB93" transform="translate(177,4)"/>
<path d="M0 0 C0 0.66 0 1.32 0 2 C-1.65 2 -3.3 2 -5 2 C-7.32490278 5.63266059 -7.39259107 8.76001646 -7 13 C-6.01 13.66 -5.02 14.32 -4 15 C-4 15.66 -4 16.32 -4 17 C-2.68 17 -1.36 17 0 17 C0 17.66 0 18.32 0 19 C-7.98458998 19.76774904 -7.98458998 19.76774904 -11.5625 17.0625 C-13.47695616 12.983876 -13.53201964 9.43931139 -13 5 C-10.34674743 -0.30650514 -5.32922911 -0.31348407 0 0 Z " fill="#313131" transform="translate(70,67)"/>
<path d="M0 0 C0.99 0.33 1.98 0.66 3 1 C3 7.6 3 14.2 3 21 C1.68 21.33 0.36 21.66 -1 22 C-2 21 -2 21 -2.11352539 19.05053711 C-2.10567017 17.8015564 -2.10567017 17.8015564 -2.09765625 16.52734375 C-2.09443359 15.62822266 -2.09121094 14.72910156 -2.08789062 13.80273438 C-2.07951172 12.85720703 -2.07113281 11.91167969 -2.0625 10.9375 C-2.05798828 9.98810547 -2.05347656 9.03871094 -2.04882812 8.06054688 C-2.0370011 5.70696935 -2.02052025 3.35351523 -2 1 C-1.34 0.67 -0.68 0.34 0 0 Z " fill="#484848" transform="translate(111,65)"/>
<path d="M0 0 C2.0625 1.75 2.0625 1.75 4 4 C3.62109375 6.140625 3.62109375 6.140625 3 8 C-1.42840931 8.57530687 -5.85752181 9.14476017 -10.28735352 9.70898438 C-11.79178786 9.90141766 -13.29602467 10.09540223 -14.80004883 10.29101562 C-16.97165672 10.57317349 -19.14393219 10.84960035 -21.31640625 11.125 C-22.62037354 11.29257813 -23.92434082 11.46015625 -25.26782227 11.6328125 C-28.8737814 11.98758208 -32.3794816 12.06556683 -36 12 C-37.15837626 7.94568308 -36.83691257 5.78187881 -35 2 C-34.00564594 5.09354597 -34.12159004 6.90279155 -35 10 C-32.89521396 9.88590318 -30.79115423 9.75834639 -28.6875 9.625 C-26.92986328 9.52058594 -26.92986328 9.52058594 -25.13671875 9.4140625 C-21.84300113 9.21386253 -21.84300113 9.21386253 -19 7 C-16.73168945 6.77294922 -16.73168945 6.77294922 -14.11328125 6.8046875 C-13.17548828 6.81113281 -12.23769531 6.81757812 -11.27148438 6.82421875 C-9.80678711 6.84935547 -9.80678711 6.84935547 -8.3125 6.875 C-7.32443359 6.88402344 -6.33636719 6.89304687 -5.31835938 6.90234375 C-2.87866235 6.9259157 -0.43945303 6.95881978 2 7 C1.34 4.69 0.68 2.38 0 0 Z " fill="#A5DF8C" transform="translate(218,72)"/>
<path d="M0 0 C0 1.65 0 3.3 0 5 C2.01822917 4.90234375 4.03645833 4.8046875 6.0546875 4.70703125 C6.69664062 4.80371094 7.33859375 4.90039062 8 5 C8.99 6.485 8.99 6.485 10 8 C9.67 8.66 9.34 9.32 9 10 C3.72 10 -1.56 10 -7 10 C-7.33 8.68 -7.66 7.36 -8 6 C-6.85675161 4.9970458 -5.71032809 3.99770973 -4.5625 3 C-3.92441406 2.443125 -3.28632813 1.88625 -2.62890625 1.3125 C-1 0 -1 0 0 0 Z " fill="#2E2E2E" transform="translate(161,77)"/>
<path d="M0 0 C5.68898176 0.73248692 10.83506276 2.5823698 16 5 C14.125 6.0625 14.125 6.0625 12 7 C11.34 6.67 10.68 6.34 10 6 C10 5.34 10 4.68 10 4 C9.01 4.33 8.02 4.66 7 5 C7 4.34 7 3.68 7 3 C5.35 3 3.7 3 2 3 C2 6.63 2 10.26 2 14 C-1.07229068 10.92770932 -0.97870799 8.62811424 -1.125 4.3125 C-1 1 -1 1 0 0 Z " fill="#F09B65" transform="translate(177,4)"/>
<path d="M0 0 C0 0.99 0 1.98 0 3 C-1.33333333 4.33333333 -2.66666667 5.66666667 -4 7 C-4.70710678 8.64991582 -5.37943989 10.31562256 -6 12 C-6.66 12.66 -7.32 13.32 -8 14 C-8.99 14 -9.98 14 -11 14 C-11 14.99 -11 15.98 -11 17 C-8.525 17.99 -8.525 17.99 -6 19 C-8.60582371 19.93065133 -9.64198224 20.14917407 -12.25 19.0625 C-13.11625 18.5365625 -13.11625 18.5365625 -14 18 C-13.41187609 14.68107371 -12.37260416 12.97321601 -10.05859375 10.546875 C-9.47529297 9.928125 -8.89199219 9.309375 -8.29101562 8.671875 C-7.67935547 8.03765625 -7.06769531 7.4034375 -6.4375 6.75 C-5.82197266 6.1003125 -5.20644531 5.450625 -4.57226562 4.78125 C-3.05456842 3.18119713 -1.53042885 1.58786356 0 0 Z " fill="#7DCDF4" transform="translate(163,34)"/>
<path d="M0 0 C0.33 0.99 0.66 1.98 1 3 C1.66 3 2.32 3 3 3 C3.33 5.31 3.66 7.62 4 10 C0.62182575 10.84454356 -1.67465243 11.10844919 -5 10 C-5 9.34 -5 8.68 -5 8 C-4.0409375 7.690625 -4.0409375 7.690625 -3.0625 7.375 C-0.65074923 6.10461791 -0.65074923 6.10461791 -0.25 2.875 C-0.1675 1.92625 -0.085 0.9775 0 0 Z " fill="#75C9F1" transform="translate(175,48)"/>
<path d="M0 0 C1.875 0.125 1.875 0.125 4 1 C5.25 4.0625 5.25 4.0625 6 7 C4.02 7.99 4.02 7.99 2 9 C2 8.34 2 7.68 2 7 C1.34 7 0.68 7 0 7 C-0.33 7.66 -0.66 8.32 -1 9 C-2.0326802 6.21176345 -2.04509293 5.1322726 -1.0625 2.25 C-0.711875 1.5075 -0.36125 0.765 0 0 Z " fill="#7FD756" transform="translate(197,48)"/>
<path d="M0 0 C0.66 0.33 1.32 0.66 2 1 C2 2.32 2 3.64 2 5 C2.66 5.33 3.32 5.66 4 6 C0.86501708 7.85776765 -1.37471432 8.20140476 -5 8 C-5 6.68 -5 5.36 -5 4 C-4.34 4 -3.68 4 -3 4 C-2.67 3.01 -2.34 2.02 -2 1 C-1.67 1.66 -1.34 2.32 -1 3 C-0.67 2.01 -0.34 1.02 0 0 Z " fill="#7DD856" transform="translate(188,74)"/>
<path d="M0 0 C1.08174162 3.36541838 0.92538169 4.29847322 0 8 C4.95 8 9.9 8 15 8 C15 8.33 15 8.66 15 9 C7.08 9.495 7.08 9.495 -1 10 C-1.98484577 5.07577115 -2.03342293 4.18645898 0 0 Z " fill="#BBE6A8" transform="translate(183,74)"/>
<path d="M0 0 C-0.25 1.875 -0.25 1.875 -1 4 C-2.875 5.3125 -2.875 5.3125 -5 6 C-5.99 5.67 -6.98 5.34 -8 5 C-7.67 4.34 -7.34 3.68 -7 3 C-7.66 2.34 -8.32 1.68 -9 1 C-5.57367167 -0.61798838 -3.61944899 -1.34053666 0 0 Z " fill="#5B5B5B" transform="translate(28,81)"/>
<path d="M0 0 C1.9375 0.3125 1.9375 0.3125 4 1 C4.33 1.99 4.66 2.98 5 4 C4.67 4.66 4.34 5.32 4 6 C2.35 6 0.7 6 -1 6 C-1.33 5.01 -1.66 4.02 -2 3 C-1.34 2.01 -0.68 1.02 0 0 Z " fill="#636363" transform="translate(110,57)"/>
<path d="M0 0 C1.65 0.33 3.3 0.66 5 1 C4.67 1.66 4.34 2.32 4 3 C3.01 2.67 2.02 2.34 1 2 C0.896875 2.763125 0.79375 3.52625 0.6875 4.3125 C-0.04364039 7.17059424 -0.76951913 8.15742885 -3 10 C-3.33 9.34 -3.66 8.68 -4 8 C-3.22265625 6.0546875 -3.22265625 6.0546875 -2.0625 3.875 C-1.49208984 2.78832031 -1.49208984 2.78832031 -0.91015625 1.6796875 C-0.60980469 1.12539063 -0.30945313 0.57109375 0 0 Z " fill="#ACDE91" transform="translate(196,46)"/>
<path d="M0 0 C1.9375 0.75 1.9375 0.75 4 2 C4.75 4.125 4.75 4.125 5 6 C3.68 5.67 2.36 5.34 1 5 C0.67 5.66 0.34 6.32 0 7 C0 6.34 0 5.68 0 5 C-0.66 5 -1.32 5 -2 5 C-1.125 1.125 -1.125 1.125 0 0 Z " fill="#797979" transform="translate(132,65)"/>
<path d="M0 0 C1.45945288 0.08708669 2.91765868 0.19526907 4.375 0.3125 C5.59316406 0.39951172 5.59316406 0.39951172 6.8359375 0.48828125 C9 1 9 1 11 4 C7.04 3.67 3.08 3.34 -1 3 C-0.67 2.01 -0.34 1.02 0 0 Z " fill="#8B8B8B" transform="translate(160,81)"/>
<path d="M0 0 C1.65 0.33 3.3 0.66 5 1 C5.33 3.31 5.66 5.62 6 8 C4 5 4 5 4 3 C1.69 3.33 -0.62 3.66 -3 4 C-2.01 2.68 -1.02 1.36 0 0 Z " fill="#8DD2F0" transform="translate(167,30)"/>
<path d="M0 0 C2 4 2 4 1.125 6.75 C0.75375 7.4925 0.3825 8.235 0 9 C-0.99 9 -1.98 9 -3 9 C-2.01 6.03 -1.02 3.06 0 0 Z " fill="#A6DF89" transform="translate(189,61)"/>
<path d="M0 0 C0.33 0.66 0.66 1.32 1 2 C0.67 2.99 0.34 3.98 0 5 C2.475 5.99 2.475 5.99 5 7 C2.39417629 7.93065133 1.35801776 8.14917407 -1.25 7.0625 C-1.8275 6.711875 -2.405 6.36125 -3 6 C-2.42655063 3.13275314 -2.1385485 2.1385485 0 0 Z " fill="#92D6F4" transform="translate(152,46)"/>
<path d="M0 0 C0.99 0.33 1.98 0.66 3 1 C3 2.32 3 3.64 3 5 C1.02 5.99 1.02 5.99 -1 7 C-1.04254356 5.00045254 -1.04080783 2.99958364 -1 1 C-0.67 0.67 -0.34 0.34 0 0 Z " fill="#F4AC7C" transform="translate(213,18)"/>
<path d="M0 0 C1.65 0.33 3.3 0.66 5 1 C4.67 2.32 4.34 3.64 4 5 C2.68 5 1.36 5 0 5 C-0.33 4.01 -0.66 3.02 -1 2 C-0.67 1.34 -0.34 0.68 0 0 Z " fill="#6E6E6E" transform="translate(136,91)"/>
<path d="M0 0 C2.0625 1.75 2.0625 1.75 4 4 C3.75 6.25 3.75 6.25 3 8 C1.68 7.67 0.36 7.34 -1 7 C-0.01 7 0.98 7 2 7 C1.34 4.69 0.68 2.38 0 0 Z " fill="#B8E6A6" transform="translate(218,72)"/>
<path d="M0 0 C3 2 3 2 3.73046875 4.1640625 C3.88128906 4.97617188 4.03210938 5.78828125 4.1875 6.625 C4.34605469 7.44226563 4.50460938 8.25953125 4.66796875 9.1015625 C4.83232422 10.04128906 4.83232422 10.04128906 5 11 C1.87729874 8.48169253 1.05476902 7.2738451 0.25 3.25 C0.1675 2.1775 0.085 1.105 0 0 Z " fill="#96DC78" transform="translate(215,68)"/>
<path d="M0 0 C3 0.25 3 0.25 5 2.25 C1.30458414 3.20024979 -1.30458414 3.20024979 -5 2.25 C-3 0.25 -3 0.25 0 0 Z " fill="#8B8B8B" transform="translate(94,64.75)"/>
<path d="M0 0 C1.32 0.66 2.64 1.32 4 2 C2.35 3.32 0.7 4.64 -1 6 C-1.66 5.67 -2.32 5.34 -3 5 C-2 2 -2 2 0 0 Z " fill="#F7B488" transform="translate(207,25)"/>
<path d="M0 0 C2.97 0.99 5.94 1.98 9 3 C7.02 3.99 7.02 3.99 5 5 C4.34 4.67 3.68 4.34 3 4 C3 3.34 3 2.68 3 2 C2.01 2.33 1.02 2.66 0 3 C0 2.01 0 1.02 0 0 Z " fill="#F6BB8D" transform="translate(184,6)"/>
<path d="M0 0 C2.00720923 0.28674418 4.0085944 0.61866701 6 1 C6 1.33 6 1.66 6 2 C4.35 2.33 2.7 2.66 1 3 C0.67 4.65 0.34 6.3 0 8 C-0.33 8 -0.66 8 -1 8 C-1.04241723 5.66705225 -1.04092937 3.33297433 -1 1 C-0.67 0.67 -0.34 0.34 0 0 Z " fill="#F5C5A4" transform="translate(177,4)"/>
</svg>
