<?xml version="1.0" encoding="UTF-8"?>
<svg version="1.1" xmlns="http://www.w3.org/2000/svg" width="346" height="146">
<path d="M0 0 C58.60956798 -0.40303034 58.60956798 -0.40303034 83.14453125 -0.48828125 C88.75081676 -0.50785948 94.35709948 -0.52806416 99.96337891 -0.54931641 C100.66601864 -0.55195389 101.36865837 -0.55459138 102.09259021 -0.55730879 C113.43101266 -0.60078274 124.76892712 -0.67960913 136.10704851 -0.77152796 C147.74619402 -0.86509905 159.38504364 -0.91985084 171.02454758 -0.94088495 C177.56124421 -0.95392553 184.09678986 -0.98458338 190.63311768 -1.05730057 C196.78610671 -1.12519823 202.93747125 -1.14611198 209.09079933 -1.13107681 C211.34833418 -1.13382708 213.60592354 -1.15370944 215.86313438 -1.19205475 C232.91634011 -1.46753338 232.91634011 -1.46753338 238.0380249 2.13969803 C240.11021262 4.68150846 241.54417962 7.07275406 243 10 C244.11273259 11.5625908 245.24748153 13.11000172 246.4140625 14.6328125 C247.48706717 16.12828036 248.55740899 17.62566263 249.625 19.125 C250.69977991 20.62813422 251.77529638 22.13074207 252.8515625 23.6328125 C253.36750977 24.35500977 253.88345703 25.07720703 254.41503906 25.82128906 C256.52089314 28.71602748 258.70799645 31.54586057 260.91162109 34.36669922 C262 36 262 36 262 38 C265.28533967 34.99896857 267.79539358 31.66667936 270.35791016 28.05810547 C271.4797156 26.48130668 272.62103631 24.91825799 273.77880859 23.36767578 C276.68455828 19.44754387 279.24337024 15.69601883 281.2890625 11.2578125 C283.75854803 6.37627133 285.93986162 2.46702916 291 0 C302.2540492 -2.43168247 314.63105783 -0.95506461 326 0 C324.23965272 3.6496792 322.06264561 6.85363465 319.6875 10.125 C319.03261597 11.03427246 319.03261597 11.03427246 318.36450195 11.96191406 C316.91241126 13.97660418 315.45620717 15.98828375 314 18 C312.96849465 19.42950328 311.93724984 20.85919459 310.90625 22.2890625 C308.73375387 25.30091703 306.55911096 28.31120438 304.3828125 31.3203125 C302.08297786 34.50047942 299.78633999 37.68291915 297.4921875 40.8671875 C296.63040894 42.06263184 296.63040894 42.06263184 295.7512207 43.28222656 C294.66324662 44.79158023 293.5758029 46.30131641 292.48901367 47.81152344 C291.98861572 48.50536133 291.48821777 49.19919922 290.97265625 49.9140625 C290.24973389 50.92774902 290.24973389 50.92774902 289.51220703 51.96191406 C288.45795036 53.3827947 287.35533616 54.76850855 286.21826172 56.12402344 C282.88778244 59.82470064 282.88778244 59.82470064 282.23046875 64.45703125 C282.81441406 65.29621094 283.39835937 66.13539062 284 67 C284.63929443 67.9269165 284.63929443 67.9269165 285.29150391 68.87255859 C286.91997032 71.18065027 288.6092403 73.43407942 290.3125 75.6875 C291.58930472 77.39786814 292.86532862 79.10881941 294.140625 80.8203125 C294.78708984 81.6855957 295.43355469 82.55087891 296.09960938 83.44238281 C298.95780043 87.28904385 301.76356431 91.17260673 304.5625 95.0625 C305.62236087 96.53518141 306.68225685 98.00783756 307.7421875 99.48046875 C308.53447754 100.58140869 308.53447754 100.58140869 309.34277344 101.70458984 C311.09928381 104.13751715 312.86512087 106.56346743 314.6328125 108.98828125 C315.22763428 109.80611084 315.82245605 110.62394043 316.43530273 111.46655273 C317.57575499 113.03413829 318.71838465 114.60014281 319.86352539 116.16430664 C320.3764917 116.87063232 320.88945801 117.57695801 321.41796875 118.3046875 C322.09508911 119.2325708 322.09508911 119.2325708 322.78588867 120.17919922 C324.03682722 122.05522971 325.03494153 123.96424639 326 126 C295.17820194 128.66996604 295.17820194 128.66996604 287.32666016 124.62158203 C283.35772419 120.97762338 281.3077501 116.39588054 279.20898438 111.5078125 C277.02145717 106.97019548 273.85681596 103.11528523 270.8125 99.125 C269.70793944 97.63268988 268.60972336 96.13565137 267.51953125 94.6328125 C267.05651611 94.00262207 266.59350098 93.37243164 266.11645508 92.72314453 C265 91 265 91 264 88 C263.34 88 262.68 88 262 88 C261.76023437 88.70640625 261.52046875 89.4128125 261.2734375 90.140625 C259.79072165 93.46991336 257.90315039 95.90415518 255.625 98.75 C251.40986317 104.09137855 247.41051414 109.55688415 243.5 115.125 C242.9838916 115.85944336 242.4677832 116.59388672 241.93603516 117.35058594 C239.92854818 120.21651577 237.94107651 123.08838523 236 126 C232.86924635 126.30637188 229.93445323 126.41537996 226.80001831 126.39872742 C225.8345911 126.40537424 224.8691639 126.41202107 223.87448132 126.41886932 C220.61917786 126.43761503 217.36423821 126.43488626 214.10888672 126.43237305 C211.7834928 126.44138314 209.45810365 126.45170848 207.13272095 126.46325684 C200.80245037 126.49094133 194.47226961 126.50012686 188.14194632 126.50611091 C182.2018509 126.51451801 176.26182036 126.53664029 170.32176246 126.55872939 C158.55420701 126.60204019 146.78665685 126.63198237 135.01904297 126.65356445 C123.58607372 126.67456131 112.15314806 126.70185935 100.72021484 126.73754883 C100.00862013 126.73976234 99.29702541 126.74197585 98.56386721 126.74425644 C92.37427962 126.76356481 86.18469358 126.7833516 79.99510765 126.80318546 C53.33009492 126.88800987 26.66511314 126.94140868 0 127 C0 85.09 0 43.18 0 0 Z M7 7 C7 43.96 7 80.92 7 119 C46.34810329 121.80823929 46.34810329 121.80823929 80.25 106.5 C92.33303821 93.39970395 94.82345184 75.58911114 94.27734375 58.453125 C93.53095241 44.19426308 90.17885631 30.35299194 80.3125 19.5 C60.53905897 1.70771298 31.08710863 7 7 7 Z M134 7 C131.63063941 13.24717187 131.63063941 13.24717187 129.55174255 19.55273438 C129.30649841 20.3599292 129.06125427 21.16712402 128.80857849 21.9987793 C128.55133499 22.85511963 128.29409149 23.71145996 128.02905273 24.59375 C127.74897369 25.51841064 127.46889465 26.44307129 127.18032837 27.39575195 C126.26211263 30.4297111 125.3477514 33.46481588 124.43359375 36.5 C123.79266406 38.62179872 123.151553 40.74354266 122.51026917 42.86523438 C121.16962367 47.30287686 119.83082737 51.74107163 118.4934082 56.1796875 C116.78282952 61.85638307 115.06818453 67.53184035 113.35221767 73.20690918 C112.02875766 77.58517186 110.7071913 81.96400432 109.38621712 86.34301758 C108.75481955 88.43546156 108.12290201 90.52774871 107.49044609 92.61987305 C106.605602 95.54810252 105.72324784 98.47707106 104.84155273 101.40625 C104.582285 102.26259033 104.32301727 103.11893066 104.05589294 104.0012207 C103.81346863 104.80841553 103.57104431 105.61561035 103.3212738 106.44726562 C103.11315787 107.13743774 102.90504194 107.82760986 102.69061947 108.53869629 C101.71789288 112.00540359 100.87327162 115.50691352 100 119 C106.6 119 113.2 119 120 119 C121.0048288 115.56384438 122.00404743 112.12622812 123 108.6875 C123.28617188 107.71103516 123.57234375 106.73457031 123.8671875 105.72851562 C124.13789063 104.79072266 124.40859375 103.85292969 124.6875 102.88671875 C124.93886719 102.02264404 125.19023437 101.15856934 125.44921875 100.26831055 C126.11797962 97.90315554 126.11797962 97.90315554 126 95 C139.53 95 153.06 95 167 95 C167.495 98.465 167.495 98.465 168 102 C168.35908374 103.47721996 168.75146568 104.94715571 169.19140625 106.40234375 C169.39193604 107.07515381 169.59246582 107.74796387 169.79907227 108.44116211 C170.05100342 109.26495361 170.30293457 110.08874512 170.5625 110.9375 C171.366875 113.598125 172.17125 116.25875 173 119 C179.93 119 186.86 119 194 119 C186.37284476 93.30656514 178.70335736 67.62602 170.97476196 41.96292114 C170.11521873 39.10872964 169.25651757 36.25428692 168.39852905 33.39962769 C167.37917097 30.00837327 166.35797778 26.6176769 165.33534241 23.22740936 C164.77321079 21.36234749 164.21282005 19.4967612 163.65246582 17.63116455 C163.31686646 16.52013367 162.98126709 15.40910278 162.63549805 14.2644043 C162.19586983 12.80492622 162.19586983 12.80492622 161.74736023 11.31596375 C161.06693583 9.00810581 161.06693583 9.00810581 160 7 C151.42 7 142.84 7 134 7 Z M205 7 C208.88831023 12.91406546 212.89677548 18.71593364 217.0625 24.4375 C218.20184357 26.00909961 219.34116585 27.58071466 220.48046875 29.15234375 C221.34937744 30.34899658 221.34937744 30.34899658 222.23583984 31.56982422 C226.19994731 37.03048374 230.15509561 42.49751615 234.09375 47.9765625 C235.8414789 50.40635962 237.60625313 52.81964473 239.40625 55.2109375 C240.0559375 56.09007812 240.705625 56.96921875 241.375 57.875 C241.91898438 58.59429687 242.46296875 59.31359375 243.0234375 60.0546875 C244 62 244 62 243.71630859 63.890625 C242.93593425 66.18865987 241.95509975 67.7453677 240.515625 69.6953125 C239.9992749 70.40187988 239.4829248 71.10844727 238.95092773 71.83642578 C238.10896851 72.96927002 238.10896851 72.96927002 237.25 74.125 C236.05837428 75.74983907 234.86697429 77.3748437 233.67578125 79 C233.06428223 79.83015625 232.4527832 80.6603125 231.82275391 81.515625 C229.54209605 84.62411339 227.29284767 87.75445504 225.04467773 90.88647461 C219.66424399 98.38050423 214.19653174 105.80083915 208.60522461 113.13916016 C206.13553483 115.80970958 206.13553483 115.80970958 205 119 C220.66269625 121.385219 220.66269625 121.385219 235.39257812 117.5234375 C239.43508127 113.49337282 242.01538688 108.57575489 244.61669922 103.54003906 C246.86354924 99.41433705 249.6870977 95.75164308 252.5 92 C253.56909425 90.52016738 254.63549212 89.03838314 255.69921875 87.5546875 C258.00960657 84.35290118 260.35005339 81.17544324 262.70703125 78.0078125 C263.3103125 77.19054687 263.91359375 76.37328125 264.53515625 75.53125 C265.69542288 73.96042748 266.8630878 72.39503518 268.0390625 70.8359375 C268.55855469 70.12953125 269.07804687 69.423125 269.61328125 68.6953125 C270.07516846 68.07672363 270.53705566 67.45813477 271.01293945 66.82080078 C272.31771955 64.75910167 272.31771955 64.75910167 272 61 C270.936978 59.0129873 270.936978 59.0129873 269.39453125 57.0859375 C268.82976074 56.33425293 268.26499023 55.58256836 267.68310547 54.80810547 C267.06580566 54.00518066 266.44850586 53.20225586 265.8125 52.375 C264.51871134 50.6568671 263.22576168 48.93810215 261.93359375 47.21875 C261.27472168 46.34734375 260.61584961 45.4759375 259.93701172 44.578125 C257.58110449 41.4424582 255.26940061 38.27750505 252.97900391 35.09375 C251.90673817 33.61053067 250.8216278 32.13651572 249.72412109 30.671875 C246.94877316 26.93050366 244.56352205 23.2775256 242.50390625 19.09375 C238.87226251 12.07911132 238.87226251 12.07911132 233 7 C223.83641138 4.95861329 214.24964587 5.95149172 205 7 Z " fill="#010295" transform="translate(10,10)"/>
<path d="M0 0 C27.89441489 0 27.89441489 0 37.34765625 9.0859375 C44.37858236 17.23050911 45.39409371 27.88497976 45.375 38.25 C45.37258301 39.62490601 45.37258301 39.62490601 45.37011719 41.02758789 C45.18076692 51.57087053 43.13403093 61.85074815 35.42578125 69.578125 C25.37551178 78.25886089 12.69631066 77 0 77 C0 51.59 0 26.18 0 0 Z " fill="#010296" transform="translate(38,35)"/>
<path d="M0 0 C58.81108315 -0.1209091 58.81108315 -0.1209091 83.38867188 -0.14648438 C89.00512722 -0.15235824 94.62158231 -0.15841976 100.23803711 -0.16479492 C100.94199558 -0.16558617 101.64595406 -0.16637741 102.37124461 -0.16719264 C113.74512467 -0.18025057 125.11895936 -0.20390751 136.49281249 -0.23145839 C148.16020315 -0.25948518 159.82756731 -0.27594583 171.49499005 -0.28226548 C178.05062798 -0.28618509 184.60616295 -0.29543171 191.16176796 -0.31719017 C197.32666307 -0.3374869 203.49141239 -0.34384762 209.65633774 -0.33932304 C211.92395379 -0.3401513 214.19157451 -0.34615728 216.45916176 -0.35761642 C219.54553206 -0.37245381 222.63134556 -0.3689856 225.71772766 -0.36076355 C226.62336199 -0.36950207 227.52899631 -0.3782406 228.4620741 -0.38724393 C229.69893076 -0.37828421 229.69893076 -0.37828421 230.96077442 -0.36914349 C231.67350948 -0.37028265 232.38624454 -0.37142181 233.12057763 -0.37259549 C235.57155737 0.11331125 236.47126469 1.06216151 238 3 C238.39078556 5.72507798 238.13616953 8.23121956 238 11 C237.01 11.33 236.02 11.66 235 12 C234.01 9.525 234.01 9.525 233 7 C223.76 7 214.52 7 205 7 C205 6.67 205 6.34 205 6 C213.91 5.67 222.82 5.34 232 5 C232.33 4.01 232.66 3.02 233 2 C118.16 1.505 118.16 1.505 1 1 C1 41.92 1 82.84 1 125 C78.22 125 155.44 125 235 125 C235 123.68 235 122.36 235 121 C235.66 121 236.32 121 237 121 C237.33 120.01 237.66 119.02 238 118 C236.68 118 235.36 118 234 118 C235.56008767 113.21025716 238.26792449 109.73778605 241.3125 105.8125 C246.55821125 98.95049026 251.64496162 91.99156701 256.6340332 84.94067383 C259.20664094 81.33869955 261.71401248 78.00162321 265 75 C264.67 76.65 264.34 78.3 264 80 C263.34 80 262.68 80 262 80 C261.4465236 82.07553648 261 83.84365964 261 86 C262.32 86.33 263.64 86.66 265 87 C265 87.66 265 88.32 265 89 C266.485 88.505 266.485 88.505 268 88 C267.34 89.32 266.68 90.64 266 92 C265.34 90.68 264.68 89.36 264 88 C263.34 88 262.68 88 262 88 C261.76023437 88.70640625 261.52046875 89.4128125 261.2734375 90.140625 C259.79072165 93.46991336 257.90315039 95.90415518 255.625 98.75 C251.40986317 104.09137855 247.41051414 109.55688415 243.5 115.125 C242.9838916 115.85944336 242.4677832 116.59388672 241.93603516 117.35058594 C239.92854818 120.21651577 237.94107651 123.08838523 236 126 C232.86924635 126.30637188 229.93445323 126.41537996 226.80001831 126.39872742 C225.8345911 126.40537424 224.8691639 126.41202107 223.87448132 126.41886932 C220.61917786 126.43761503 217.36423821 126.43488626 214.10888672 126.43237305 C211.7834928 126.44138314 209.45810365 126.45170848 207.13272095 126.46325684 C200.80245037 126.49094133 194.47226961 126.50012686 188.14194632 126.50611091 C182.2018509 126.51451801 176.26182036 126.53664029 170.32176246 126.55872939 C158.55420701 126.60204019 146.78665685 126.63198237 135.01904297 126.65356445 C123.58607372 126.67456131 112.15314806 126.70185935 100.72021484 126.73754883 C100.00862013 126.73976234 99.29702541 126.74197585 98.56386721 126.74425644 C92.37427962 126.76356481 86.18469358 126.7833516 79.99510765 126.80318546 C53.33009492 126.88800987 26.66511314 126.94140868 0 127 C0 85.09 0 43.18 0 0 Z " fill="#060579" transform="translate(10,10)"/>
<path d="M0 0 C1.7910891 2.68663365 2.5457185 4.39735067 3.42041016 7.42382812 C3.68052887 8.31485229 3.94064758 9.20587646 4.20864868 10.12390137 C4.48268524 11.08332642 4.7567218 12.04275146 5.0390625 13.03125 C5.32478119 14.01871216 5.61049988 15.00617432 5.90487671 16.02355957 C6.50747273 18.11084384 7.10747502 20.1988784 7.70507812 22.28759766 C8.62195133 25.48935392 9.54862902 28.68815271 10.4765625 31.88671875 C11.06048345 33.91389333 11.64383606 35.94123172 12.2265625 37.96875 C12.50464752 38.92817505 12.78273254 39.8876001 13.06924438 40.87609863 C13.32305878 41.7671228 13.57687317 42.65814697 13.83837891 43.57617188 C14.0632901 44.35988159 14.28820129 45.14359131 14.51992798 45.9510498 C15 48 15 48 15 51 C5.43 51 -4.14 51 -14 51 C-12.67822281 44.39111403 -11.27685921 38.01521624 -9.43359375 31.5625 C-9.07516136 30.29237061 -9.07516136 30.29237061 -8.70948792 28.99658203 C-8.20958681 27.22816489 -7.70785655 25.46026385 -7.2043457 23.69287109 C-6.43183375 20.98010228 -5.66568724 18.26559342 -4.90039062 15.55078125 C-4.41182719 13.82541634 -3.92290794 12.10015214 -3.43359375 10.375 C-3.20441757 9.56361572 -2.97524139 8.75223145 -2.73912048 7.91625977 C-1.11600562 2.23201125 -1.11600562 2.23201125 0 0 Z " fill="#010295" transform="translate(156,36)"/>
<path d="M0 0 C58.81108315 -0.1209091 58.81108315 -0.1209091 83.38867188 -0.14648438 C89.00512722 -0.15235824 94.62158231 -0.15841976 100.23803711 -0.16479492 C100.94199558 -0.16558617 101.64595406 -0.16637741 102.37124461 -0.16719264 C113.74512467 -0.18025057 125.11895936 -0.20390751 136.49281249 -0.23145839 C148.16020315 -0.25948518 159.82756731 -0.27594583 171.49499005 -0.28226548 C178.05062798 -0.28618509 184.60616295 -0.29543171 191.16176796 -0.31719017 C197.32666307 -0.3374869 203.49141239 -0.34384762 209.65633774 -0.33932304 C211.92395379 -0.3401513 214.19157451 -0.34615728 216.45916176 -0.35761642 C219.54553206 -0.37245381 222.63134556 -0.3689856 225.71772766 -0.36076355 C226.62336199 -0.36950207 227.52899631 -0.3782406 228.4620741 -0.38724393 C229.69893076 -0.37828421 229.69893076 -0.37828421 230.96077442 -0.36914349 C231.67350948 -0.37028265 232.38624454 -0.37142181 233.12057763 -0.37259549 C235.57155737 0.11331125 236.47126469 1.06216151 238 3 C238.39078556 5.72507798 238.13616953 8.23121956 238 11 C237.01 11.33 236.02 11.66 235 12 C234.01 9.525 234.01 9.525 233 7 C223.76 7 214.52 7 205 7 C205 6.67 205 6.34 205 6 C213.91 5.67 222.82 5.34 232 5 C232.33 4.01 232.66 3.02 233 2 C118.16 1.505 118.16 1.505 1 1 C1.33 42.58 1.66 84.16 2 127 C1.34 127 0.68 127 0 127 C0 85.09 0 43.18 0 0 Z " fill="#131480" transform="translate(10,10)"/>
<path d="M0 0 C4.48427978 4.16695645 7.91401401 8.82192511 11.4375 13.8125 C12.53963295 15.36119801 13.64249334 16.90937861 14.74609375 18.45703125 C15.28089355 19.21064941 15.81569336 19.96426758 16.36669922 20.74072266 C18.48498787 23.67086364 20.69105934 26.5296548 22.91821289 29.37768555 C24 31 24 31 24 33 C24.66 33.33 25.32 33.66 26 34 C24.515 34.495 24.515 34.495 23 35 C22.731875 34.360625 22.46375 33.72125 22.1875 33.0625 C21.11332248 30.66868314 21.11332248 30.66868314 18 30 C18.33 31.65 18.66 33.3 19 35 C14.45686477 30.78015904 10.96093163 26.04322804 7.375 21 C6.80265625 20.2059375 6.2303125 19.411875 5.640625 18.59375 C-0.61922689 9.85907294 -0.61922689 9.85907294 -2 7 C-1.1875 3.1875 -1.1875 3.1875 0 0 Z " fill="#050588" transform="translate(248,15)"/>
<path d="M0 0 C1 3 1 3 -1 10 C5.27 10.33 11.54 10.66 18 11 C18.66 7.7 19.32 4.4 20 1 C20.33 2.32 20.66 3.64 21 5 C21.6469365 6.6744239 22.30959426 8.34302621 23 10 C21.35 11.98 19.7 13.96 18 16 C17.34 15.34 16.68 14.68 16 14 C13.12657939 13.80143028 10.37138012 13.72171054 7.5 13.75 C6.71496094 13.74226562 5.92992188 13.73453125 5.12109375 13.7265625 C0.58467749 13.55580103 0.58467749 13.55580103 -3 16 C-3.66 15.67 -4.32 15.34 -5 15 C-4.67 11.7 -4.34 8.4 -4 5 C-3.01 5 -2.02 5 -1 5 C-0.67 3.35 -0.34 1.7 0 0 Z " fill="#060684" transform="translate(112,118)"/>
<path d="M0 0 C3.875 1.75 3.875 1.75 5 4 C4.979375 5.2375 4.95875 6.475 4.9375 7.75 C4.87562682 11.51738912 5.59063226 14.47658065 7 18 C4.71440534 20.28559466 -0.74376204 19.18536745 -3.8125 19.1875 C-4.72837891 19.19974609 -5.64425781 19.21199219 -6.58789062 19.22460938 C-7.47283203 19.22654297 -8.35777344 19.22847656 -9.26953125 19.23046875 C-10.48539917 19.23663208 -10.48539917 19.23663208 -11.72583008 19.24291992 C-14.26036664 18.97218843 -15.84766982 18.3504759 -18 17 C-20.48895931 12.76876918 -20.16145121 8.76281059 -20 4 C-17.20975948 8.18536078 -16.89845406 12.05850265 -16 17 C-6.1 16.505 -6.1 16.505 4 16 C3.34 13.916875 2.68 11.83375 2 9.6875 C0 3.375 0 3.375 0 0 Z " fill="#0D117C" transform="translate(199,112)"/>
<path d="M0 0 C4.07502794 -0.07420211 8.14979392 -0.1286257 12.2253418 -0.16479492 C13.61147919 -0.17987397 14.99756894 -0.2003405 16.38354492 -0.22631836 C18.37658146 -0.26273716 20.36996723 -0.27813018 22.36328125 -0.29296875 C23.56251221 -0.3086792 24.76174316 -0.32438965 25.99731445 -0.34057617 C29 0 29 0 30.89648438 1.390625 C32.94143396 4.37299395 32.17233875 7.49577871 32 11 C31.01 11.33 30.02 11.66 29 12 C28.34 10.35 27.68 8.7 27 7 C17.76 7 8.52 7 -1 7 C-1 6.67 -1 6.34 -1 6 C7.91 5.67 16.82 5.34 26 5 C26.33 4.01 26.66 3.02 27 2 C18.09 1.67 9.18 1.34 0 1 C0 0.67 0 0.34 0 0 Z " fill="#0E0D7F" transform="translate(216,10)"/>
<path d="M0 0 C2 3 2 3 4 13 C-5.57 13 -15.14 13 -25 13 C-24.34 9.7 -23.68 6.4 -23 3 C-22.67 3 -22.34 3 -22 3 C-22 5.64 -22 8.28 -22 11 C-14.41 11 -6.82 11 1 11 C0.67 10.01 0.34 9.02 0 8 C-0.12781786 5.32605036 -0.04391871 2.67904143 0 0 Z " fill="#0C0B79" transform="translate(167,74)"/>
<path d="M0 0 C9.24 0 18.48 0 28 0 C28 0.66 28 1.32 28 2 C19.42 2.33 10.84 2.66 2 3 C1.01 6.3 0.02 9.6 -1 13 C-1.33 13 -1.66 13 -2 13 C-2 10.69 -2 8.38 -2 6 C-1.34 6 -0.68 6 0 6 C0 4.02 0 2.04 0 0 Z " fill="#0D0B79" transform="translate(142,15)"/>
<path d="M0 0 C6.94172388 -0.02529373 13.88343594 -0.04284304 20.82519531 -0.05493164 C23.18815556 -0.05996959 25.55111268 -0.06680008 27.9140625 -0.07543945 C31.30469535 -0.08752854 34.69528709 -0.09323359 38.0859375 -0.09765625 C39.14743011 -0.10281754 40.20892273 -0.10797882 41.30258179 -0.11329651 C42.77388046 -0.11340981 42.77388046 -0.11340981 44.27490234 -0.11352539 C45.14094086 -0.115746 46.00697937 -0.11796661 46.89926147 -0.12025452 C49 0 49 0 51 1 C51 1.66 51 2.32 51 3 C51.99 3.33 52.98 3.66 54 4 C52.58297487 3.85769192 51.1663904 3.71099254 49.75 3.5625 C48.56664063 3.44068359 48.56664063 3.44068359 47.359375 3.31640625 C45 3 45 3 43.1161499 2.49305725 C40.9451376 1.98721721 39.00835877 1.84277318 36.78222656 1.79467773 C35.96167786 1.77473251 35.14112915 1.75478729 34.29571533 1.73423767 C33.41953552 1.71752518 32.54335571 1.70081268 31.640625 1.68359375 C30.73624695 1.66281265 29.8318689 1.64203156 28.90008545 1.62062073 C26.01679945 1.5553406 23.1334239 1.49634048 20.25 1.4375 C18.29295956 1.39429429 16.33592812 1.35067935 14.37890625 1.30664062 C9.5860288 1.19968128 4.79306146 1.09835327 0 1 C0 0.67 0 0.34 0 0 Z " fill="#040381" transform="translate(17,15)"/>
<path d="M0 0 C1.1446875 0.12375 1.1446875 0.12375 2.3125 0.25 C2.25 3 2.25 3 1.3125 6.25 C-0.91261214 8.01511299 -3.09187603 9.02297776 -5.6875 10.25 C-5.6875 11.57 -5.6875 12.89 -5.6875 14.25 C-7.0075 14.58 -8.3275 14.91 -9.6875 15.25 C-8.58088139 9.71690694 -6.40178655 0.59551503 0 0 Z " fill="#05058F" transform="translate(264.6875,100.75)"/>
<path d="M0 0 C1.84187025 2.76280538 2.72248277 4.80707826 3.6875 7.9375 C3.95949219 8.79214844 4.23148438 9.64679687 4.51171875 10.52734375 C5.02075548 13.10510574 4.84888744 14.54449337 4 17 C3.71125 16.113125 3.4225 15.22625 3.125 14.3125 C2.16821056 11.49528665 1.11731227 8.75572395 0 6 C-0.18175781 7.01320313 -0.36351562 8.02640625 -0.55078125 9.0703125 C-0.80421582 10.42196353 -1.05814865 11.77352119 -1.3125 13.125 C-1.43044922 13.79015625 -1.54839844 14.4553125 -1.66992188 15.140625 C-2.50704474 19.51942154 -3.83638697 23.10913287 -6 27 C-7.1528275 23.59842304 -6.8304192 21.50130795 -5.8203125 18.0859375 C-5.55089844 17.16039063 -5.28148437 16.23484375 -5.00390625 15.28125 C-4.71386719 14.3221875 -4.42382812 13.363125 -4.125 12.375 C-3.84269531 11.40820312 -3.56039062 10.44140625 -3.26953125 9.4453125 C-1.18375319 2.36750638 -1.18375319 2.36750638 0 0 Z " fill="#0C0B75" transform="translate(156,36)"/>
<path d="M0 0 C1.23896243 2.92845666 0.99614276 4.01050025 -0.125 7.0625 C-2.16225053 10.2541925 -3.76715594 11.17634438 -7 13 C-7.433125 13.99 -7.433125 13.99 -7.875 15 C-9.72767768 18.29364922 -12.53345164 18.86440657 -16 20 C-18.2265625 19.57421875 -18.2265625 19.57421875 -20 19 C-19.3709375 18.67128906 -18.741875 18.34257813 -18.09375 18.00390625 C-10.31658577 13.68195806 -3.73986464 8.26510086 0 0 Z " fill="#090879" transform="translate(97,105)"/>
<path d="M0 0 C11.55 0 23.1 0 35 0 C33.21844267 3.56311466 31.83236991 5.35645475 29 8 C28.67 7.34 28.34 6.68 28 6 C28.66 6 29.32 6 30 6 C30.33 4.68 30.66 3.36 31 2 C26.78248718 1.95053887 22.56512832 1.91425173 18.34741211 1.89013672 C16.91281188 1.880083 15.47823211 1.86643806 14.04370117 1.84912109 C11.98090562 1.82484451 9.91838115 1.81351081 7.85546875 1.8046875 C5.99378052 1.78897705 5.99378052 1.78897705 4.09448242 1.77294922 C0.83096691 1.7571193 0.83096691 1.7571193 -2 4 C-1.34 2.68 -0.68 1.36 0 0 Z " fill="#0D0D78" transform="translate(301,10)"/>
<path d="M0 0 C1.26856145 3.80568436 0.5105389 5.38854175 -0.65234375 9.19921875 C-1.01650391 10.40771484 -1.38066406 11.61621094 -1.75585938 12.86132812 C-2.14955268 14.13677646 -2.54343533 15.41216636 -2.9375 16.6875 C-3.3282691 17.97436819 -3.71825262 19.26147521 -4.10742188 20.54882812 C-5.06389828 23.70165777 -6.02838316 26.85180968 -7 30 C-7.33 30 -7.66 30 -8 30 C-7.33333333 24.66666667 -6.66666667 19.33333333 -6 14 C-5.34 14 -4.68 14 -4 14 C-4.061875 12.9790625 -4.061875 12.9790625 -4.125 11.9375 C-3.97450035 8.40075832 -3.05624147 5.36676967 -2 2 C-1.34 2 -0.68 2 0 2 C0 1.34 0 0.68 0 0 Z " fill="#0E0D7B" transform="translate(121,88)"/>
<path d="M0 0 C1.921875 0.33984375 1.921875 0.33984375 4 1 C5.25 3.5625 5.25 3.5625 6 6 C6.99 6 7.98 6 9 6 C9.33 5.01 9.66 4.02 10 3 C15 8.75 15 8.75 15 11 C15.66 11.33 16.32 11.66 17 12 C16.01 12.33 15.02 12.66 14 13 C13.5978125 12.0409375 13.5978125 12.0409375 13.1875 11.0625 C12.11332248 8.66868314 12.11332248 8.66868314 9 8 C9.33 9.65 9.66 11.3 10 13 C5.75595588 9.11973109 2.89082453 4.95745654 0 0 Z " fill="#07087A" transform="translate(257,37)"/>
<path d="M0 0 C4.39970265 4.0114936 8.42485876 8.58833101 11 14 C10.7890625 16.21484375 10.7890625 16.21484375 10 18 C9.34 18.33 8.68 18.66 8 19 C8 17.68 8 16.36 8 15 C6.68 15.33 5.36 15.66 4 16 C4.50603992 13.83125748 4.99983813 12.00032373 6 10 C4.7934375 9.195625 4.7934375 9.195625 3.5625 8.375 C0.53491576 5.56894631 0.27489191 4.03174806 0 0 Z " fill="#050582" transform="translate(244,58)"/>
<path d="M0 0 C0.33 1.32 0.66 2.64 1 4 C1.6469365 5.6744239 2.30959426 7.34302621 3 9 C1.35 10.98 -0.3 12.96 -2 15 C-2.33 14.01 -2.66 13.02 -3 12 C-8.61 11.67 -14.22 11.34 -20 11 C-20 10.67 -20 10.34 -20 10 C-14.06 10 -8.12 10 -2 10 C-1.34 6.7 -0.68 3.4 0 0 Z " fill="#0E107E" transform="translate(132,119)"/>
<path d="M0 0 C1 2 1 2 0.3125 4.9375 C-1.10301976 8.24037943 -2.16538143 8.98833521 -5 11 C-5.165 11.680625 -5.33 12.36125 -5.5 13.0625 C-5.7475 14.0215625 -5.7475 14.0215625 -6 15 C-8 16.125 -8 16.125 -10 17 C-10.33 17.66 -10.66 18.32 -11 19 C-11.66 18.67 -12.32 18.34 -13 18 C-11.39642346 15.74957738 -9.79216064 13.49964941 -8.1875 11.25 C-7.73568359 10.61578125 -7.28386719 9.9815625 -6.81835938 9.328125 C-4.58023369 6.19148171 -2.33201302 3.06803042 0 0 Z " fill="#090779" transform="translate(292,22)"/>
<path d="M0 0 C0.33 0.66 0.66 1.32 1 2 C1.99 2 2.98 2 4 2 C3.65120368 5.25543229 2.97866739 6.01873107 0.4375 8.25 C-0.366875 8.8275 -1.17125 9.405 -2 10 C-2.66 9.01 -3.32 8.02 -4 7 C-1.125 1.125 -1.125 1.125 0 0 Z " fill="#04038A" transform="translate(72,97)"/>
<path d="M0 0 C2.99324263 1.0975223 3.84610901 1.67682892 5.25 4.625 C5.4975 5.40875 5.745 6.1925 6 7 C5.01 7.33 4.02 7.66 3 8 C3 8.99 3 9.98 3 11 C0.03595495 8.19195732 -2.44499019 5.81684226 -4 2 C-3.34 1.67 -2.68 1.34 -2 1 C-1.67 1.66 -1.34 2.32 -1 3 C-0.67 2.01 -0.34 1.02 0 0 Z " fill="#030387" transform="translate(279,60)"/>
<path d="M0 0 C1.485 0.99 1.485 0.99 3 2 C2.67 2.99 2.34 3.98 2 5 C0 2 0 2 0 0 Z M-5 3 C-2.1875 3.5625 -2.1875 3.5625 1 5 C2.9375 8.4375 2.9375 8.4375 4 12 C3.67 12.99 3.34 13.98 3 15 C1.66382103 13.18959679 0.33112616 11.3766216 -1 9.5625 C-1.7425 8.55316406 -2.485 7.54382813 -3.25 6.50390625 C-5 4 -5 4 -5 3 Z " fill="#0A097B" transform="translate(253,22)"/>
<path d="M0 0 C0.99 0.33 1.98 0.66 3 1 C2.9071875 2.0209375 2.9071875 2.0209375 2.8125 3.0625 C2.83623763 6.15792308 2.83623763 6.15792308 4.5 9.3125 C6.26683764 13.65597585 6.24352977 16.37293433 6 21 C4.16124447 17.62066551 3.01148893 14.17043833 1.875 10.5 C1.34519531 8.81390625 1.34519531 8.81390625 0.8046875 7.09375 C0 4 0 4 0 0 Z " fill="#100E7A" transform="translate(171,18)"/>
<path d="M0 0 C4.32384201 4.32384201 5.30440659 9.08745598 6 15 C6.33 15.33 6.66 15.66 7 16 C7.04092937 18.33297433 7.04241723 20.66705225 7 23 C4.86998146 19.18786401 3.66010088 15.08792756 2.375 10.9375 C2.14554688 10.21755859 1.91609375 9.49761719 1.6796875 8.75585938 C0.7372679 5.73506798 0 3.18325133 0 0 Z " fill="#0D0D77" transform="translate(192,89)"/>
<path d="M0 0 C3.875 1.75 3.875 1.75 5 4 C5.07065617 6.04055005 5.08421976 8.08334257 5.0625 10.125 C5.05347656 11.22070312 5.04445312 12.31640625 5.03515625 13.4453125 C5.02355469 14.28835937 5.01195312 15.13140625 5 16 C3.13389074 13.20083611 2.31214617 11.18061731 1.375 8 C1.11460937 7.13375 0.85421875 6.2675 0.5859375 5.375 C0 3 0 3 0 0 Z " fill="#0A0A7B" transform="translate(199,112)"/>
<path d="M0 0 C4.3689695 3.30099918 6.9138202 5.78455049 9 11 C9 11.66 9 12.32 9 13 C8.34 13 7.68 13 7 13 C6.87625 12.071875 6.87625 12.071875 6.75 11.125 C6.20673909 8.83330129 6.20673909 8.83330129 4.0625 7.9375 C3.381875 7.628125 2.70125 7.31875 2 7 C0 4 0 4 -1 2 C-0.67 1.34 -0.34 0.68 0 0 Z " fill="#07067F" transform="translate(71,41)"/>
<path d="M0 0 C0.433125 0.556875 0.86625 1.11375 1.3125 1.6875 C2.364375 2.1825 2.364375 2.1825 3.4375 2.6875 C5.3125 3.6875 5.3125 3.6875 6.3125 6.6875 C-1.1875 3.6875 -1.1875 3.6875 -8.6875 0.6875 C-8.6875 0.3575 -8.6875 0.0275 -8.6875 -0.3125 C-2.14707447 -1.66994681 -2.14707447 -1.66994681 0 0 Z " fill="#08077C" transform="translate(79.6875,19.3125)"/>
<path d="M0 0 C1.31225809 3.93677426 0.3393954 5.7794262 -0.9375 9.6875 C-1.50791016 11.45673828 -1.50791016 11.45673828 -2.08984375 13.26171875 C-2.39019531 14.16535156 -2.69054687 15.06898437 -3 16 C-3.33 16 -3.66 16 -4 16 C-5.72107623 8.48520179 -5.72107623 8.48520179 -3.953125 4.84375 C-2.5625 2.9375 -2.5625 2.9375 0 0 Z " fill="#09087A" transform="translate(135,42)"/>
<path d="M0 0 C0.33 0.66 0.66 1.32 1 2 C1.66 2 2.32 2 3 2 C3 3.65 3 5.3 3 7 C3.66 7 4.32 7 5 7 C4.67 10.96 4.34 14.92 4 19 C3.67 19 3.34 19 3 19 C2.49666458 16.39643759 1.99720622 13.79223349 1.5 11.1875 C1.35691406 10.44951172 1.21382813 9.71152344 1.06640625 8.95117188 C0.49073719 5.92205609 0 3.090804 0 0 Z " fill="#1B1A7E" transform="translate(100,45)"/>
<path d="M0 0 C0.99 0 1.98 0 3 0 C3 0.99 3 1.98 3 3 C4.32 2.67 5.64 2.34 7 2 C7 4.64 7 7.28 7 10 C3.60582235 6.87378374 1.3937282 4.43458973 0 0 Z " fill="#0B0B83" transform="translate(277,102)"/>
<path d="M0 0 C5.80205656 5.64524422 5.80205656 5.64524422 8 9 C8 9.66 8 10.32 8 11 C7.01 11.33 6.02 11.66 5 12 C4.34 10.02 3.68 8.04 3 6 C2.34 6 1.68 6 1 6 C0.67 4.02 0.34 2.04 0 0 Z " fill="#08077B" transform="translate(236,47)"/>
<path d="M0 0 C1.65 0 3.3 0 5 0 C3.34784004 3.57967992 1.26875648 6.77982952 -1 10 C-1.33 10 -1.66 10 -2 10 C-2 8.35 -2 6.7 -2 5 C-1.01 5 -0.02 5 1 5 C0.67 3.35 0.34 1.7 0 0 Z " fill="#0A067F" transform="translate(315,32)"/>
<path d="M0 0 C3.59478807 3.32850747 6.22364768 6.98971331 9 11 C8.67 11.66 8.34 12.32 8 13 C5.5 10.6875 5.5 10.6875 3 8 C3 7.01 3 6.02 3 5 C2.01 5 1.02 5 0 5 C0 3.35 0 1.7 0 0 Z " fill="#0D0C78" transform="translate(219,23)"/>
<path d="M0 0 C2.40994015 3.61491023 2.75176686 6.59570656 3.4375 10.8203125 C3.623125 11.53960937 3.80875 12.25890625 4 13 C4.66 13.33 5.32 13.66 6 14 C4.125 13.8125 4.125 13.8125 2 13 C-0.53124675 8.82344286 -0.16019214 4.72566806 0 0 Z " fill="#161582" transform="translate(179,116)"/>
<path d="M0 0 C0.36923077 4.55384615 0.36923077 4.55384615 -1.5 6.8125 C-1.995 7.204375 -2.49 7.59625 -3 8 C-5 5 -5 5 -5 2 C-2 0 -2 0 0 0 Z " fill="#03048D" transform="translate(256,117)"/>
<path d="M0 0 C2.31 0 4.62 0 7 0 C7 2.66666667 7 5.33333333 7 8 C5.83035398 6.8572081 4.66435444 5.71068285 3.5 4.5625 C2.8503125 3.92441406 2.200625 3.28632813 1.53125 2.62890625 C0 1 0 1 0 0 Z " fill="#05057B" transform="translate(86,26)"/>
<path d="M0 0 C4.00972202 3.67557852 6.45335415 7.18966896 9 12 C8.34 12 7.68 12 7 12 C5.64613064 10.34997172 4.31321858 8.6825613 3 7 C2.34 6.67 1.68 6.34 1 6 C0.375 2.9375 0.375 2.9375 0 0 Z " fill="#070674" transform="translate(244,58)"/>
<path d="M0 0 C0.66 0 1.32 0 2 0 C2.680625 1.175625 2.680625 1.175625 3.375 2.375 C5.07651113 5.1235949 6.04519084 5.87921032 9 7 C9 7.66 9 8.32 9 9 C8.01 9.33 7.02 9.66 6 10 C4.99421411 8.71283353 3.99553202 7.42011342 3 6.125 C2.443125 5.40570313 1.88625 4.68640625 1.3125 3.9453125 C0 2 0 2 0 0 Z " fill="#090878" transform="translate(267,50)"/>
<path d="M0 0 C0.99 0 1.98 0 3 0 C3 1.32 3 2.64 3 4 C2.34 4 1.68 4 1 4 C1.33 5.98 1.66 7.96 2 10 C-0.15377564 7.37801226 -1.40072174 5.35595828 -2 2 C-1.34 2 -0.68 2 0 2 C0 1.34 0 0.68 0 0 Z " fill="#060783" transform="translate(98,35)"/>
<path d="M0 0 C0 3 0 3 -1 6 C-0.34 6 0.32 6 1 6 C0.67 7.32 0.34 8.64 0 10 C0 9.01 0 8.02 0 7 C-1.98 7.99 -1.98 7.99 -4 9 C-4 4.31908701 -3.00354129 3.37898396 0 0 Z " fill="#111185" transform="translate(256,110)"/>
<path d="M0 0 C1.94566951 3.47547073 2.07637127 5.12506344 1 9 C0.34 9 -0.32 9 -1 9 C-1.33 10.65 -1.66 12.3 -2 14 C-3.25127906 10.45332822 -2.72285053 8.27746562 -1.5625 4.75 C-1.27503906 3.85796875 -0.98757812 2.9659375 -0.69140625 2.046875 C-0.46324219 1.37140625 -0.23507813 0.6959375 0 0 Z " fill="#0D0A7C" transform="translate(148,63)"/>
<path d="M0 0 C0.99 0.33 1.98 0.66 3 1 C2.02471263 2.33617352 1.04466681 3.6688751 0.0625 5 C-0.48277344 5.7425 -1.02804687 6.485 -1.58984375 7.25 C-2.28787109 8.11625 -2.28787109 8.11625 -3 9 C-3.33 9 -3.66 9 -4 9 C-4 7.02 -4 5.04 -4 3 C-2.68 2.67 -1.36 2.34 0 2 C0 1.34 0 0.68 0 0 Z " fill="#070779" transform="translate(301,55)"/>
<path d="M0 0 C0.66 0 1.32 0 2 0 C2.66 1.65 3.32 3.3 4 5 C4.99 5 5.98 5 7 5 C7.33 6.98 7.66 8.96 8 11 C4.31993178 7.61831569 2.0214155 4.57478244 0 0 Z " fill="#0A0B72" transform="translate(284,112)"/>
<path d="M0 0 C1.485 0.99 1.485 0.99 3 2 C3.51171875 4.6015625 3.51171875 4.6015625 3.6875 7.625 C3.75324219 8.62789062 3.81898438 9.63078125 3.88671875 10.6640625 C3.92410156 11.43492188 3.96148437 12.20578125 4 13 C1.99706653 9.99559979 1.50728374 8.29006055 0.875 4.8125 C0.70742187 3.91144531 0.53984375 3.01039062 0.3671875 2.08203125 C0.24601563 1.39496094 0.12484375 0.70789063 0 0 Z " fill="#0A0A75" transform="translate(188,75)"/>
<path d="M0 0 C0.99 0.33 1.98 0.66 3 1 C3.33 2.65 3.66 4.3 4 6 C2.68 5.67 1.36 5.34 0 5 C-0.5625 3.0625 -0.5625 3.0625 -1 1 C-0.67 0.67 -0.34 0.34 0 0 Z " fill="#010396" transform="translate(250,21)"/>
<path d="M0 0 C1.98 0 3.96 0 6 0 C4.68 2.31 3.36 4.62 2 7 C1.67 7 1.34 7 1 7 C0.67 4.69 0.34 2.38 0 0 Z " fill="#080680" transform="translate(218,116)"/>
<path d="M0 0 C1.68762851 1.6454378 3.3540349 3.31288577 5 5 C5 5.33 5 5.66 5 6 C3.35 6 1.7 6 0 6 C0 4 0 2 0 0 Z " fill="#040484" transform="translate(324,120)"/>
<path d="M0 0 C1.65 0 3.3 0 5 0 C3.02 2.97 3.02 2.97 1 6 C-0.0625 4.125 -0.0625 4.125 -1 2 C-0.67 1.34 -0.34 0.68 0 0 Z " fill="#050680" transform="translate(244,82)"/>
<path d="M0 0 C1.32 0.33 2.64 0.66 4 1 C1.525 4.465 1.525 4.465 -1 8 C-1.33 6.68 -1.66 5.36 -2 4 C-1.34 4 -0.68 4 0 4 C0 2.68 0 1.36 0 0 Z " fill="#070778" transform="translate(307,45)"/>
<path d="M0 0 C0.33 0.99 0.66 1.98 1 3 C-0.65 4.65 -2.3 6.3 -4 8 C-4 4.09161134 -2.49432124 2.88405893 0 0 Z " fill="#0B0A77" transform="translate(280,77)"/>
<path d="M0 0 C0.99 0 1.98 0 3 0 C2.835 0.763125 2.67 1.52625 2.5 2.3125 C1.90854604 5.03596236 1.90854604 5.03596236 2 8 C1.01 7.34 0.02 6.68 -1 6 C-0.67 4.02 -0.34 2.04 0 0 Z " fill="#06077C" transform="translate(290,69)"/>
<path d="M0 0 C1 3 1 3 0.0625 5.1875 C-0.4634375 6.0846875 -0.4634375 6.0846875 -1 7 C-1 6.34 -1 5.68 -1 5 C-1.99 4.67 -2.98 4.34 -4 4 C-3.67 3.01 -3.34 2.02 -3 1 C-2.01 0.67 -1.02 0.34 0 0 Z " fill="#12119C" transform="translate(294,63)"/>
</svg>
