<?xml version="1.0" encoding="UTF-8"?>
<svg version="1.1" xmlns="http://www.w3.org/2000/svg" width="348" height="279">
<path d="M0 0 C1.81371094 0.04447266 1.81371094 0.04447266 3.6640625 0.08984375 C17.19068108 0.68362465 30.56567443 2.84219051 42.8125 8.8125 C43.77144165 9.27281616 43.77144165 9.27281616 44.74975586 9.74243164 C49.45180019 12.21781834 53.53473593 15.19495097 56 20 C56.798018 24.21662887 56.7495842 28.28427841 56.625 32.5625 C56.63144531 33.67302734 56.63789063 34.78355469 56.64453125 35.92773438 C56.56395799 42.04763983 56.34054494 46.31099944 52 51 C35.5416221 64.6395397 7.3777065 66.1309768 -13 65 C-13.82741699 64.95601074 -14.65483398 64.91202148 -15.50732422 64.86669922 C-33.73071814 63.76856407 -54.11342071 61.3026869 -67 47 C-68.80251747 41.59244759 -68.14724247 35.58277919 -68.03710938 29.91748047 C-68.00662497 28.34231929 -67.99313957 26.76683801 -67.984375 25.19140625 C-67.74303893 20.21815948 -66.40635753 17.12848397 -62.8984375 13.5546875 C-46.40796742 0.05014616 -20.24629641 -0.63654684 0 0 Z " fill="#42B7FD" transform="translate(83,88)"/>
<path d="M0 0 C0 0.66 0 1.32 0 2 C0.66 1.67 1.32 1.34 2 1 C5.57193052 0.63275431 9.16329949 0.53134336 12.75 0.375 C13.74 0.3234375 14.73 0.271875 15.75 0.21875 C20.67890187 -0.00529099 25.15156483 -0.04497732 30 1 C31.55013301 1.25783427 33.10099959 1.51127479 34.65234375 1.76171875 C47.97332336 4.04823076 62.64991314 6.59083012 73 16 C76.65629183 21.47577354 76.45079513 26.65005286 76.375 33 C76.38660156 33.97195312 76.39820313 34.94390625 76.41015625 35.9453125 C76.38810623 41.34021755 76.16688862 45.42085023 73 50 C71.0546875 51.7578125 71.0546875 51.7578125 68.875 53.125 C67.81925781 53.80949219 67.81925781 53.80949219 66.7421875 54.5078125 C49.56724726 63.85372015 30.34826341 65.39811054 11.125 65.875 C9.9537558 65.90453262 9.9537558 65.90453262 8.7588501 65.93466187 C-4.30938745 66.23020418 -4.30938745 66.23020418 -8 65 C-10.33006911 64.64456573 -12.66327016 64.3086247 -15 64 C-15 63.34 -15 62.68 -15 62 C-16.32 62 -17.64 62 -19 62 C-19.09474609 61.05640625 -19.09474609 61.05640625 -19.19140625 60.09375 C-20.21544973 52.93622506 -22.51182788 48.71135364 -28 44 C-33.56018484 39.91005634 -38.0712163 37.70701874 -45 37 C-46.6796875 35.9921875 -46.6796875 35.9921875 -48 34 C-48.21714241 31.18872957 -48.28284276 28.6116655 -48.1875 25.8125 C-48.17396484 25.06291016 -48.16042969 24.31332031 -48.14648438 23.54101562 C-48.11118539 21.69370233 -48.05737917 19.84675934 -48 18 C-47.41992188 17.73058594 -46.83984375 17.46117188 -46.2421875 17.18359375 C-43.28204574 15.62101021 -40.81315625 13.60717428 -38.1953125 11.53515625 C-32.45835753 7.52337102 -26.5265916 5.95021048 -19.8125 4.375 C-18.02712923 3.94620473 -16.24196361 3.51655409 -14.45703125 3.0859375 C-13.67303955 2.9007959 -12.88904785 2.7156543 -12.08129883 2.52490234 C-10.36659665 2.09245546 -8.67764492 1.55921497 -7 1 C-4 0 -4 0 0 0 Z " fill="#4C4C4C" transform="translate(165,53)"/>
<path d="M0 0 C35.2074628 0.54564182 35.2074628 0.54564182 48.0859375 3.37890625 C51.15543531 4.1389697 51.15543531 4.1389697 55 4 C55 4.66 55 5.32 55 6 C56.36125 6.061875 56.36125 6.061875 57.75 6.125 C65.17953022 7.21446268 74.32812437 11.4448764 79.01953125 17.45703125 C81.47843653 23.83451069 80.98571844 31.25196109 81 38 C79.87464844 38.09796875 78.74929687 38.1959375 77.58984375 38.296875 C60.9149777 39.86825181 44.10884081 42.68997096 31 54 C28.39361738 57.50513524 27.75957544 59.67235786 28 64 C25.88578706 66.11421294 21.8934139 65.79589769 19 66 C16.15453736 65.97969398 13.33591372 65.78720355 10.5 65.5625 C6.18628526 65.24427514 1.92123802 64.9711991 -2.40625 65.0234375 C-5.99485363 65.00003356 -6.98792557 64.60016454 -10 63 C-12.6634179 62.5302887 -15.30550475 62.26944952 -18 62 C-18 61.34 -18 60.68 -18 60 C-19.918125 59.6596875 -19.918125 59.6596875 -21.875 59.3125 C-29.58135472 57.5649172 -37.07578053 54.44176032 -41.9453125 47.9765625 C-44.03814074 44.05444735 -44.03255005 40.37798219 -44 36 C-44.01708008 35.30277832 -44.03416016 34.60555664 -44.05175781 33.88720703 C-44.34658892 20.14865554 -44.34658892 20.14865554 -41.5703125 15.71875 C-39.4676715 14.07851553 -37.44063809 13.07187581 -35 12 C-34.15308594 11.49726563 -33.30617188 10.99453125 -32.43359375 10.4765625 C-23.81200033 5.56021577 -14.6344502 3.82326727 -5 2 C-3.33316852 1.66749179 -1.66641134 1.33460745 0 1 C0 0.67 0 0.34 0 0 Z M26 62 C27 64 27 64 27 64 Z " fill="#4C4C4C" transform="translate(84,10)"/>
<path d="M0 0 C1.77481031 1.77481031 3.47293702 3.54248658 5.125 5.4375 C21.20530968 19.76994993 49.62853831 19.61024952 70 19 C85.61380693 17.86763317 104.15385737 15.89500176 117 6 C118.5855544 4.07728749 119.74165963 2.16434543 121 0 C121.66 0 122.32 0 123 0 C123.12408851 4.73216293 123.21456516 9.46336832 123.2746582 14.19677734 C123.29972128 15.80501818 123.33378171 17.41314602 123.37719727 19.02099609 C123.43821848 21.33980239 123.46628963 23.65709665 123.48828125 25.9765625 C123.51408768 26.68930328 123.5398941 27.40204407 123.56648254 28.13638306 C123.56861797 31.98281862 123.03783092 34.42492967 120.65844727 37.37792969 C109.5507344 48.33364978 90.28190143 51.81366185 75.34765625 52.45703125 C74.61879715 52.48897583 73.88993805 52.52092041 73.13899231 52.55383301 C49.06882015 53.535553 21.35071536 54.30687594 2 37.375 C-1.3684731 33.3749382 -1.12833763 30.02585173 -1.1328125 24.9609375 C-1.13376923 24.27947662 -1.13472595 23.59801575 -1.13571167 22.89590454 C-1.13639115 21.45859688 -1.13455304 20.02128612 -1.13037109 18.58398438 C-1.125003 16.37623272 -1.1303323 14.16868297 -1.13671875 11.9609375 C-1.13605825 10.56510372 -1.13477767 9.16927006 -1.1328125 7.7734375 C-1.13168457 6.49903809 -1.13055664 5.22463867 -1.12939453 3.91162109 C-1 1 -1 1 0 0 Z " fill="#42B7FD" transform="translate(16,187)"/>
<path d="M0 0 C0.33 0 0.66 0 1 0 C1.17426207 4.55302754 1.30062038 9.10407758 1.38452148 13.65966797 C1.41952406 15.2059107 1.46714551 16.75192509 1.52807617 18.29736328 C2.08432176 32.77844584 2.08432176 32.77844584 -2.03125 37.7890625 C-5.61918373 41.04430105 -9.54828769 43.36874481 -13.9375 45.375 C-14.60201172 45.70371094 -15.26652344 46.03242188 -15.95117188 46.37109375 C-32.33749699 54.22254342 -52.24628988 53.61618761 -70 53 C-70.88623047 52.9695459 -71.77246094 52.9390918 -72.68554688 52.90771484 C-88.81027781 52.20754637 -106.08209494 49.29081815 -119 39 C-124.85747219 32.36153152 -123.1082185 20.76650339 -123.1875 12.4375 C-123.20063232 11.54409912 -123.21376465 10.65069824 -123.22729492 9.73022461 C-123.22834229 8.88983643 -123.22938965 8.04944824 -123.23046875 7.18359375 C-123.23457764 6.42618896 -123.23868652 5.66878418 -123.24291992 4.88842773 C-123 3 -123 3 -121 1 C-120.13375 2.299375 -120.13375 2.299375 -119.25 3.625 C-112.69919722 11.43060444 -101.6004147 14.13756389 -92 16 C-91.33194336 16.13535156 -90.66388672 16.27070313 -89.97558594 16.41015625 C-79.93104599 18.41635316 -70.37138686 19.47525916 -60.10546875 19.078125 C-57.86207463 18.99488218 -55.61947261 18.95091612 -53.375 18.90625 C-39.3250786 18.51521844 -26.32334247 16.00338926 -13.19921875 10.83203125 C-11.14663729 10.05547734 -9.13810145 9.48437539 -7 9 C-7 8.34 -7 7.68 -7 7 C-5.34614767 5.65080468 -3.678298 4.31866272 -2 3 C-1.34 2.01 -0.68 1.02 0 0 Z " fill="#43B7FC" transform="translate(138,142)"/>
<path d="M0 0 C0.66 0 1.32 0 2 0 C2.17426207 4.55302754 2.30062038 9.10407758 2.38452148 13.65966797 C2.41952406 15.2059107 2.46714551 16.75192509 2.52807617 18.29736328 C3.08476611 32.79001383 3.08476611 32.79001383 -1.36328125 37.91015625 C-3.2277832 39.60961914 -3.2277832 39.60961914 -5 41 C-5.86625 41.804375 -6.7325 42.60875 -7.625 43.4375 C-10.21891772 45.14402481 -11.97570238 45.43322094 -15 46 C-17.54524636 46.75690685 -20.07014528 47.56496204 -22.59765625 48.37890625 C-25 49 -25 49 -29 49 C-29.495 49.99 -29.495 49.99 -30 51 C-32.43359375 51.37890625 -32.43359375 51.37890625 -35.4375 51.5625 C-39.36535217 51.73109366 -39.36535217 51.73109366 -43 53 C-59.12808884 54.21374443 -76.14368524 53.21199255 -92 50 C-93 49 -93 49 -93.11352539 45.85717773 C-93.11336633 44.46597303 -93.10767506 43.07476239 -93.09765625 41.68359375 C-93.0962413 40.95253922 -93.09482635 40.22148468 -93.09336853 39.46827698 C-93.08775408 37.12464368 -93.07519922 34.78110461 -93.0625 32.4375 C-93.05748686 30.85221492 -93.05292363 29.26692834 -93.04882812 27.68164062 C-93.03777997 23.7877239 -93.02050572 19.89387795 -93 16 C-91.1875 15.375 -91.1875 15.375 -89 15 C-88.01 15.66 -87.02 16.32 -86 17 C-83.10079367 17.49742389 -83.10079367 17.49742389 -79.9375 17.6875 C-78.87402344 17.77386719 -77.81054688 17.86023438 -76.71484375 17.94921875 C-74.03216299 18.20935764 -74.03216299 18.20935764 -72 17 C-69.78861145 17.08811445 -67.57957815 17.2429784 -65.375 17.4375 C-64.18648437 17.53933594 -62.99796875 17.64117187 -61.7734375 17.74609375 C-60.85820312 17.82988281 -59.94296875 17.91367188 -59 18 C-59 18.33 -59 18.66 -59 19 C-53.87416389 19.10251672 -49.05002222 19.03590199 -44 18 C-44 17.67 -44 17.34 -44 17 C-41.02148438 17.04882812 -41.02148438 17.04882812 -38.04296875 17.09765625 C-35.79694539 17.08263217 -35.79694539 17.08263217 -33 16 C-31.11230341 15.76817761 -29.22449969 15.53716167 -27.3359375 15.3125 C-24.72915726 14.96376686 -22.14941142 14.53689063 -19.5625 14.0625 C-18.71816406 13.90910156 -17.87382812 13.75570312 -17.00390625 13.59765625 C-16.34261719 13.40042969 -15.68132812 13.20320313 -15 13 C-14.67 12.34 -14.34 11.68 -14 11 C-12.33333333 10.33333333 -10.66666667 9.66666667 -9 9 C-4.63470461 6.46812868 -2.43459293 4.38226727 0 0 Z " fill="#4C4C4C" transform="translate(239,108)"/>
<path d="M0 0 C0.99 0.33 1.98 0.66 3 1 C3.0743839 5.46570449 3.12871171 9.93107684 3.16479492 14.3972168 C3.17984353 15.91518438 3.20028738 17.43310876 3.22631836 18.95092773 C3.26287653 21.13796677 3.27976523 23.32442896 3.29296875 25.51171875 C3.3086792 26.82615967 3.32438965 28.14060059 3.34057617 29.49487305 C2.91596444 33.86487346 1.57057191 36.45340629 -1.53515625 39.51171875 C-2.03917969 39.89972656 -2.54320312 40.28773438 -3.0625 40.6875 C-5.9298111 42.8510025 -5.9298111 42.8510025 -8 45 C-9.010625 45.165 -10.02125 45.33 -11.0625 45.5 C-12.5165625 45.7475 -12.5165625 45.7475 -14 46 C-14.495 46.99 -14.495 46.99 -15 48 C-21.80038529 50.87361414 -29.49547688 51.63411904 -36.75 52.6875 C-37.64879883 52.81890381 -38.54759766 52.95030762 -39.47363281 53.08569336 C-44.36342125 53.76010008 -49.0526387 54.08341854 -54 54 C-56.31036915 54.42854995 -56.31036915 54.42854995 -58 55 C-58 54.34 -58 53.68 -58 53 C-59.0415625 53.10699219 -60.083125 53.21398437 -61.15625 53.32421875 C-71.56165913 54.2459385 -80.8778992 53.66232339 -91 51 C-92 50 -92 50 -92.11352539 46.85717773 C-92.11336633 45.46597303 -92.10767506 44.07476239 -92.09765625 42.68359375 C-92.0962413 41.95253922 -92.09482635 41.22148468 -92.09336853 40.46827698 C-92.08775408 38.12464368 -92.07519922 35.78110461 -92.0625 33.4375 C-92.05748686 31.85221492 -92.05292363 30.26692834 -92.04882812 28.68164062 C-92.03777997 24.7877239 -92.02050572 20.89387795 -92 17 C-89.36 17 -86.72 17 -84 17 C-84 17.66 -84 18.32 -84 19 C-80.37 18.67 -76.74 18.34 -73 18 C-73 18.33 -73 18.66 -73 19 C-61.40851101 21.75463141 -48.76057307 19.82827439 -37.08203125 18.4375 C-34.03555232 18.08259734 -31.07191806 17.90150163 -28 18 C-27.67 17.34 -27.34 16.68 -27 16 C-26.34 16.33 -25.68 16.66 -25 17 C-25 16.34 -25 15.68 -25 15 C-23.72125 14.938125 -22.4425 14.87625 -21.125 14.8125 C-14.81460756 14.13245771 -8.52276941 11.52276941 -4 7 C-2.948125 6.0409375 -2.948125 6.0409375 -1.875 5.0625 C0.3363364 3.09459461 0.3363364 3.09459461 0 0 Z " fill="#4C4C4C" transform="translate(238,150)"/>
<path d="M0 0 C0.36781802 2.9717785 0.48997028 5.56752569 0.42578125 8.53515625 C0.42249313 9.36961777 0.41920502 10.20407928 0.41581726 11.06382751 C0.40539844 12.82656662 0.38545177 14.58927141 0.35668945 16.35180664 C0.31261098 19.05569204 0.29525459 21.75869042 0.28320312 24.46289062 C0.26977923 26.17449203 0.25485631 27.88608246 0.23828125 29.59765625 C0.23089432 30.40912613 0.22350739 31.22059601 0.21589661 32.05665588 C0.11835956 37.76328088 0.11835956 37.76328088 -1 40 C-3.64860427 40.59355614 -6.29197322 40.74209269 -9 41 C-11.23413013 37.64880481 -11.23847762 36.5822245 -11.1953125 32.67578125 C-11.18564453 31.13374023 -11.18564453 31.13374023 -11.17578125 29.56054688 C-11.15902344 28.48869141 -11.14226562 27.41683594 -11.125 26.3125 C-11.11597656 25.22904297 -11.10695312 24.14558594 -11.09765625 23.02929688 C-11.0740734 20.3526429 -11.04116126 17.67643203 -11 15 C-14.20372577 21.74401215 -16.92140604 28.41940956 -19.10546875 35.56640625 C-20 38 -20 38 -22 40 C-27.74553571 40.63839286 -27.74553571 40.63839286 -30 40 C-32.48271976 36.69762635 -33.71869521 33.23046046 -34.9375 29.3125 C-36.69171345 23.70053575 -38.78943622 18.52640945 -41 13 C-41.33 21.91 -41.66 30.82 -42 40 C-45.465 40.495 -45.465 40.495 -49 41 C-51.97298388 37.96953155 -52.35333738 35.49111133 -52.39118958 31.31311035 C-52.38197983 30.58072144 -52.37277008 29.84833252 -52.36328125 29.09375 C-52.36377975 28.33203491 -52.36427826 27.57031982 -52.36479187 26.78552246 C-52.36245611 25.1784402 -52.35275693 23.57135395 -52.33618164 21.96435547 C-52.31258125 19.5084553 -52.31562517 17.05364111 -52.32226562 14.59765625 C-52.3166886 13.03384771 -52.30957857 11.47004374 -52.30078125 9.90625 C-52.30169266 9.17386108 -52.30260406 8.44147217 -52.30354309 7.68688965 C-52.25205279 3.97305974 -52.05619348 1.15566096 -50 -2 C-48.06280622 -2.05406122 -46.12518079 -2.09282025 -44.1875 -2.125 C-43.10855469 -2.14820313 -42.02960938 -2.17140625 -40.91796875 -2.1953125 C-38 -2 -38 -2 -35 0 C-33.95678711 2.23071289 -33.95678711 2.23071289 -33.02734375 4.97265625 C-32.51397461 6.44508789 -32.51397461 6.44508789 -31.99023438 7.94726562 C-31.64283203 8.97529297 -31.29542969 10.00332031 -30.9375 11.0625 C-30.24483135 13.09729359 -29.54593366 15.12998092 -28.83984375 17.16015625 C-28.53425537 18.06386963 -28.22866699 18.96758301 -27.91381836 19.89868164 C-27.1929606 22.17096752 -27.1929606 22.17096752 -25 23 C-24.73783691 22.31373535 -24.47567383 21.6274707 -24.20556641 20.92041016 C-23.01754999 17.81979765 -21.82138605 14.72239212 -20.625 11.625 C-20.00625 10.00464844 -20.00625 10.00464844 -19.375 8.3515625 C-18.97539062 7.3203125 -18.57578125 6.2890625 -18.1640625 5.2265625 C-17.79748535 4.27346191 -17.4309082 3.32036133 -17.05322266 2.33837891 C-16 0 -16 0 -14 -2 C-11.7578125 -2.51953125 -11.7578125 -2.51953125 -9.125 -2.8125 C-7.82949219 -2.97685547 -7.82949219 -2.97685547 -6.5078125 -3.14453125 C-3.22226145 -2.95517706 -2.24122369 -2.42645604 0 0 Z " fill="#58B7F1" transform="translate(199,217)"/>
<path d="M0 0 C4.956866 4.956866 7.15270845 10.35608038 7.4375 17.25 C7.26919817 24.01012367 5.00044532 29.99910936 2 36 C4.97 37.65 7.94 39.3 11 41 C11.1875 43.875 11.1875 43.875 11 47 C8 49 8 49 6.1328125 48.6796875 C1.87268881 46.97232275 -1.64839405 45.24686827 -5 42 C-5 41.34 -5 40.68 -5 40 C-5.57234375 40.14953125 -6.1446875 40.2990625 -6.734375 40.453125 C-13.77808049 42.15332977 -19.51033583 42.67794972 -26 39 C-30.87810619 34.98911269 -33.69375617 30.75619451 -34.3984375 24.4140625 C-34.30143943 8.73270855 -34.30143943 8.73270855 -29.265625 3.0390625 C-20.53953916 -5.24733684 -10.32339916 -5.66774856 0 0 Z M-19.875 6.1875 C-23.69582377 11.24447264 -24.25354265 17.45040296 -23.80859375 23.6796875 C-23.19732898 27.03889032 -22.49816825 29.36770953 -20.375 32.0625 C-16.87504721 33.44406031 -13.65467564 33.78314478 -10 33 C-6.4739438 30.29919099 -4.76444084 28.32173981 -4 24 C-3.16221756 15.50460887 -3.16221756 15.50460887 -6 7.75 C-10.80430512 4.94748868 -14.64110728 4.02567474 -19.875 6.1875 Z " fill="#45B7FA" transform="translate(301,217)"/>
<path d="M0 0 C0.94746094 -0.01417969 1.89492187 -0.02835938 2.87109375 -0.04296875 C5.64093458 0.19421646 7.24434232 0.6825457 9.5625 2.1875 C10.91689668 4.89629335 10.62751451 7.19683268 10.5625 10.1875 C8.8125 10.8125 8.8125 10.8125 6.5625 11.1875 C5.22916667 10.52083333 3.89583333 9.85416667 2.5625 9.1875 C-0.60445956 9.02025263 -0.60445956 9.02025263 -3.4375 9.1875 C-3.7675 9.8475 -4.0975 10.5075 -4.4375 11.1875 C-2.85415151 15.93754546 1.31854994 16.9988884 5.58203125 19.2734375 C9.3098653 21.66745937 12.04649178 24.00584761 13.09375 28.43359375 C13.01730385 33.7943802 12.29939012 37.05725302 8.5625 41.1875 C3.91639471 44.32091984 -0.90930457 45.19742495 -6.4375 45.1875 C-10.320588 44.30831026 -13.74215856 43.19384238 -16.4375 40.1875 C-16.6875 36.5 -16.6875 36.5 -16.4375 33.1875 C-14.9525 32.6925 -14.9525 32.6925 -13.4375 32.1875 C-12.57125 32.661875 -11.705 33.13625 -10.8125 33.625 C-6.52633794 35.60933429 -3.07519878 35.46576193 1.5625 35.1875 C1.5625 33.5375 1.5625 31.8875 1.5625 30.1875 C0.015625 29.32125 0.015625 29.32125 -1.5625 28.4375 C-12.36227876 22.22872031 -12.36227876 22.22872031 -14.4375 18.1875 C-15.48074056 13.88514358 -15.96206748 10.45750549 -14.25 6.3125 C-10.07694458 1.41995226 -6.36451015 0.04317849 0 0 Z " fill="#4AB7F8" transform="translate(251.4375,213.8125)"/>
<path d="M0 0 C0.99295845 2.52831328 1.84532314 4.97079637 2.625 7.5625 C3.70844921 12.13574827 3.70844921 12.13574827 6 16 C6.34933594 14.85660156 6.69867188 13.71320313 7.05859375 12.53515625 C7.51806463 11.04422012 7.97770901 9.55333745 8.4375 8.0625 C8.66759766 7.30775391 8.89769531 6.55300781 9.13476562 5.77539062 C10.88671875 0.11328125 10.88671875 0.11328125 12 -1 C13.51928038 -1.07179964 15.04167482 -1.08392007 16.5625 -1.0625 C17.38878906 -1.05347656 18.21507812 -1.04445312 19.06640625 -1.03515625 C19.70449219 -1.02355469 20.34257812 -1.01195312 21 -1 C20.32144378 4.02597521 18.94968707 8.60326579 17.34765625 13.390625 C17.08746201 14.17644958 16.82726776 14.96227417 16.55918884 15.77191162 C16.01087836 17.42323823 15.4602642 19.07380152 14.9074707 20.72363281 C14.06138168 23.25334366 13.22660331 25.78660235 12.39257812 28.3203125 C11.85744945 29.92730947 11.32166504 31.53408826 10.78515625 33.140625 C10.53613052 33.89893616 10.2871048 34.65724731 10.03053284 35.4385376 C8.22940229 40.77059771 8.22940229 40.77059771 6 43 C3.31160615 43.26991906 0.70858064 43.08737357 -2 43 C-3.19178874 38.82873941 -2.62874457 36.92814866 -1 33 C-0.54895525 27.97303356 -1.84776238 24.16549592 -3.8125 19.625 C-4.36359101 18.2970035 -4.91437525 16.96887966 -5.46484375 15.640625 C-5.97144531 14.43921875 -6.47804687 13.2378125 -7 12 C-10.43924972 3.68533035 -10.43924972 3.68533035 -10 -1 C-3.375 -2.25 -3.375 -2.25 0 0 Z " fill="#43B7F9" transform="translate(213,227)"/>
<path d="M0 0 C3.375 -0.125 3.375 -0.125 7 0 C9 2 9 2 9.22705078 5.25634766 C9.22673382 6.64229295 9.21541759 8.02826301 9.1953125 9.4140625 C9.1924826 10.14370209 9.18965271 10.87334167 9.18673706 11.62509155 C9.17553002 13.95856028 9.1504251 16.29164703 9.125 18.625 C9.11497085 20.20572363 9.10584489 21.78645327 9.09765625 23.3671875 C9.07558905 27.24493914 9.04105615 31.12240478 9 35 C10.37285156 34.96519531 10.37285156 34.96519531 11.7734375 34.9296875 C12.96195312 34.91164062 14.15046875 34.89359375 15.375 34.875 C16.55835938 34.85179687 17.74171875 34.82859375 18.9609375 34.8046875 C22 35 22 35 24 37 C24.125 39.625 24.125 39.625 24 42 C20.82403161 43.88372214 18.68030919 44.20001885 15.015625 43.9765625 C14.08105469 43.925 13.14648438 43.8734375 12.18359375 43.8203125 C11.21550781 43.75585938 10.24742187 43.69140625 9.25 43.625 C8.26644531 43.56828125 7.28289062 43.5115625 6.26953125 43.453125 C3.845589 43.31192448 1.42272541 43.16054205 -1 43 C-1.02467332 37.19759432 -1.04284724 31.39521902 -1.05493164 25.59277344 C-1.0599681 23.61783313 -1.06679751 21.64289657 -1.07543945 19.66796875 C-1.08753508 16.83332395 -1.0932351 13.99872834 -1.09765625 11.1640625 C-1.10281754 10.27756012 -1.10797882 9.39105774 -1.11329651 8.47769165 C-1.11387171 2.22774341 -1.11387171 2.22774341 0 0 Z " fill="#45B7FB" transform="translate(315,214)"/>
<path d="M0 0 C1.51400391 0.01740234 1.51400391 0.01740234 3.05859375 0.03515625 C4.07050781 0.04417969 5.08242187 0.05320313 6.125 0.0625 C7.29869141 0.07990234 7.29869141 0.07990234 8.49609375 0.09765625 C10.52645009 8.12658246 10.79951833 15.84355814 10.74609375 24.09765625 C10.75382813 25.32355469 10.7615625 26.54945313 10.76953125 27.8125 C10.76695312 28.97910156 10.764375 30.14570313 10.76171875 31.34765625 C10.75946289 32.4046875 10.75720703 33.46171875 10.75488281 34.55078125 C10.49609375 37.09765625 10.49609375 37.09765625 8.49609375 39.09765625 C6.51609375 39.09765625 4.53609375 39.09765625 2.49609375 39.09765625 C2.49609375 29.19765625 2.49609375 19.29765625 2.49609375 9.09765625 C0.84609375 8.76765625 -0.80390625 8.43765625 -2.50390625 8.09765625 C-3.50390625 7.09765625 -3.50390625 7.09765625 -3.62890625 4.09765625 C-3.46379947 0.13509358 -3.46379947 0.13509358 0 0 Z " fill="#42B6FA" transform="translate(187.50390625,216.90234375)"/>
<path d="M0 0 C0.66 0 1.32 0 2 0 C2.50833591 1.24663331 3.00631145 2.49749387 3.5 3.75 C3.7784375 4.44609375 4.056875 5.1421875 4.34375 5.859375 C5 8 5 8 5 12 C5.66 12 6.32 12 7 12 C7.17015625 12.63808594 7.3403125 13.27617187 7.515625 13.93359375 C7.75796875 14.75988281 8.0003125 15.58617187 8.25 16.4375 C8.48203125 17.26121094 8.7140625 18.08492187 8.953125 18.93359375 C9.79629933 21.18187203 9.79629933 21.18187203 11.984375 21.72265625 C12.64953125 21.81417969 13.3146875 21.90570313 14 22 C14.66 22.33 15.32 22.66 16 23 C16.24042276 27.08718695 15.42258812 30.17679443 14 34 C8.66561306 34.43724483 8.66561306 34.43724483 6 34 C4.0625 31.625 4.0625 31.625 3 29 C2.67 28.34 2.34 27.68 2 27 C1.84691426 25.39826955 1.72611793 23.79334895 1.625 22.1875 C1.33970649 18.86383067 1.1555452 17.25126533 -0.625 14.375 C-3.02484462 10.22981384 -1.44424106 5.97440471 -0.4375 1.5 C-0.293125 1.005 -0.14875 0.51 0 0 Z " fill="#44B6FA" transform="translate(163,223)"/>
<path d="M0 0 C2 1 2 1 3.4375 3.5 C4.81319541 6.29155483 4.81319541 6.29155483 8 7 C8.66 7.66 9.32 8.32 10 9 C13.34473905 11.25995882 16.01640212 12.41703446 20 13 C21.093125 13.185625 22.18625 13.37125 23.3125 13.5625 C24.199375 13.706875 25.08625 13.85125 26 14 C26.33 15.32 26.66 16.64 27 18 C8.17995444 20.11161731 8.17995444 20.11161731 -1 21 C-1.13794954 13.93391809 -0.74805717 7.02639415 0 0 Z " fill="#474748" transform="translate(41,64)"/>
<path d="M0 0 C4.34553777 8.69107554 2.08895759 22.46176976 2 32 C0.00045254 32.04254356 -2.00041636 32.04080783 -4 32 C-6.62025051 29.37974949 -5.23009796 22.20258948 -5.24023438 18.64428711 C-5.24994465 16.57429901 -5.28095712 14.50530185 -5.3125 12.43554688 C-5.31765625 11.13810547 -5.3228125 9.84066406 -5.328125 8.50390625 C-5.3374707 7.30580322 -5.34681641 6.1077002 -5.35644531 4.87329102 C-5.23881836 3.92510498 -5.12119141 2.97691895 -5 2 C-2 0 -2 0 0 0 Z " fill="#42B6FC" transform="translate(154,224)"/>
<path d="M0 0 C1.23556641 0.01740234 1.23556641 0.01740234 2.49609375 0.03515625 C3.32238281 0.04417969 4.14867187 0.05320313 5 0.0625 C5.63808594 0.07410156 6.27617187 0.08570313 6.93359375 0.09765625 C6.31117909 4.45169058 5.27509541 8.42560909 3.8671875 12.58984375 C3.46435547 13.78867188 3.06152344 14.9875 2.64648438 16.22265625 C2.22560547 17.46015625 1.80472656 18.69765625 1.37109375 19.97265625 C0.94163961 21.24595295 0.51259915 22.51938926 0.08398438 23.79296875 C-0.9620888 26.89592738 -2.01234577 29.99740365 -3.06640625 33.09765625 C-3.39640625 33.09765625 -3.72640625 33.09765625 -4.06640625 33.09765625 C-4.15574938 29.25590187 -3.89916773 25.8450829 -3.06640625 22.09765625 C-3.06640625 21.43765625 -3.06640625 20.77765625 -3.06640625 20.09765625 C-2.07640625 20.09765625 -1.08640625 20.09765625 -0.06640625 20.09765625 C-0.06640625 19.33453125 -0.06640625 18.57140625 -0.06640625 17.78515625 C-0.06640625 14.88932292 -0.06640625 11.99348958 -0.06640625 9.09765625 C-1.71640625 9.42765625 -3.36640625 9.75765625 -5.06640625 10.09765625 C-4.75842299 8.61754254 -4.44488825 7.138583 -4.12890625 5.66015625 C-3.95488281 4.83644531 -3.78085938 4.01273438 -3.6015625 3.1640625 C-2.81660884 0.13311006 -2.81660884 0.13311006 0 0 Z " fill="#48B5F4" transform="translate(227.06640625,225.90234375)"/>
<path d="M0 0 C0.66 0.99 1.32 1.98 2 3 C2.99 3.33 3.98 3.66 5 4 C4.67 4.33 4.34 4.66 4 5 C4.66 5.33 5.32 5.66 6 6 C6 5.34 6 4.68 6 4 C6.99 4.33 7.98 4.66 9 5 C8.36449219 5.53496094 7.72898437 6.06992188 7.07421875 6.62109375 C4.5624956 9.50177058 4.2825627 11.30665247 3.8125 15.0625 C3.39442764 18.22343964 3.00997371 20.97007887 2 24 C1.01 23.67 0.02 23.34 -1 23 C-0.01 18.71 0.98 14.42 2 10 C1.01 9.67 0.02 9.34 -1 9 C-1.33 8.34 -1.66 7.68 -2 7 C-2 8.32 -2 9.64 -2 11 C-3.32 11 -4.64 11 -6 11 C-6.33 16.61 -6.66 22.22 -7 28 C-7.33 28 -7.66 28 -8 28 C-8.65339578 9.41451991 -8.65339578 9.41451991 -3.6875 3.4140625 C-2.3125 2 -2.3125 2 0 0 Z " fill="#4CB8F6" transform="translate(275,217)"/>
<path d="M0 0 C1.77481031 1.77481031 3.47293702 3.54248658 5.125 5.4375 C8.24955129 8.22242615 11.07033514 9.56404225 14.9140625 11.10546875 C17 12 17 12 20 14 C18.33388095 14.042721 16.66617115 14.04063832 15 14 C14.67 13.67 14.34 13.34 14 13 C11.66702567 12.95907063 9.33294775 12.95758277 7 13 C6.67 11.35 6.34 9.7 6 8 C4.35 8.33 2.7 8.66 1 9 C1 16.92 1 24.84 1 33 C1.99 33.33 2.98 33.66 4 34 C4.45375 34.78375 4.9075 35.5675 5.375 36.375 C7.22088735 39.35681803 8.91894701 40.41783765 12 42 C11.01 42.495 11.01 42.495 10 43 C0.69230769 37.07692308 0.69230769 37.07692308 -1 32 C-1.09569956 29.65518031 -1.13073912 27.30770836 -1.1328125 24.9609375 C-1.13376923 24.27947662 -1.13472595 23.59801575 -1.13571167 22.89590454 C-1.13639115 21.45859688 -1.13455304 20.02128612 -1.13037109 18.58398438 C-1.125003 16.37623272 -1.1303323 14.16868297 -1.13671875 11.9609375 C-1.13605825 10.56510372 -1.13477767 9.16927006 -1.1328125 7.7734375 C-1.13168457 6.49903809 -1.13055664 5.22463867 -1.12939453 3.91162109 C-1 1 -1 1 0 0 Z " fill="#5AB3EB" transform="translate(16,187)"/>
<path d="M0 0 C9.88564611 0.34088435 20.76616998 4.05302876 28 11 C31.76795032 16.37692257 31.41668069 21.74915009 31.3125 28.0625 C31.31733398 29.53299805 31.31733398 29.53299805 31.32226562 31.03320312 C31.28589337 35.90377926 31.02222936 39.50319388 29 44 C28.34 43.67 27.68 43.34 27 43 C27.24169922 42.071875 27.24169922 42.071875 27.48828125 41.125 C28.20583482 36.74299347 28.18428767 32.43301879 28.1875 28 C28.20586914 26.66582031 28.20586914 26.66582031 28.22460938 25.3046875 C28.31926682 18.87447631 28.31926682 18.87447631 26 13 C19.21110097 7.22472131 11.40221358 4.28269306 2.77734375 2.5546875 C2.19082031 2.37164062 1.60429687 2.18859375 1 2 C0.67 1.34 0.34 0.68 0 0 Z " fill="#434343" transform="translate(210,58)"/>
<path d="M0 0 C0.99 0.495 0.99 0.495 2 1 C2 10.57 2 20.14 2 30 C11.16916048 30.57858542 11.16916048 30.57858542 20.33959961 31.13623047 C21.47405518 31.21244629 22.60851074 31.28866211 23.77734375 31.3671875 C25.52905884 31.47716064 25.52905884 31.47716064 27.31616211 31.58935547 C28.20182861 31.72486816 29.08749512 31.86038086 30 32 C30.33 32.66 30.66 33.32 31 34 C26.85336912 34.83754037 23.38987866 35.01596473 19.19921875 34.4765625 C18.14025391 34.3425 17.08128906 34.2084375 15.99023438 34.0703125 C14.90033203 33.92335937 13.81042969 33.77640625 12.6875 33.625 C11.57826172 33.48578125 10.46902344 33.3465625 9.32617188 33.203125 C1.14043257 32.14043257 1.14043257 32.14043257 0 31 C-0.08790975 28.70848583 -0.10694038 26.41427476 -0.09765625 24.12109375 C-0.0962413 23.4344313 -0.09482635 22.74776886 -0.09336853 22.04029846 C-0.08775479 19.83932199 -0.07520007 17.63844591 -0.0625 15.4375 C-0.05748676 13.94856917 -0.05292355 12.45963676 -0.04882812 10.97070312 C-0.03778093 7.31376925 -0.02050713 3.65689442 0 0 Z " fill="#3F3F40" transform="translate(146,126)"/>
<path d="M0 0 C3.375 -0.125 3.375 -0.125 7 0 C9 2 9 2 9.22705078 5.25634766 C9.22673382 6.64229295 9.21541759 8.02826301 9.1953125 9.4140625 C9.1924826 10.14370209 9.18965271 10.87334167 9.18673706 11.62509155 C9.17553002 13.95856028 9.1504251 16.29164703 9.125 18.625 C9.11497085 20.20572363 9.10584489 21.78645327 9.09765625 23.3671875 C9.07558905 27.24493914 9.04105615 31.12240478 9 35 C10.37285156 34.96519531 10.37285156 34.96519531 11.7734375 34.9296875 C12.96195312 34.91164062 14.15046875 34.89359375 15.375 34.875 C16.55835938 34.85179687 17.74171875 34.82859375 18.9609375 34.8046875 C22 35 22 35 24 37 C24.3125 39.5 24.3125 39.5 24 42 C23.01 42.66 22.02 43.32 21 44 C21.33 41.69 21.66 39.38 22 37 C18.7 37 15.4 37 12 37 C11.67 37.99 11.34 38.98 11 40 C9.35 40 7.7 40 6 40 C6 39.34 6 38.68 6 38 C6.66 38 7.32 38 8 38 C8 26.45 8 14.9 8 3 C5.36 2.67 2.72 2.34 0 2 C0 1.34 0 0.68 0 0 Z " fill="#5EB7EE" transform="translate(315,214)"/>
<path d="M0 0 C-2.83782657 2.83782657 -5.75412402 2.41752004 -9.5625 2.5625 C-14.15099227 2.35710009 -14.15099227 2.35710009 -18 4 C-19.40876827 4.34637071 -20.82753854 4.65253669 -22.25 4.9375 C-24.93447397 5.50332415 -27.25541034 6.10216414 -29.8125 7.125 C-32 8 -32 8 -36 8 C-36 8.99 -36 9.98 -36 11 C-36.71027344 11.19335938 -37.42054687 11.38671875 -38.15234375 11.5859375 C-39.07144531 11.84632812 -39.99054687 12.10671875 -40.9375 12.375 C-41.85402344 12.63023438 -42.77054688 12.88546875 -43.71484375 13.1484375 C-46.16745087 13.76660104 -46.16745087 13.76660104 -47 16 C-47.66 16 -48.32 16 -49 16 C-49 16.66 -49 17.32 -49 18 C-49.66 18 -50.32 18 -51 18 C-48.18873999 11.70169632 -43.28627088 8.81287284 -36.99609375 6.3515625 C-24.98048604 1.98989427 -12.85240486 -0.52458795 0 0 Z " fill="#62B9EF" transform="translate(68,89)"/>
<path d="M0 0 C0.66 0 1.32 0 2 0 C2.07415168 4.78715623 2.12860204 9.57397827 2.16479492 14.36157227 C2.17988243 15.99021223 2.20035506 17.61881156 2.22631836 19.24731445 C2.26270449 21.58815535 2.2797262 23.92845919 2.29296875 26.26953125 C2.30845261 26.99775589 2.32393646 27.72598053 2.33988953 28.47627258 C2.34057617 30.53833008 2.34057617 30.53833008 2 34 C1.01 34.99 0.02 35.98 -1 37 C-1 27.76 -1 18.52 -1 9 C-1.66 8.67 -2.32 8.34 -3 8 C-3.33 8.66 -3.66 9.32 -4 10 C-5.65 10 -7.3 10 -9 10 C-8.2575 9.46375 -7.515 8.9275 -6.75 8.375 C-3.82869713 5.85205661 -2.11140321 3.20350831 0 0 Z " fill="#53B5F0" transform="translate(137,187)"/>
<path d="M0 0 C0.33 0 0.66 0 1 0 C2.00589546 5.05381346 2.21632395 9.93111253 2.25 15.0625 C2.270625 15.85205078 2.29125 16.64160156 2.3125 17.45507812 C2.34401787 22.15517994 2.03349452 25.18161529 -1 29 C-2.53515625 30.51171875 -2.53515625 30.51171875 -4.0625 31.6875 C-6.9298111 33.8510025 -6.9298111 33.8510025 -9 36 C-10.32 36 -11.64 36 -13 36 C-13 35.34 -13 34.68 -13 34 C-12.05125 33.79375 -11.1025 33.5875 -10.125 33.375 C-6.70833333 32.29166667 -6.70833333 32.29166667 -5.625 28.875 C-5.41875 27.92625 -5.2125 26.9775 -5 26 C-4.01 26 -3.02 26 -2 26 C-1.00544091 23.01632274 -0.80440368 20.7995808 -0.68359375 17.67578125 C-0.64169922 16.64775391 -0.59980469 15.61972656 -0.55664062 14.56054688 C-0.51732422 13.48869141 -0.47800781 12.41683594 -0.4375 11.3125 C-0.39431641 10.22904297 -0.35113281 9.14558594 -0.30664062 8.02929688 C-0.20053162 5.35299209 -0.09847639 2.67659474 0 0 Z " fill="#424242" transform="translate(239,159)"/>
<path d="M0 0 C1.79398884 0.25499841 3.58520875 0.52953814 5.375 0.8125 C6.87160156 1.03873047 6.87160156 1.03873047 8.3984375 1.26953125 C11 2 11 2 13 5 C13.99 5 14.98 5 16 5 C16 5.66 16 6.32 16 7 C14.58461283 7.33872513 13.16762037 7.67074624 11.75 8 C10.96109375 8.185625 10.1721875 8.37125 9.359375 8.5625 C7 9 7 9 3 9 C0.6875 7.3125 0.6875 7.3125 -1 5 C-0.60546875 2.35546875 -0.60546875 2.35546875 0 0 Z " fill="#44B8FC" transform="translate(238,249)"/>
<path d="M0 0 C0.94746094 -0.01417969 1.89492187 -0.02835938 2.87109375 -0.04296875 C5.64093458 0.19421646 7.24434232 0.6825457 9.5625 2.1875 C10.91689668 4.89629335 10.62751451 7.19683268 10.5625 10.1875 C9.2425 10.5175 7.9225 10.8475 6.5625 11.1875 C7.2225 10.8575 7.8825 10.5275 8.5625 10.1875 C8.5625 7.8775 8.5625 5.5675 8.5625 3.1875 C3.25083136 1.85958284 -2.19631575 1.44043858 -7.4375 3.1875 C-8.02820014 5.13353274 -8.02820014 5.13353274 -8.4375 7.1875 C-9.0975 7.8475 -9.7575 8.5075 -10.4375 9.1875 C-11.0975 8.8575 -11.7575 8.5275 -12.4375 8.1875 C-13.4275 11.6525 -13.4275 11.6525 -14.4375 15.1875 C-14.7675 15.1875 -15.0975 15.1875 -15.4375 15.1875 C-15.40372451 7.43602504 -15.40372451 7.43602504 -13.140625 4.51171875 C-8.88214032 0.93838631 -5.41528768 0.03673872 0 0 Z " fill="#70BBF1" transform="translate(251.4375,213.8125)"/>
<path d="M0 0 C0.66 0 1.32 0 2 0 C2 10.56 2 21.12 2 32 C3.65 32 5.3 32 7 32 C7 32.66 7 33.32 7 34 C5.00045254 34.04254356 2.99958364 34.04080783 1 34 C0 33 0 33 -0.11352539 29.85717773 C-0.11336633 28.46597303 -0.10767506 27.07476239 -0.09765625 25.68359375 C-0.0962413 24.95253922 -0.09482635 24.22148468 -0.09336853 23.46827698 C-0.08775408 21.12464368 -0.07519922 18.78110461 -0.0625 16.4375 C-0.05748686 14.85221492 -0.05292363 13.26692834 -0.04882812 11.68164062 C-0.03777997 7.7877239 -0.02050572 3.89387795 0 0 Z " fill="#3F3F41" transform="translate(146,167)"/>
<path d="M0 0 C0.66 0 1.32 0 2 0 C2 9.57 2 19.14 2 29 C1.34 29.33 0.68 29.66 0 30 C-0.33 22.41 -0.66 14.82 -1 7 C-2.98 8.32 -4.96 9.64 -7 11 C-5.47038014 7.55835531 -3.37270934 4.90848242 -1 2 C-0.67 1.34 -0.34 0.68 0 0 Z " fill="#404040" transform="translate(239,108)"/>
<path d="M0 0 C0.33 0 0.66 0 1 0 C0.67 2.97 0.34 5.94 0 9 C1.32 9.33 2.64 9.66 4 10 C4.33 9.34 4.66 8.68 5 8 C5.66 8.33 6.32 8.66 7 9 C7 7.68 7 6.36 7 5 C7.99 4.67 8.98 4.34 10 4 C9.16531605 11.3452188 9.16531605 11.3452188 6 14 C3.24573892 14.33747863 0.7931281 14.18315594 -2 14 C-3.81975482 8.87160006 -1.8599099 4.82315618 0 0 Z " fill="#53B9F6" transform="translate(213,256)"/>
<path d="M0 0 C2.64 1.32 5.28 2.64 8 4 C8.1875 6.875 8.1875 6.875 8 10 C5 12 5 12 3.02734375 11.64453125 C1.99287109 11.23267578 1.99287109 11.23267578 0.9375 10.8125 C0.24527344 10.55082031 -0.44695312 10.28914063 -1.16015625 10.01953125 C-3 9 -3 9 -5 6 C-4.443125 6.20625 -3.88625 6.4125 -3.3125 6.625 C-0.340462 7.10695211 1.31979941 6.26565028 4 5 C4 4.34 4 3.68 4 3 C2.68 2.67 1.36 2.34 0 2 C0 1.34 0 0.68 0 0 Z " fill="#56B5F1" transform="translate(304,254)"/>
<path d="M0 0 C3.46397757 0.10188169 5.71775399 1.17438159 8.25 3.4375 C13.16793377 9.38946087 11.98453187 18.69130956 12 26 C10.35 25.67 8.7 25.34 7 25 C7 24.34 7 23.68 7 23 C7.66 23 8.32 23 9 23 C8.85890014 20.89551062 8.71195825 18.7914123 8.5625 16.6875 C8.48128906 15.51574219 8.40007812 14.34398437 8.31640625 13.13671875 C7.88815393 8.807787 7.88815393 8.807787 5.37109375 5.4296875 C4.73300781 4.91664062 4.09492188 4.40359375 3.4375 3.875 C2.27609721 2.93559573 1.12581071 1.98177749 0 1 C0 0.67 0 0.34 0 0 Z " fill="#404040" transform="translate(153,22)"/>
<path d="M0 0 C2.66666667 2.66666667 5.33333333 5.33333333 8 8 C6.68 8 5.36 8 4 8 C3.34 7.01 2.68 6.02 2 5 C1.67 14.24 1.34 23.48 1 33 C0.67 33 0.34 33 0 33 C-0.92265547 25.81646815 -1.10949642 18.66991809 -1.125 11.4375 C-1.12951172 10.54450195 -1.13402344 9.65150391 -1.13867188 8.73144531 C-1.13673828 7.8906543 -1.13480469 7.04986328 -1.1328125 6.18359375 C-1.13168457 5.42618896 -1.13055664 4.66878418 -1.12939453 3.88842773 C-1 2 -1 2 0 0 Z " fill="#58ADE5" transform="translate(16,143)"/>
<path d="M0 0 C0.390625 2.48046875 0.390625 2.48046875 0.25 5.1875 C0.21390625 6.08855469 0.1778125 6.98960937 0.140625 7.91796875 C0.07101563 8.94857422 0.07101563 8.94857422 0 10 C-0.66 10 -1.32 10 -2 10 C-2.33 6.7 -2.66 3.4 -3 0 C-6.63 0.33 -10.26 0.66 -14 1 C-14.66 2.98 -15.32 4.96 -16 7 C-16.66 7 -17.32 7 -18 7 C-16.25 0.25 -16.25 0.25 -14 -2 C-11.7578125 -2.51953125 -11.7578125 -2.51953125 -9.125 -2.8125 C-7.82949219 -2.97685547 -7.82949219 -2.97685547 -6.5078125 -3.14453125 C-3.34324027 -2.96214936 -2.14531684 -2.32326939 0 0 Z " fill="#65B6E4" transform="translate(199,217)"/>
<path d="M0 0 C-0.66 0.66 -1.32 1.32 -2 2 C-2 1.34 -2 0.68 -2 0 C-3.27875 0.185625 -4.5575 0.37125 -5.875 0.5625 C-9.75 1.125 -9.75 1.125 -12 0 C-12 -0.66 -12 -1.32 -12 -2 C-13.65 -2 -15.3 -2 -17 -2 C-17 -1.01 -17 -0.02 -17 1 C-19.64 0.67 -22.28 0.34 -25 0 C-18.1422739 -6.8577261 -7.64390963 -3.74063663 0 0 Z " fill="#6FBFF0" transform="translate(301,217)"/>
<path d="M0 0 C0.33 0.66 0.66 1.32 1 2 C0.2884375 3.175625 0.2884375 3.175625 -0.4375 4.375 C-2.34098924 7.06372236 -2.34098924 7.06372236 -2 11 C-3.32 11 -4.64 11 -6 11 C-6.33 16.61 -6.66 22.22 -7 28 C-7.33 28 -7.66 28 -8 28 C-8.65339578 9.41451991 -8.65339578 9.41451991 -3.6875 3.4140625 C-2.3125 2 -2.3125 2 0 0 Z " fill="#5CB4EA" transform="translate(275,217)"/>
<path d="M0 0 C0.33 1.32 0.66 2.64 1 4 C-4.79141983 5.01603857 -8.4584498 4.96263236 -14 3 C-14 2.01 -14 1.02 -14 0 C-8.97874074 -0.77916092 -5.02296004 -1.13016601 0 0 Z " fill="#656464" transform="translate(67,78)"/>
<path d="M0 0 C2.64 0 5.28 0 8 0 C0.86801382 6.11499363 -7.63897703 9.45994098 -17 10 C-16.01 9.67 -15.02 9.34 -14 9 C-14.33 8.01 -14.66 7.02 -15 6 C-14.484375 6.20625 -13.96875 6.4125 -13.4375 6.625 C-9.96734329 7.15887026 -7.29364209 6.07676761 -4 5 C-4 4.34 -4 3.68 -4 3 C-2.68 2.67 -1.36 2.34 0 2 C0 1.34 0 0.68 0 0 Z " fill="#5EBAF1" transform="translate(126,226)"/>
<path d="M0 0 C0.8971875 0.7734375 0.8971875 0.7734375 1.8125 1.5625 C2.534375 2.036875 3.25625 2.51125 4 3 C4.99 2.67 5.98 2.34 7 2 C7.625 3.8125 7.625 3.8125 8 6 C4 12 4 12 2 14 C2 12.02 2 10.04 2 8 C1.01 7.67 0.02 7.34 -1 7 C-0.67 4.69 -0.34 2.38 0 0 Z " fill="#54BEFA" transform="translate(183,222)"/>
<path d="M0 0 C-5.23823693 5.23823693 -16.49373288 4.24225568 -23.50390625 4.36328125 C-26.37342125 3.94565231 -27.24093281 3.24473558 -29 1 C-27.99839844 1.01160156 -26.99679688 1.02320313 -25.96484375 1.03515625 C-24.62239772 1.04454398 -23.27994964 1.05364312 -21.9375 1.0625 C-19.97103516 1.07990234 -19.97103516 1.07990234 -17.96484375 1.09765625 C-11.9066245 0.94843903 -6.08496464 -0.12418295 0 0 Z " fill="#6ABBED" transform="translate(100,205)"/>
<path d="M0 0 C0.66 0.66 1.32 1.32 2 2 C4.57061311 2.64767793 4.57061311 2.64767793 7 3 C1.40700771 6.22672632 -4.57303335 6.14188524 -10.875 6.0625 C-11.90753906 6.05573242 -11.90753906 6.05573242 -12.9609375 6.04882812 C-14.64066335 6.03716336 -16.32034375 6.01923271 -18 6 C-18 5.34 -18 4.68 -18 4 C-14.43954823 2.81318274 -11.56191663 2.90310168 -7.8125 2.9375 C-6.54019531 2.94652344 -5.26789063 2.95554688 -3.95703125 2.96484375 C-2.49330078 2.98224609 -2.49330078 2.98224609 -1 3 C-0.67 2.01 -0.34 1.02 0 0 Z " fill="#59B6F0" transform="translate(102,233)"/>
<path d="M0 0 C1.010625 0.474375 2.02125 0.94875 3.0625 1.4375 C7.36205028 3.43307186 11.3428541 3.28513138 16 3 C15.67 3.66 15.34 4.32 15 5 C13.22925083 5.02705729 11.45838289 5.04642195 9.6875 5.0625 C8.70136719 5.07410156 7.71523437 5.08570313 6.69921875 5.09765625 C4 5 4 5 1 4 C1 5.32 1 6.64 1 8 C1.99 8.66 2.98 9.32 4 10 C3.67 10.66 3.34 11.32 3 12 C0.5 10.4375 0.5 10.4375 -2 8 C-2.3125 4.25 -2.3125 4.25 -2 1 C-1.34 0.67 -0.68 0.34 0 0 Z " fill="#68B6E8" transform="translate(237,246)"/>
<path d="M0 0 C8.25 0 16.5 0 25 0 C21.61916657 3.38083343 21.61916657 3.38083343 17.91015625 3.3984375 C16.73356445 3.40423828 16.73356445 3.40423828 15.53320312 3.41015625 C14.71787109 3.39855469 13.90253906 3.38695312 13.0625 3.375 C11.84530273 3.39240234 11.84530273 3.39240234 10.60351562 3.41015625 C9.42499023 3.40435547 9.42499023 3.40435547 8.22265625 3.3984375 C7.50859619 3.39505371 6.79453613 3.39166992 6.05883789 3.38818359 C4 3 4 3 0 0 Z " fill="#3F3F3F" transform="translate(91,11)"/>
<path d="M0 0 C0.2475 0.5775 0.495 1.155 0.75 1.75 C2.27717864 4.49892155 3.44886792 6.12021847 6 8 C8.7757569 8.57114339 11.2242431 8.57114339 14 8 C17.00165249 5.78825606 18.54132445 3.40357628 20 0 C19.609375 6.0546875 19.609375 6.0546875 19 8 C15.79282791 10.42050724 12.65120558 10.20980882 8.75 10.125 C7.67234375 10.10695312 6.5946875 10.08890625 5.484375 10.0703125 C4.66453125 10.04710937 3.8446875 10.02390625 3 10 C2.67 9.34 2.34 8.68 2 8 C-0.01669827 6.86649466 -0.01669827 6.86649466 -2 6 C-1.34 4.02 -0.68 2.04 0 0 Z " fill="#59B3ED" transform="translate(277,241)"/>
<path d="M0 0 C1.1859375 0.20496094 2.371875 0.40992188 3.59375 0.62109375 C14.07731732 2.38268124 24.37403386 3.57496135 35 4 C35 4.33 35 4.66 35 5 C10.01734161 5.61916858 10.01734161 5.61916858 0 2 C0 1.34 0 0.68 0 0 Z " fill="#6BB8ED" transform="translate(45,158)"/>
<path d="M0 0 C0.33 0 0.66 0 1 0 C1 10.56 1 21.12 1 32 C0.67 32 0.34 32 0 32 C0 23.09 0 14.18 0 5 C-2.31 6.32 -4.62 7.64 -7 9 C-7 8.34 -7 7.68 -7 7 C-5.34614767 5.65080468 -3.678298 4.31866272 -2 3 C-1.34 2.01 -0.68 1.02 0 0 Z " fill="#6AACD7" transform="translate(138,142)"/>
<path d="M0 0 C1.68609375 0.14888672 1.68609375 0.14888672 3.40625 0.30078125 C7.50527002 0.70580347 11.59717203 1.13970685 15.6875 1.625 C11.80867314 4.29934904 7.89740703 3.637818 3.4375 3.25 C1.97414287 3.13563461 0.51059799 3.02364604 -0.953125 2.9140625 C-1.66919922 2.86024414 -2.38527344 2.80642578 -3.12304688 2.75097656 C-6.52371692 2.55530911 -9.90700558 2.58647631 -13.3125 2.625 C-12.9825 1.965 -12.6525 1.305 -12.3125 0.625 C-8.08620945 -0.40218043 -4.31011754 -0.38943675 0 0 Z " fill="#525252" transform="translate(91.3125,72.375)"/>
<path d="M0 0 C3.80668696 0.67176829 7.39036593 1.60536866 11 3 C11.33 3.66 11.66 4.32 12 5 C12.99 5.33 13.98 5.66 15 6 C16.39712274 7.95597184 17.73779907 9.95436401 19 12 C15.68106435 11.39655716 13.78250231 10.24962511 11.1875 8.125 C7.59835134 5.32371324 4.25246373 3.5946739 0 2 C0 1.34 0 0.68 0 0 Z " fill="#3F3E40" transform="translate(124,88)"/>
<path d="M0 0 C0.66 0 1.32 0 2 0 C2 11.22 2 22.44 2 34 C1.67 34 1.34 34 1 34 C1 24.43 1 14.86 1 5 C0.01 5 -0.98 5 -2 5 C-1.34 3.35 -0.68 1.7 0 0 Z " fill="#72B4DE" transform="translate(137,187)"/>
<path d="M0 0 C2.97 0 5.94 0 9 0 C9 0.66 9 1.32 9 2 C10.03125 2.103125 11.0625 2.20625 12.125 2.3125 C15.95083945 2.99127797 18.63370025 4.11158795 22 6 C22 6.66 22 7.32 22 8 C16.25501385 6.30888717 10.55653637 4.54904645 4.91015625 2.55078125 C2.85090279 1.861472 2.85090279 1.861472 0 2 C0 1.34 0 0.68 0 0 Z " fill="#3F3F3F" transform="translate(130,14)"/>
<path d="M0 0 C-2.83782657 2.83782657 -5.75412402 2.41752004 -9.5625 2.5625 C-14.15099227 2.35710009 -14.15099227 2.35710009 -18 4 C-19.84891946 4.23363881 -21.70488031 4.41303635 -23.5625 4.5625 C-25.08037109 4.68818359 -25.08037109 4.68818359 -26.62890625 4.81640625 C-27.41136719 4.87699219 -28.19382813 4.93757813 -29 5 C-20.66243341 -0.55837773 -9.69449046 -0.18291491 0 0 Z " fill="#56AFE6" transform="translate(68,89)"/>
<path d="M0 0 C5.42372238 -0.22137642 8.52413817 0.43546805 14 2 C14 7.94 14 13.88 14 20 C13.67 20 13.34 20 13 20 C12.97421875 19.10796875 12.9484375 18.2159375 12.921875 17.296875 C12.83679688 15.54117188 12.83679688 15.54117188 12.75 13.75 C12.70359375 12.58984375 12.6571875 11.4296875 12.609375 10.234375 C11.90146106 6.47698565 11.04224581 5.25311228 8 3 C5.67612053 2.60612212 3.34206251 2.26513915 1 2 C0.67 1.34 0.34 0.68 0 0 Z " fill="#64B9ED" transform="translate(284,221)"/>
<path d="M0 0 C-11.96727206 7.72001475 -11.96727206 7.72001475 -19 9 C-19.99 8.67 -20.98 8.34 -22 8 C-18.86501708 6.14223235 -16.62528568 5.79859524 -13 6 C-13 5.34 -13 4.68 -13 4 C-4.82242991 -1.60747664 -4.82242991 -1.60747664 0 0 Z " fill="#68BAF0" transform="translate(135,139)"/>
<path d="M0 0 C0.99 0.33 1.98 0.66 3 1 C2.42655063 3.86724686 2.1385485 4.8614515 0 7 C-0.66 6.67 -1.32 6.34 -2 6 C-2.99 9.465 -2.99 9.465 -4 13 C-4.33 13 -4.66 13 -5 13 C-4.64989059 4.80743982 -4.64989059 4.80743982 -1.9375 1.4375 C-1.298125 0.963125 -0.65875 0.48875 0 0 Z " fill="#59B7F3" transform="translate(241,216)"/>
<path d="M0 0 C0 0.66 0 1.32 0 2 C-2.26504965 3.19984797 -4.53589888 4.38494769 -6.8125 5.5625 C-7.45509766 5.90474609 -8.09769531 6.24699219 -8.75976562 6.59960938 C-10.46926395 7.4765023 -12.23321294 8.24515617 -14 9 C-14.99 8.67 -15.98 8.34 -17 8 C-15.60823368 7.03576974 -14.2113777 6.07888398 -12.8125 5.125 C-12.03519531 4.59132813 -11.25789063 4.05765625 -10.45703125 3.5078125 C-6.93956626 1.34924098 -4.15636365 0 0 0 Z " fill="#404040" transform="translate(62,17)"/>
<path d="M0 0 C0.78503906 0.33773437 1.57007812 0.67546875 2.37890625 1.0234375 C7.8651887 3.35258318 13.21387072 5.55346768 19 7 C15.22628488 8.3357457 12.14168653 7.72408671 8.25 7.0625 C7.07953125 6.86785156 5.9090625 6.67320312 4.703125 6.47265625 C3.36507813 6.23869141 3.36507813 6.23869141 2 6 C1.34 4.02 0.68 2.04 0 0 Z " fill="#62BCF2" transform="translate(25,151)"/>
<path d="M0 0 C0.144375 0.78375 0.28875 1.5675 0.4375 2.375 C0.87798925 4.96421018 0.87798925 4.96421018 2 7 C-1.78786597 6.4739075 -4.17152224 5.61896089 -7 3 C-7 2.34 -7 1.68 -7 1 C-4 0 -4 0 0 0 Z " fill="#59B8F2" transform="translate(278,250)"/>
<path d="M0 0 C1.98 0 3.96 0 6 0 C5.125 5.75 5.125 5.75 4 8 C3.01 7.67 2.02 7.34 1 7 C0.67 4.69 0.34 2.38 0 0 Z " fill="#40B6FD" transform="translate(205,227)"/>
<path d="M0 0 C2.8002232 1.4001116 3.56776098 3.26572551 5 6 C5 6.99 5 7.98 5 9 C4.34 8.67 3.68 8.34 3 8 C2.34 9.65 1.68 11.3 1 13 C0.34 12.34 -0.32 11.68 -1 11 C-0.9765625 8.3984375 -0.9765625 8.3984375 -0.625 5.375 C-0.51414063 4.37210937 -0.40328125 3.36921875 -0.2890625 2.3359375 C-0.19367187 1.56507812 -0.09828125 0.79421875 0 0 Z " fill="#434343" transform="translate(41,64)"/>
<path d="M0 0 C1.06347656 0.07605469 2.12695312 0.15210938 3.22265625 0.23046875 C5.9375 0.8125 5.9375 0.8125 7.9375 3.8125 C6.6175 4.1425 5.2975 4.4725 3.9375 4.8125 C3.9375 4.1525 3.9375 3.4925 3.9375 2.8125 C-0.3525 2.4825 -4.6425 2.1525 -9.0625 1.8125 C-5.48254638 -0.57413575 -4.19623836 -0.35181099 0 0 Z " fill="#414141" transform="translate(201.0625,55.1875)"/>
<path d="M0 0 C-2.40118527 2.40118527 -4.05496042 2.75220861 -7.3125 3.625 C-8.25738281 3.88539062 -9.20226562 4.14578125 -10.17578125 4.4140625 C-12.87851902 4.97479648 -15.25031848 5.1101876 -18 5 C-18 4.34 -18 3.68 -18 3 C-16.92105469 2.80277344 -16.92105469 2.80277344 -15.8203125 2.6015625 C-12.22110763 1.83386506 -8.79504342 0.67981682 -5.3046875 -0.4765625 C-3 -1 -3 -1 0 0 Z " fill="#3E3E3E" transform="translate(225,110)"/>
<path d="M0 0 C-1.55666955 0.9884096 -3.12062426 1.96535082 -4.6875 2.9375 C-5.55761719 3.48277344 -6.42773438 4.02804688 -7.32421875 4.58984375 C-9.94624689 5.97167172 -12.08310075 6.58480173 -15 7 C-11.01070672 2.52715601 -6.28600736 -2.09533579 0 0 Z " fill="#3E3E3E" transform="translate(137,62)"/>
<path d="M0 0 C0.66 0.33 1.32 0.66 2 1 C0.83348574 6.92863717 -0.75519358 12.38798394 -3 18 C-3.33 18 -3.66 18 -4 18 C-4.08934313 14.15824562 -3.83276148 10.74742665 -3 7 C-3 6.34 -3 5.68 -3 5 C-2.01 5 -1.02 5 0 5 C0 3.35 0 1.7 0 0 Z " fill="#63B8EF" transform="translate(227,241)"/>
<path d="M0 0 C0.66 0.33 1.32 0.66 2 1 C1.69052329 2.93798521 1.37731166 4.87537426 1.0625 6.8125 C0.88847656 7.89144531 0.71445312 8.97039062 0.53515625 10.08203125 C0 13 0 13 -1 16 C-1.99 15.67 -2.98 15.34 -4 15 C-3.505 13.205625 -3.505 13.205625 -3 11.375 C-2.10734177 7.84208503 -1.81703955 4.65920891 -2 1 C-1.34 0.67 -0.68 0.34 0 0 Z " fill="#69BFF9" transform="translate(278,225)"/>
<path d="M0 0 C0.33 0 0.66 0 1 0 C1 5.28 1 10.56 1 16 C0.01 16 -0.98 16 -2 16 C-1.85975781 13.52039864 -1.7130815 11.04147598 -1.5625 8.5625 C-1.52318359 7.85544922 -1.48386719 7.14839844 -1.44335938 6.41992188 C-1.11328125 1.11328125 -1.11328125 1.11328125 0 0 Z " fill="#3F3F3F" transform="translate(42,31)"/>
<path d="M0 0 C0.66 0.66 1.32 1.32 2 2 C0.44148245 2.82011312 -1.12201716 3.63076213 -2.6875 4.4375 C-3.99267578 5.11619141 -3.99267578 5.11619141 -5.32421875 5.80859375 C-7.90998264 6.95991928 -10.21356528 7.56320753 -13 8 C-13 7.34 -13 6.68 -13 6 C-8.71 4.02 -4.42 2.04 0 0 Z " fill="#3F3F3F" transform="translate(232,159)"/>
<path d="M0 0 C0.99 0.33 1.98 0.66 3 1 C0.91168655 4.95680442 -1.19619811 7.58783295 -5 10 C-7.16015625 9.6015625 -7.16015625 9.6015625 -9 9 C-8.43410156 8.60167969 -7.86820313 8.20335937 -7.28515625 7.79296875 C-6.55167969 7.26316406 -5.81820312 6.73335937 -5.0625 6.1875 C-4.33160156 5.66542969 -3.60070312 5.14335937 -2.84765625 4.60546875 C-0.73116774 3.04132873 -0.73116774 3.04132873 0 0 Z " fill="#3D3D3D" transform="translate(237,140)"/>
<path d="M0 0 C0.33 0 0.66 0 1 0 C1.05416188 1.60379341 1.09286638 3.20811406 1.125 4.8125 C1.14820313 5.70582031 1.17140625 6.59914063 1.1953125 7.51953125 C1 10 1 10 -1 13 C1.31 13 3.62 13 6 13 C6 13.33 6 13.66 6 14 C3.36 14 0.72 14 -2 14 C-3.81975482 8.87160006 -1.8599099 4.82315618 0 0 Z " fill="#64B8EC" transform="translate(213,256)"/>
<path d="M0 0 C0 0.66 0 1.32 0 2 C-5.28497409 3.67357513 -5.28497409 3.67357513 -8 4 C-10.5 2.625 -10.5 2.625 -12 1 C-10.43632022 -0.56367978 -8.72161607 -0.383179 -6.5625 -0.625 C-5.35787109 -0.76808594 -5.35787109 -0.76808594 -4.12890625 -0.9140625 C-2 -1 -2 -1 0 0 Z " fill="#444444" transform="translate(187,54)"/>
<path d="M0 0 C1.4540625 0.0309375 1.4540625 0.0309375 2.9375 0.0625 C2.9375 0.7225 2.9375 1.3825 2.9375 2.0625 C1.37633181 2.40201619 -0.18651338 2.73382544 -1.75 3.0625 C-3.05517578 3.3409375 -3.05517578 3.3409375 -4.38671875 3.625 C-6.99962964 4.05222047 -9.42063038 4.13866201 -12.0625 4.0625 C-11.7325 3.4025 -11.4025 2.7425 -11.0625 2.0625 C-8.73534 1.68849214 -6.40132138 1.35485267 -4.0625 1.0625 C-3.0625 0.0625 -3.0625 0.0625 0 0 Z " fill="#444444" transform="translate(154.0625,45.9375)"/>
<path d="M0 0 C-0.33 0.66 -0.66 1.32 -1 2 C-4.15477252 3.0347075 -7.48563728 3.47957809 -10.75 4.0625 C-12.22726563 4.32740234 -12.22726563 4.32740234 -13.734375 4.59765625 C-14.48203125 4.73042969 -15.2296875 4.86320312 -16 5 C-15.67 4.01 -15.34 3.02 -15 2 C-13.43883181 1.66048381 -11.87598662 1.32867456 -10.3125 1 C-9.44238281 0.814375 -8.57226562 0.62875 -7.67578125 0.4375 C-5.06287036 0.01027953 -2.64186962 -0.07616201 0 0 Z " fill="#414141" transform="translate(79,13)"/>
<path d="M0 0 C-0.33 0.99 -0.66 1.98 -1 3 C-3.984375 3.94921875 -3.984375 3.94921875 -7.75 4.6875 C-8.98234375 4.93886719 -10.2146875 5.19023437 -11.484375 5.44921875 C-14.41379679 5.9081615 -17.04796796 6.11830663 -20 6 C-16.4473651 4.01837953 -12.78019093 2.97562792 -8.875 1.875 C-7.63492188 1.52179688 -6.39484375 1.16859375 -5.1171875 0.8046875 C-2 0 -2 0 0 0 Z " fill="#70BEEE" transform="translate(125,154)"/>
<path d="M0 0 C5.15464734 0.48324819 8.81550319 3.18610761 13 6 C11.125 7.0625 11.125 7.0625 9 8 C8.34 7.67 7.68 7.34 7 7 C7 6.01 7 5.02 7 4 C6.01 4 5.02 4 4 4 C4 3.34 4 2.68 4 2 C2.68 1.34 1.36 0.68 0 0 Z " fill="#59B5E9" transform="translate(121,96)"/>
<path d="M0 0 C0.33 0 0.66 0 1 0 C1.05787784 3.62493334 1.0935542 7.24974857 1.125 10.875 C1.15013672 12.42380859 1.15013672 12.42380859 1.17578125 14.00390625 C1.18222656 14.99003906 1.18867188 15.97617188 1.1953125 16.9921875 C1.20578613 17.90339355 1.21625977 18.81459961 1.22705078 19.75341797 C1 22 1 22 -1 24 C-2 21 -2 21 -1 18 C-0.85507877 16.59335074 -0.75371069 15.1818867 -0.68359375 13.76953125 C-0.64169922 12.96708984 -0.59980469 12.16464844 -0.55664062 11.33789062 C-0.51732422 10.50451172 -0.47800781 9.67113281 -0.4375 8.8125 C-0.39431641 7.96751953 -0.35113281 7.12253906 -0.30664062 6.25195312 C-0.20068482 4.16815567 -0.0998498 2.08409897 0 0 Z " fill="#3C3C3C" transform="translate(239,78)"/>
<path d="M0 0 C2.02225194 3.0333779 2.99347524 5.61344489 4.125 9.0625 C4.47820312 10.12597656 4.83140625 11.18945312 5.1953125 12.28515625 C6 15 6 15 6 17 C5.01 16.67 4.02 16.34 3 16 C3 14.02 3 12.04 3 10 C2.34 10 1.68 10 1 10 C0.67 6.7 0.34 3.4 0 0 Z " fill="#5DB9EA" transform="translate(212,227)"/>
<path d="M0 0 C0 0.99 0 1.98 0 3 C-3.82320557 4.42258812 -6.91281305 5.24042276 -11 5 C-8.48169253 1.87729874 -7.2738451 1.05476902 -3.25 0.25 C-1.64125 0.12625 -1.64125 0.12625 0 0 Z " fill="#414141" transform="translate(221,195)"/>
<path d="M0 0 C1.6045556 0.14148989 3.20863767 0.28835686 4.8125 0.4375 C5.70582031 0.51871094 6.59914063 0.59992188 7.51953125 0.68359375 C10 1 10 1 13 2 C13.33 1.34 13.66 0.68 14 0 C14.66 1.32 15.32 2.64 16 4 C10.43109483 3.52013969 5.32932432 2.70084819 0 1 C0 0.67 0 0.34 0 0 Z " fill="#64BCF2" transform="translate(31,145)"/>
<path d="M0 0 C0 0.66 0 1.32 0 2 C-1.58086048 2.36504603 -3.16483907 2.71660506 -4.75 3.0625 C-5.63171875 3.25972656 -6.5134375 3.45695312 -7.421875 3.66015625 C-9.98679028 3.99825872 -11.57091639 3.81158635 -14 3 C-9.03006806 0.56574762 -5.65394631 -0.34615998 0 0 Z " fill="#414141" transform="translate(158,56)"/>
<path d="M0 0 C2.83578683 1.07564328 3.86797063 1.77612411 5.4375 4.4375 C7.24070253 7.39475215 8.95683826 8.43729532 12 10 C11.01 10.495 11.01 10.495 10 11 C6.28452679 8.63560796 2.84574432 6.39300284 0 3 C0 2.01 0 1.02 0 0 Z " fill="#63B7E9" transform="translate(16,219)"/>
<path d="M0 0 C0.66 0.66 1.32 1.32 2 2 C0.6078125 2.680625 0.6078125 2.680625 -0.8125 3.375 C-4.03921389 4.9421633 -4.03921389 4.9421633 -7 7 C-7.99 7 -8.98 7 -10 7 C-9.34 5.68 -8.68 4.36 -8 3 C-7.01 3 -6.02 3 -5 3 C-4.67 2.34 -4.34 1.68 -4 1 C-2.0625 0.25 -2.0625 0.25 0 0 Z " fill="#434343" transform="translate(229,118)"/>
<path d="M0 0 C-2.50515784 2.50515784 -4.61068165 3.05099086 -8 4 C-9.32 4 -10.64 4 -12 4 C-12 3.34 -12 2.68 -12 2 C-10.56656 1.46809459 -9.12804633 0.94984742 -7.6875 0.4375 C-6.48673828 0.00244141 -6.48673828 0.00244141 -5.26171875 -0.44140625 C-3 -1 -3 -1 0 0 Z " fill="#3D3D3D" transform="translate(226,152)"/>
<path d="M0 0 C0 0.66 0 1.32 0 2 C0.99 2.33 1.98 2.66 3 3 C0.36 3.33 -2.28 3.66 -5 4 C-5 3.34 -5 2.68 -5 2 C-5.99 1.67 -6.98 1.34 -8 1 C-4.93251126 -0.86240388 -3.40254489 -1.2151946 0 0 Z " fill="#434343" transform="translate(71,68)"/>
<path d="M0 0 C-0.33 1.32 -0.66 2.64 -1 4 C-2.98 4.33 -4.96 4.66 -7 5 C-7 4.34 -7 3.68 -7 3 C-7.99 2.67 -8.98 2.34 -10 2 C-6.31437803 0.77145934 -3.94607548 0 0 0 Z " fill="#5A5A5A" transform="translate(165,53)"/>
<path d="M0 0 C1.43655854 -0.08131463 2.8744483 -0.13933559 4.3125 -0.1875 C5.51326172 -0.23970703 5.51326172 -0.23970703 6.73828125 -0.29296875 C9.47851584 0.06198392 10.29171079 0.89366282 12 3 C11.01 3.495 11.01 3.495 10 4 C10 3.34 10 2.68 10 2 C8.72125 2.185625 7.4425 2.37125 6.125 2.5625 C2.25 3.125 2.25 3.125 0 2 C0 1.34 0 0.68 0 0 Z " fill="#59B9F4" transform="translate(289,215)"/>
<path d="M0 0 C3.375 -0.125 3.375 -0.125 7 0 C9 2 9 2 9.1953125 3.9453125 C9.13020833 5.96354167 9.06510417 7.98177083 9 10 C8.67 10 8.34 10 8 10 C8 7.69 8 5.38 8 3 C5.36 2.67 2.72 2.34 0 2 C0 1.34 0 0.68 0 0 Z " fill="#6ABFF0" transform="translate(315,214)"/>
<path d="M0 0 C0.33 0.99 0.66 1.98 1 3 C-0.45537568 3.83848804 -1.91440373 4.67063934 -3.375 5.5 C-4.59316406 6.19609375 -4.59316406 6.19609375 -5.8359375 6.90625 C-8 8 -8 8 -10 8 C-10 7.34 -10 6.68 -10 6 C-7.8125 4.4921875 -7.8125 4.4921875 -5 2.875 C-4.071875 2.33617188 -3.14375 1.79734375 -2.1875 1.2421875 C-1.465625 0.83226563 -0.74375 0.42234375 0 0 Z " fill="#3F3F3F" transform="translate(235,102)"/>
<path d="M0 0 C1.65 0.33 3.3 0.66 5 1 C4.01 1.495 4.01 1.495 3 2 C2.67 2.99 2.34 3.98 2 5 C1.34 5 0.68 5 0 5 C0 6.32 0 7.64 0 9 C-0.99 9.33 -1.98 9.66 -3 10 C-2.01 6.7 -1.02 3.4 0 0 Z " fill="#5CBAF4" transform="translate(221,236)"/>
<path d="M0 0 C1.485 0.99 1.485 0.99 3 2 C3.29296875 4.3828125 3.29296875 4.3828125 3.1875 7.125 C3.16042969 8.03507813 3.13335937 8.94515625 3.10546875 9.8828125 C3.07066406 10.58148438 3.03585938 11.28015625 3 12 C2.34 12 1.68 12 1 12 C0.67 8.04 0.34 4.08 0 0 Z " fill="#6EBCE6" transform="translate(196,215)"/>
<path d="M0 0 C2.3431213 0.25561323 4.67843403 0.59270772 7 1 C7.33 1.66 7.66 2.32 8 3 C1.565 3.495 1.565 3.495 -5 4 C-2 2 -2 2 0 2 C0 1.34 0 0.68 0 0 Z " fill="#616161" transform="translate(165,115)"/>
<path d="M0 0 C4 1.33333333 8 2.66666667 12 4 C12 4.66 12 5.32 12 6 C10.5608866 5.71640113 9.12374482 5.42278601 7.6875 5.125 C6.88699219 4.96257812 6.08648437 4.80015625 5.26171875 4.6328125 C3 4 3 4 0 2 C0 1.34 0 0.68 0 0 Z " fill="#404040" transform="translate(51,63)"/>
<path d="M0 0 C1.32 0.33 2.64 0.66 4 1 C4 1.66 4 2.32 4 3 C5.65 3 7.3 3 9 3 C9 3.66 9 4.32 9 5 C7.02 5 5.04 5 3 5 C3 4.34 3 3.68 3 3 C2.01 3 1.02 3 0 3 C0 2.01 0 1.02 0 0 Z " fill="#4EB5F2" transform="translate(54,234)"/>
<path d="M0 0 C0.515625 0.185625 1.03125 0.37125 1.5625 0.5625 C4.85908739 1.15419517 7.72245735 0.567267 11 0 C7.90576832 3.09423168 4.4476188 3.93706005 0.125 4.125 C-0.57625 4.08375 -1.2775 4.0425 -2 4 C-1.01 3.67 -0.02 3.34 1 3 C0.67 2.01 0.34 1.02 0 0 Z " fill="#6DC0F3" transform="translate(111,232)"/>
<path d="M0 0 C0.33 0.66 0.66 1.32 1 2 C2.65 2 4.3 2 6 2 C3.07034088 4.92965912 0.319947 5.94133569 -3.8125 6.125 C-4.534375 6.08375 -5.25625 6.0425 -6 6 C-3 4 -3 4 -1 4 C-0.67 2.68 -0.34 1.36 0 0 Z " fill="#71C3F5" transform="translate(117,185)"/>
<path d="M0 0 C0.99 0.33 1.98 0.66 3 1 C1.38405168 3.04119788 -0.2856382 5.04072937 -2 7 C-2.66 7 -3.32 7 -4 7 C-3.43628586 3.73045798 -2.50037734 2.17424117 0 0 Z " fill="#4CB7F5" transform="translate(133,177)"/>
<path d="M0 0 C-0.556875 0.226875 -1.11375 0.45375 -1.6875 0.6875 C-4.63246684 2.35896766 -6.68156544 4.55276352 -9 7 C-9.66 6.67 -10.32 6.34 -11 6 C-11 5.01 -11 4.02 -11 3 C-7.33513904 0.08966924 -4.60625394 -0.32136655 0 0 Z " fill="#6D6D6D" transform="translate(165,168)"/>
<path d="M0 0 C2.97 0 5.94 0 9 0 C9 0.99 9 1.98 9 3 C2.25 3.125 2.25 3.125 0 2 C0 1.34 0 0.68 0 0 Z " fill="#474B4C" transform="translate(59,79)"/>
<path d="M0 0 C2.125 0.9375 2.125 0.9375 4 2 C3.67 3.32 3.34 4.64 3 6 C1.35 5.67 -0.3 5.34 -2 5 C-2 3.68 -2 2.36 -2 1 C-1.34 0.67 -0.68 0.34 0 0 Z " fill="#4F4F4F" transform="translate(48,71)"/>
<path d="M0 0 C3.625 0.25 3.625 0.25 5.5625 1.75 C5.913125 2.245 6.26375 2.74 6.625 3.25 C5.366875 3.29125 4.10875 3.3325 2.8125 3.375 C2.10480469 3.39820313 1.39710937 3.42140625 0.66796875 3.4453125 C-1.375 3.25 -1.375 3.25 -4.375 1.25 C-3.375 0.25 -3.375 0.25 0 0 Z " fill="#404040" transform="translate(121.375,11.75)"/>
<path d="M0 0 C0.78375 0.04125 1.5675 0.0825 2.375 0.125 C2.705 1.445 3.035 2.765 3.375 4.125 C1.065 4.125 -1.245 4.125 -3.625 4.125 C-3.955 3.465 -4.285 2.805 -4.625 2.125 C-2.625 0.125 -2.625 0.125 0 0 Z " fill="#6B6B6B" transform="translate(86.625,9.875)"/>
<path d="M0 0 C2.66666667 2.66666667 5.33333333 5.33333333 8 8 C6.68 8 5.36 8 4 8 C3.34 7.01 2.68 6.02 2 5 C1.34 5.66 0.68 6.32 0 7 C-1.125 2.25 -1.125 2.25 0 0 Z " fill="#62B4E8" transform="translate(16,143)"/>
<path d="M0 0 C4.455 0.99 4.455 0.99 9 2 C9 2.33 9 2.66 9 3 C8.195625 3.12375 7.39125 3.2475 6.5625 3.375 C5.2940625 3.684375 5.2940625 3.684375 4 4 C3.67 4.66 3.34 5.32 3 6 C2.34 5.67 1.68 5.34 1 5 C1.33 4.01 1.66 3.02 2 2 C1.34 2 0.68 2 0 2 C0 1.34 0 0.68 0 0 Z " fill="#58B6F0" transform="translate(36,201)"/>
<path d="M0 0 C2.97 0.495 2.97 0.495 6 1 C6 1.66 6 2.32 6 3 C7.32 3.33 8.64 3.66 10 4 C10 4.66 10 5.32 10 6 C5.56909529 4.79157144 3.01887244 3.48331435 0 0 Z " fill="#63B7EC" transform="translate(20,138)"/>
<path d="M0 0 C3.74525799 3.74525799 3.68909949 7.98270909 4 13 C1.08410391 8.62615587 -0.30254716 5.29457529 0 0 Z " fill="#6DBAE7" transform="translate(203,226)"/>
<path d="M0 0 C1.0326802 2.78823655 1.04509293 3.8677274 0.0625 6.75 C-0.288125 7.4925 -0.63875 8.235 -1 9 C-1.33 9 -1.66 9 -2 9 C-2 7.02 -2 5.04 -2 3 C-2.99 3 -3.98 3 -5 3 C-5 2.34 -5 1.68 -5 1 C-3.35 0.67 -1.7 0.34 0 0 Z " fill="#5FBDF2" transform="translate(233,226)"/>
<path d="M0 0 C0.66 0.33 1.32 0.66 2 1 C1.71872579 2.48117801 1.42466268 3.95993249 1.125 5.4375 C0.96257812 6.26121094 0.80015625 7.08492187 0.6328125 7.93359375 C0.42398438 8.61550781 0.21515625 9.29742187 0 10 C-0.99 10.495 -0.99 10.495 -2 11 C-1.855625 10.29875 -1.71125 9.5975 -1.5625 8.875 C-0.98521625 5.92443859 -0.48304859 2.96729849 0 0 Z " fill="#66BBF0" transform="translate(179,245)"/>
<path d="M0 0 C0.99 0.66 1.98 1.32 3 2 C0.69 2.33 -1.62 2.66 -4 3 C-4.33 3.99 -4.66 4.98 -5 6 C-5.33 4.68 -5.66 3.36 -6 2 C-3.1875 0.875 -3.1875 0.875 0 0 Z " fill="#69C0F4" transform="translate(119,200)"/>
<path d="M0 0 C0.66 0 1.32 0 2 0 C2 1.65 2 3.3 2 5 C2.99 5.33 3.98 5.66 5 6 C3.35 6.33 1.7 6.66 0 7 C0 4.69 0 2.38 0 0 Z " fill="#3E3F40" transform="translate(146,108)"/>
<path d="M0 0 C0.99 0 1.98 0 3 0 C5.1875 3 5.1875 3 7 6 C3.20411134 5.45773019 1.52788007 3.79872437 -1 1 C-0.67 0.67 -0.34 0.34 0 0 Z " fill="#454546" transform="translate(136,94)"/>
<path d="M0 0 C0.99 0.33 1.98 0.66 3 1 C2.01 1.495 2.01 1.495 1 2 C1 2.66 1 3.32 1 4 C-0.98 4.33 -2.96 4.66 -5 5 C-4.01 3.68 -3.02 2.36 -2 1 C-1.34 1.33 -0.68 1.66 0 2 C0 1.34 0 0.68 0 0 Z " fill="#585858" transform="translate(213,165)"/>
<path d="M0 0 C0.33 0 0.66 0 1 0 C1 1.98 1 3.96 1 6 C-0.98 6.99 -0.98 6.99 -3 8 C-3.66 7.34 -4.32 6.68 -5 6 C-4.01 5.34 -3.02 4.68 -2 4 C-1.34 4.33 -0.68 4.66 0 5 C0 3.35 0 1.7 0 0 Z " fill="#4AB6F4" transform="translate(136,130)"/>
<path d="M0 0 C-0.33 2.97 -0.66 5.94 -1 9 C-1.66 9 -2.32 9 -3 9 C-3 6.36 -3 3.72 -3 1 C-1 0 -1 0 0 0 Z " fill="#4F4F4F" transform="translate(43,76)"/>
<path d="M0 0 C2.97 0.33 5.94 0.66 9 1 C7 3 7 3 4.5 3.3125 C3.2625 3.1578125 3.2625 3.1578125 2 3 C1.34 2.01 0.68 1.02 0 0 Z " fill="#434343" transform="translate(210,58)"/>
<path d="M0 0 C0 3 0 3 0 3 Z " fill="#909090" transform="translate(119,68)"/>
<path d="M0 0 C3 1 3 1 3 1 Z " fill="#C6C6C6" transform="translate(198,160)"/>
<path d="M0 0 C2 1 2 1 2 1 Z " fill="#FFFFFF" transform="translate(187,204)"/>
<path d="" fill="#FFFFFF" transform="translate(0,0)"/>
<path d="M0 0 C2 1 2 1 2 1 Z " fill="#6A6A6A" transform="translate(53,74)"/>
<path d="" fill="#AEAEAE" transform="translate(0,0)"/>
<path d="" fill="#555555" transform="translate(0,0)"/>
<path d="" fill="#FFFFFF" transform="translate(0,0)"/>
<path d="" fill="#FFFFFF" transform="translate(0,0)"/>
<path d="" fill="#808080" transform="translate(0,0)"/>
<path d="" fill="#FFFFFF" transform="translate(0,0)"/>
<path d="" fill="#FFFFFF" transform="translate(0,0)"/>
<path d="" fill="#555555" transform="translate(0,0)"/>
<path d="" fill="#555555" transform="translate(0,0)"/>
<path d="" fill="#808080" transform="translate(0,0)"/>
<path d="" fill="#808080" transform="translate(0,0)"/>
<path d="" fill="#555555" transform="translate(0,0)"/>
<path d="" fill="#FFFFFF" transform="translate(0,0)"/>
<path d="" fill="#555555" transform="translate(0,0)"/>
<path d="" fill="#FFFFFF" transform="translate(0,0)"/>
<path d="" fill="#555555" transform="translate(0,0)"/>
<path d="" fill="#BFBFBF" transform="translate(0,0)"/>
<path d="" fill="#FFFFFF" transform="translate(0,0)"/>
<path d="" fill="#FFFFFF" transform="translate(0,0)"/>
<path d="" fill="#FFFFFF" transform="translate(0,0)"/>
<path d="" fill="#FFFFFF" transform="translate(0,0)"/>
<path d="" fill="#808080" transform="translate(0,0)"/>
<path d="" fill="#FFFFFF" transform="translate(0,0)"/>
<path d="" fill="#555555" transform="translate(0,0)"/>
<path d="" fill="#555555" transform="translate(0,0)"/>
</svg>
