<?xml version="1.0" encoding="UTF-8"?>
<svg version="1.1" xmlns="http://www.w3.org/2000/svg" width="666" height="375">
<path d="M0 0 C0.96659546 -0.00700928 1.93319092 -0.01401855 2.92907715 -0.02124023 C6.1144713 -0.0388014 9.29897229 -0.02720376 12.484375 -0.01367188 C14.70345225 -0.01636732 16.92252835 -0.02025017 19.14160156 -0.02526855 C23.78852604 -0.03116108 28.43514261 -0.02260827 33.08203125 -0.00390625 C39.03404245 0.0188828 44.98533215 0.00575845 50.93731689 -0.01819611 C55.51844708 -0.03266051 60.09940663 -0.02804506 64.68054199 -0.01768494 C66.87496018 -0.01501945 69.06939394 -0.01828114 71.26379395 -0.02760315 C74.33252918 -0.03777897 77.40010124 -0.02225234 80.46875 0 C81.37282593 -0.00809692 82.27690186 -0.01619385 83.20837402 -0.02453613 C88.66654999 0.04866832 92.03065536 0.69635875 96.234375 4.51757812 C98.68215587 8.66186782 99.6096048 11.7073189 99.61189842 16.50215912 C99.61972166 17.68430953 99.62754491 18.86645993 99.63560522 20.08443308 C99.62891305 21.37411289 99.62222089 22.6637927 99.61532593 23.99255371 C99.61878387 25.38351734 99.62354935 26.77447824 99.62950766 28.16543341 C99.64202872 31.98269873 99.63584231 35.79973899 99.62654901 39.61700511 C99.61976337 43.7356778 99.63023733 47.85431169 99.63848877 51.97297668 C99.65183348 60.03946684 99.64894508 68.10587329 99.64025085 76.17236674 C99.63347762 82.72776707 99.63255602 89.28314393 99.6358223 95.83854675 C99.636282 96.77129821 99.63674169 97.70404967 99.63721532 98.66506633 C99.63817449 100.55989175 99.63914713 102.45471716 99.6401331 104.34954256 C99.64868915 122.12023289 99.63884947 139.8908768 99.622732 157.66155952 C99.60932862 172.91192881 99.61165665 188.1622296 99.62548828 203.41259766 C99.64154028 221.11939767 99.64786516 238.826157 99.63865149 256.53296328 C99.63769584 258.42084534 99.63675272 260.30872742 99.6358223 262.1966095 C99.63535947 263.12550046 99.63489664 264.05439142 99.63441979 265.01143059 C99.63182876 271.55948478 99.63620333 278.10751317 99.64326096 284.65556335 C99.65167193 292.63469803 99.6494043 300.61374416 99.63341872 308.59286869 C99.62553058 312.66448902 99.62245364 316.73596168 99.63236618 320.80758095 C99.64130238 324.53451073 99.63639814 328.26115588 99.62043352 331.98805982 C99.61549246 333.97561456 99.62529188 335.96318904 99.63560522 337.95072317 C99.62778197 339.13287358 99.61995873 340.31502398 99.61189842 341.53299713 C99.61116784 343.06029001 99.61116784 343.06029001 99.61042249 344.61843729 C99.15568031 348.1242754 98.05085776 350.49688384 96.234375 353.51757812 C90.63503881 357.8155837 85.97512585 358.09309279 79.0693512 358.03224182 C77.55589038 358.04266011 77.55589038 358.04266011 76.01185459 358.05328888 C72.63861747 358.07155194 69.26608418 358.0612961 65.89282227 358.05102539 C63.47129795 358.05808417 61.04977806 358.06682901 58.62826538 358.07713318 C52.7382881 358.09730434 46.84848898 358.0986535 40.95849938 358.09050763 C36.16990956 358.08420074 31.38137603 358.08535097 26.59278679 358.09177971 C25.91053078 358.09268136 25.22827476 358.09358302 24.52534432 358.094512 C23.1392219 358.09636325 21.75309948 358.09822581 20.36697709 358.10009956 C7.37657681 358.11666836 -5.61371478 358.10796676 -18.60410852 358.09111398 C-30.48059654 358.07641867 -42.35683153 358.09104453 -54.23328697 358.11988414 C-66.43770874 358.14929872 -78.64201381 358.16024438 -90.84646946 358.15070194 C-92.22771996 358.14967942 -93.60897048 358.14868481 -94.99022102 358.14771843 C-96.00953796 358.14700384 -96.00953796 358.14700384 -97.04944716 358.14627482 C-101.82979272 358.14411336 -106.61002745 358.15390048 -111.39034843 358.16848946 C-117.82957606 358.18786762 -124.26844833 358.18089805 -130.70766068 358.15629005 C-133.06992546 358.15127946 -135.43222603 358.15477826 -137.7944622 358.16743851 C-141.02138831 358.18336392 -144.24676448 358.16842112 -147.47361755 358.14576721 C-148.40660421 358.15760294 -149.33959087 358.16943867 -150.30084985 358.18163306 C-156.56062174 358.09246079 -161.04443202 356.7708014 -165.765625 352.51757812 C-168.07965315 348.77419663 -168.01863978 345.26147355 -168.02632141 340.92042542 C-168.03014696 340.27110186 -168.03397251 339.62177831 -168.03791398 338.95277828 C-168.04820276 336.78492326 -168.04425979 334.61733515 -168.0402832 332.44946289 C-168.04463196 330.89197546 -168.04981565 329.33449017 -168.05577087 327.77700806 C-168.06915426 323.55180528 -168.0697403 319.32669198 -168.06720757 315.10147214 C-168.06613746 311.57261337 -168.07102224 308.04377268 -168.075813 304.51491779 C-168.0869058 296.18921202 -168.0873468 287.86355138 -168.08129883 279.5378418 C-168.0752577 270.95191017 -168.08757408 262.36614236 -168.1088689 253.78023869 C-168.12648732 246.4051476 -168.13248589 239.03010865 -168.12923115 231.65499729 C-168.12741861 227.25171417 -168.13005164 222.84854793 -168.14394569 218.44528389 C-168.15652344 214.30429845 -168.15458053 210.16356835 -168.14153481 206.02258682 C-168.13916939 204.50446041 -168.1419025 202.98631603 -168.15015793 201.46821022 C-168.16063052 199.39241617 -168.15252177 197.31747811 -168.1398468 195.24171448 C-168.14001454 194.08121865 -168.14018229 192.92072283 -168.14035511 191.72506046 C-167.54652152 186.64217362 -165.88278577 183.46566308 -161.99584961 180.16699219 C-156.18416854 177.23769491 -149.41888504 178.02907862 -143.08203125 178.12695312 C-141.65714821 178.13442368 -140.23225482 178.14011276 -138.80735779 178.144104 C-135.07694586 178.1592966 -131.34716778 178.19852155 -127.61700439 178.24291992 C-123.8026995 178.2840116 -119.98829109 178.3021445 -116.17382812 178.32226562 C-108.70413972 178.3650236 -101.23497154 178.43319549 -93.765625 178.51757812 C-93.78894142 177.01873329 -93.78894142 177.01873329 -93.81272888 175.48960876 C-93.95481622 166.05894197 -94.05965209 156.62849315 -94.1283102 147.19699764 C-94.16479585 142.34840621 -94.21425944 137.50068087 -94.29370117 132.65258789 C-94.36992973 127.97112622 -94.4116504 123.29049591 -94.4297657 118.60846138 C-94.44266982 116.82502724 -94.46786998 115.04163709 -94.5057354 113.25855827 C-94.79044713 99.29220151 -94.79044713 99.29220151 -92.23098755 94.86013794 C-89.23681107 91.79104033 -86.4233191 89.59118721 -82.0574646 89.39732361 C-80.90718781 89.39954422 -79.75691101 89.40176483 -78.57177734 89.40405273 C-77.27057953 89.40412827 -75.96938171 89.4042038 -74.62875366 89.40428162 C-73.20302289 89.40938866 -71.7772925 89.41460466 -70.3515625 89.41992188 C-68.89710539 89.42178665 -67.44264766 89.42321027 -65.9881897 89.42420959 C-62.15769724 89.42803007 -58.32724263 89.43785636 -54.49676514 89.44891357 C-50.58899447 89.45913778 -46.68121769 89.46370938 -42.7734375 89.46875 C-35.1041494 89.47947904 -27.4348925 89.49654984 -19.765625 89.51757812 C-19.77450745 88.54118378 -19.78338989 87.56478943 -19.7925415 86.55880737 C-19.873697 77.34843568 -19.93362379 68.13813671 -19.97287369 58.92748833 C-19.99373105 54.19239248 -20.02201479 49.45758573 -20.06738281 44.72265625 C-20.11090673 40.15148205 -20.13477604 35.58058558 -20.14513397 31.00922012 C-20.15251361 29.26691441 -20.16692447 27.52462356 -20.18854523 25.78243637 C-20.2176669 23.33818703 -20.22157745 20.89507906 -20.21972656 18.45068359 C-20.23410767 17.73354691 -20.24848877 17.01641022 -20.26330566 16.27754211 C-20.22185117 11.20403605 -19.04075771 8.36153802 -15.765625 4.51757812 C-10.70572759 0.02698937 -6.44366849 -0.05770964 0 0 Z " fill="#EEC231" transform="translate(367.765625,8.482421875)"/>
<path d="M0 0 C0.96659546 -0.00700928 1.93319092 -0.01401855 2.92907715 -0.02124023 C6.1144713 -0.0388014 9.29897229 -0.02720376 12.484375 -0.01367188 C14.70345225 -0.01636732 16.92252835 -0.02025017 19.14160156 -0.02526855 C23.78852604 -0.03116108 28.43514261 -0.02260827 33.08203125 -0.00390625 C39.03404245 0.0188828 44.98533215 0.00575845 50.93731689 -0.01819611 C55.51844708 -0.03266051 60.09940663 -0.02804506 64.68054199 -0.01768494 C66.87496018 -0.01501945 69.06939394 -0.01828114 71.26379395 -0.02760315 C74.33252918 -0.03777897 77.40010124 -0.02225234 80.46875 0 C81.37282593 -0.00809692 82.27690186 -0.01619385 83.20837402 -0.02453613 C88.66654999 0.04866832 92.03065536 0.69635875 96.234375 4.51757812 C98.68215587 8.66186782 99.6096048 11.7073189 99.61189842 16.50215912 C99.61972166 17.68430953 99.62754491 18.86645993 99.63560522 20.08443308 C99.62891305 21.37411289 99.62222089 22.6637927 99.61532593 23.99255371 C99.61878387 25.38351734 99.62354935 26.77447824 99.62950766 28.16543341 C99.64202872 31.98269873 99.63584231 35.79973899 99.62654901 39.61700511 C99.61976337 43.7356778 99.63023733 47.85431169 99.63848877 51.97297668 C99.65183348 60.03946684 99.64894508 68.10587329 99.64025085 76.17236674 C99.63347762 82.72776707 99.63255602 89.28314393 99.6358223 95.83854675 C99.636282 96.77129821 99.63674169 97.70404967 99.63721532 98.66506633 C99.63817449 100.55989175 99.63914713 102.45471716 99.6401331 104.34954256 C99.64868915 122.12023289 99.63884947 139.8908768 99.622732 157.66155952 C99.60932862 172.91192881 99.61165665 188.1622296 99.62548828 203.41259766 C99.64154028 221.11939767 99.64786516 238.826157 99.63865149 256.53296328 C99.63769584 258.42084534 99.63675272 260.30872742 99.6358223 262.1966095 C99.63535947 263.12550046 99.63489664 264.05439142 99.63441979 265.01143059 C99.63182876 271.55948478 99.63620333 278.10751317 99.64326096 284.65556335 C99.65167193 292.63469803 99.6494043 300.61374416 99.63341872 308.59286869 C99.62553058 312.66448902 99.62245364 316.73596168 99.63236618 320.80758095 C99.64130238 324.53451073 99.63639814 328.26115588 99.62043352 331.98805982 C99.61549246 333.97561456 99.62529188 335.96318904 99.63560522 337.95072317 C99.62387035 339.72394878 99.62387035 339.72394878 99.61189842 341.53299713 C99.61116784 343.06029001 99.61116784 343.06029001 99.61042249 344.61843729 C98.97407775 349.52434167 97.21355115 352.68659461 93.46459961 355.86816406 C87.65291854 358.79746134 80.88763504 358.00607763 74.55078125 357.90820312 C73.12589821 357.90073257 71.70100482 357.89504349 70.27610779 357.89105225 C66.54569586 357.87585965 62.81591778 357.8366347 59.08575439 357.79223633 C55.2714495 357.75114465 51.45704109 357.73301175 47.64257812 357.71289062 C40.17288972 357.67013265 32.70372154 357.60196076 25.234375 357.51757812 C25.23198665 356.20375341 25.22959829 354.8899287 25.22713757 353.53629112 C25.16978451 322.35257683 25.09705882 291.16894019 25.00538872 259.98530891 C24.99412048 256.14759559 24.98298204 252.3098819 24.97192383 248.47216797 C24.96972014 247.70814445 24.96751646 246.94412093 24.965246 246.15694518 C24.92986834 233.78407753 24.90500686 221.41120994 24.88402798 209.03831045 C24.86226965 196.34368167 24.82921894 183.64911855 24.78567344 170.95454562 C24.75915724 163.12056537 24.74146165 155.28666697 24.73502896 147.45264407 C24.72915409 141.44668824 24.70757225 135.44089393 24.68009949 129.43499374 C24.67129202 126.97031445 24.66760225 124.50561084 24.66936684 122.04091644 C24.67101376 118.67967935 24.65436915 115.31901404 24.63310242 111.95785522 C24.63794999 110.97924951 24.64279757 110.00064379 24.64779204 108.99238336 C24.59292843 103.74945115 24.19367225 100.03819141 21.234375 95.51757812 C16.26521323 90.92110348 12.27062488 90.35609897 5.72265625 90.20117188 C4.99443161 90.18039078 4.26620697 90.15960968 3.51591492 90.13819885 C1.19299625 90.07289066 -1.13003406 90.01390575 -3.453125 89.95507812 C-5.02930835 89.91187507 -6.60548048 89.8682602 -8.18164062 89.82421875 C-12.04285475 89.71722853 -15.90418103 89.61590852 -19.765625 89.51757812 C-19.85838559 79.32096006 -19.92942079 69.12444271 -19.97287369 58.92748833 C-19.99373105 54.19239248 -20.02201479 49.45758573 -20.06738281 44.72265625 C-20.11090673 40.15148205 -20.13477604 35.58058558 -20.14513397 31.00922012 C-20.15251361 29.26691441 -20.16692447 27.52462356 -20.18854523 25.78243637 C-20.2176669 23.33818703 -20.22157745 20.89507906 -20.21972656 18.45068359 C-20.23410767 17.73354691 -20.24848877 17.01641022 -20.26330566 16.27754211 C-20.22185117 11.20403605 -19.04075771 8.36153802 -15.765625 4.51757812 C-10.70572759 0.02698937 -6.44366849 -0.05770964 0 0 Z " fill="#D6950F" transform="translate(367.765625,8.482421875)"/>
<path d="M0 0 C0.33 0 0.66 0 1 0 C1.33 25.08 1.66 50.16 2 76 C11.57 76.33 21.14 76.66 31 77 C33.64 77.99 36.28 78.98 39 80 C39 80.66 39 81.32 39 82 C39.61875 82.20625 40.2375 82.4125 40.875 82.625 C43.92207355 84.59663582 44.08688931 86.5295587 45 90 C45.24609566 93.33077049 45.24609566 93.33077049 45.24050903 97.02352905 C45.24221788 97.70652529 45.24392673 98.38952153 45.24568737 99.09321463 C45.24896662 101.36872964 45.23800468 103.64394601 45.22705078 105.91943359 C45.22648633 107.55576572 45.22680389 109.19209835 45.22793579 110.82843018 C45.22850897 115.26186233 45.21676022 119.69518599 45.20278788 124.12859297 C45.19027479 128.76505449 45.18910956 133.40151858 45.18673706 138.03799438 C45.180524 146.81389522 45.16411551 155.58974615 45.14403808 164.36562502 C45.1216737 174.3583119 45.11068429 184.35100117 45.10064721 194.34370685 C45.07974914 214.8958324 45.04457652 235.44791306 45 256 C30.92643435 256.11700328 16.85294454 256.20473813 2.7789917 256.25906086 C-3.75639739 256.28513537 -10.29145933 256.32049558 -16.82666016 256.37719727 C-23.13552051 256.43159153 -29.44406652 256.46143668 -35.75314331 256.47438622 C-38.15808052 256.48361261 -40.56300085 256.50162972 -42.96780396 256.52865028 C-46.34089099 256.56503742 -49.71268524 256.56994106 -53.0859375 256.56762695 C-54.07640579 256.58560333 -55.06687408 256.60357971 -56.08735657 256.62210083 C-62.34437435 256.57576462 -67.43265637 255.56869085 -72 251 C-74.06451123 247.10608544 -74.25297135 243.76843554 -74.26069641 239.40284729 C-74.26643473 238.42886196 -74.26643473 238.42886196 -74.27228898 237.43520015 C-74.28257776 235.26734514 -74.27863479 233.09975702 -74.2746582 230.93188477 C-74.27900696 229.37439734 -74.28419065 227.81691205 -74.29014587 226.25942993 C-74.30352926 222.03422715 -74.3041153 217.80911386 -74.30158257 213.58389401 C-74.30051246 210.05503525 -74.30539724 206.52619456 -74.310188 202.99733967 C-74.3212808 194.6716339 -74.3217218 186.34597325 -74.31567383 178.02026367 C-74.3096327 169.43433205 -74.32194908 160.84856424 -74.3432439 152.26266056 C-74.36086232 144.88756948 -74.36686089 137.51253052 -74.36360615 130.13741916 C-74.36179361 125.73413605 -74.36442664 121.33096981 -74.37832069 116.92770576 C-74.39089844 112.78672033 -74.38895553 108.64599023 -74.37590981 104.5050087 C-74.37354439 102.98688229 -74.3762775 101.4687379 -74.38453293 99.9506321 C-74.39500552 97.87483804 -74.38689677 95.79989998 -74.3742218 93.72413635 C-74.37438954 92.56364053 -74.37455729 91.4031447 -74.37473011 90.20748234 C-73.78089652 85.1245955 -72.11716077 81.94808496 -68.23022461 78.64941406 C-62.41856999 75.72013012 -55.65324893 76.51051585 -49.31640625 76.609375 C-48.06533081 76.61340332 -46.81425537 76.61743164 -45.52526855 76.62158203 C-40.87086228 76.64244306 -36.21666576 76.69828832 -31.5625 76.75 C-21.146875 76.8325 -10.73125 76.915 0 77 C0 51.59 0 26.18 0 0 Z " fill="#F7DD69" transform="translate(274,110)"/>
<path d="M0 0 C0.33 0 0.66 0 1 0 C1.06864064 42.70227099 1.12151583 85.40453563 1.15319599 128.10685084 C1.15694819 133.14626654 1.16083115 138.18568212 1.16479492 143.22509766 C1.16558185 144.22837036 1.16636878 145.23164306 1.16717956 146.26531796 C1.18023965 162.51812896 1.20389681 178.77090818 1.23145839 195.02370031 C1.25949582 211.69593026 1.27617274 228.36814354 1.28226548 245.04039609 C1.28638538 255.33115966 1.29940585 265.62183341 1.3237494 275.91256933 C1.33958606 282.96573677 1.34440506 290.01885765 1.34050413 297.07204159 C1.33857936 301.14363228 1.34156584 305.21506584 1.35761642 309.28662872 C1.37220219 313.01377807 1.37296109 316.74066442 1.36269668 320.46782582 C1.36082652 322.4556817 1.37377716 324.44353444 1.38724393 326.43134558 C1.37828421 328.20489639 1.37828421 328.20489639 1.36914349 330.0142765 C1.37028265 331.03268643 1.37142181 332.05109636 1.37259549 333.10036719 C0.74199469 338.0078629 -1.02061236 341.16883701 -4.76977539 344.35058594 C-10.58145646 347.27988322 -17.34673996 346.4884995 -23.68359375 346.390625 C-25.10847679 346.38315444 -26.53337018 346.37746536 -27.95826721 346.37347412 C-31.68867914 346.35828152 -35.41845722 346.31905658 -39.14862061 346.2746582 C-42.9629255 346.23356652 -46.77733391 346.21543363 -50.59179688 346.1953125 C-58.06148528 346.15255453 -65.53065346 346.08438264 -73 346 C-73 345.67 -73 345.34 -73 345 C-52.87 345 -32.74 345 -12 345 C-12 344.34 -12 343.68 -12 343 C-10.02 343 -8.04 343 -6 343 C-6.495 341.515 -6.495 341.515 -7 340 C-5.68 340 -4.36 340 -3 340 C-3 338.68 -3 337.36 -3 336 C-2.34 336 -1.68 336 -1 336 C-1.00092179 335.4105447 -1.00184359 334.8210894 -1.00279331 334.21377182 C-1.03369083 314.05918814 -1.05187006 293.9046036 -1.0625 273.75 C-1.0629343 272.95126528 -1.06336861 272.15253056 -1.06381607 271.32959175 C-1.09667677 209.13512483 -0.85098945 146.9434022 -0.5 84.75 C-0.49402628 83.68972784 -0.48805257 82.62945568 -0.48189783 81.53705406 C-0.32862177 54.35799147 -0.16826083 27.17897391 0 0 Z " fill="#BE9344" transform="translate(466,20)"/>
<path d="M0 0 C0.33 0 0.66 0 1 0 C1.20072291 19.19302842 1.38401753 38.38614791 1.54658794 57.57953835 C1.62247884 66.49143996 1.70406358 75.40322141 1.79907227 84.31494141 C1.88187111 92.08274828 1.95396671 99.85056829 2.01323253 107.61859167 C2.04498422 111.73139627 2.08207945 115.84399548 2.13199425 119.95662308 C2.17882441 123.82903599 2.21132183 127.70130699 2.2329216 131.57394028 C2.24335011 132.99374489 2.25897464 134.41352253 2.28024101 135.83320618 C2.30854648 137.77525651 2.31615249 139.71757533 2.32279968 141.65982056 C2.33293941 142.74569269 2.34307913 143.83156483 2.35352612 144.95034218 C1.77388051 149.95059724 0.04676928 153.11165318 -3.76977539 156.35058594 C-9.58145646 159.27988322 -16.34673996 158.4884995 -22.68359375 158.390625 C-24.10847679 158.38315444 -25.53337018 158.37746536 -26.95826721 158.37347412 C-30.68867914 158.35828152 -34.41845722 158.31905658 -38.14862061 158.2746582 C-41.9629255 158.23356652 -45.77733391 158.21543363 -49.59179688 158.1953125 C-57.06148528 158.15255453 -64.53065346 158.08438264 -72 158 C-72 157.67 -72 157.34 -72 157 C-51.87 157 -31.74 157 -11 157 C-11 156.34 -11 155.68 -11 155 C-9.02 155 -7.04 155 -5 155 C-5.33 154.01 -5.66 153.02 -6 152 C-4.68 152 -3.36 152 -2 152 C-2 150.68 -2 149.36 -2 148 C-1.34 148 -0.68 148 0 148 C0 99.16 0 50.32 0 0 Z " fill="#C4881D" transform="translate(465,208)"/>
<path d="M0 0 C12.33463355 -0.04628695 24.66924654 -0.08185067 37.00394917 -0.10362434 C42.73109817 -0.11407322 48.45818787 -0.12825256 54.18530273 -0.15087891 C59.70956698 -0.17256791 65.23377409 -0.18456031 70.75807762 -0.18975449 C72.86845995 -0.19345734 74.97883907 -0.20068782 77.08919716 -0.21146011 C80.03910775 -0.22592258 82.98878052 -0.22798014 85.9387207 -0.22705078 C87.2550222 -0.23783661 87.2550222 -0.23783661 88.59791565 -0.24884033 C94.65784352 -0.22810432 94.65784352 -0.22810432 98 2 C98 3.32 98 4.64 98 6 C95.75 6.75 95.75 6.75 93 7 C92.16841118 6.03413216 92.16841118 6.03413216 91.32002258 5.04875183 C88.10681698 2.21125322 85.21485371 2.43359516 81.12963867 2.4699707 C79.94593941 2.45687363 79.94593941 2.45687363 78.73832703 2.44351196 C76.13130969 2.41912972 73.52508568 2.42254818 70.91796875 2.42578125 C69.10198113 2.41333337 67.28600555 2.39899839 65.470047 2.38285828 C60.6870985 2.34479815 55.90435695 2.3296423 51.12127686 2.32006836 C43.47651363 2.30034692 35.83190851 2.24329696 28.18731117 2.19130516 C25.5224174 2.17602183 22.8576025 2.16877807 20.19267273 2.16316223 C18.5479631 2.15614052 16.90325381 2.14903917 15.25854492 2.1418457 C14.52323547 2.14237442 13.78792603 2.14290314 13.03033447 2.14344788 C8.57820935 2.11772743 4.37963395 1.72087957 0 1 C0 0.67 0 0.34 0 0 Z " fill="#D6A838" transform="translate(360,9)"/>
<path d="M0 0 C29.37 0 58.74 0 89 0 C88.67 0.66 88.34 1.32 88 2 C79.75 2 71.5 2 63 2 C62.67 4.64 62.34 7.28 62 10 C61.34 10 60.68 10 60 10 C60 9.34 60 8.68 60 8 C59.34 8 58.68 8 58 8 C58 7.34 58 6.68 58 6 C56.72125 5.79375 55.4425 5.5875 54.125 5.375 C53.40570313 5.25898437 52.68640625 5.14296875 51.9453125 5.0234375 C51.30335938 5.01570313 50.66140625 5.00796875 50 5 C49.34 5.66 48.68 6.32 48 7 C47.34 6.67 46.68 6.34 46 6 C46 4.35 46 2.7 46 1 C30.82 1 15.64 1 0 1 C0 0.67 0 0.34 0 0 Z " fill="#F3D454" transform="translate(290,98)"/>
<path d="M0 0 C0.99 0.33 1.98 0.66 3 1 C2.83748025 1.52949627 2.6749605 2.05899254 2.50751591 2.60453415 C1.880853 5.56237168 1.87728186 8.30212921 1.87974548 11.32745361 C1.87837082 12.62873199 1.87699615 13.93001038 1.87557983 15.27072144 C1.87911878 16.71075463 1.88275358 18.15078758 1.88647461 19.59082031 C1.88675671 21.10863239 1.8865983 22.6264446 1.8860321 24.14425659 C1.88574503 28.263735 1.89162733 32.38318433 1.89860606 36.50265598 C1.90485447 40.8081453 1.90544458 45.11363527 1.90663147 49.41912842 C1.90974039 57.57175731 1.91794788 65.72437281 1.92798096 73.8769958 C1.93915571 83.15865136 1.94465598 92.44030756 1.94967639 101.72196817 C1.96013084 120.81465305 1.97772181 139.90732545 2 159 C1.34 158.67 0.68 158.34 0 158 C0 105.86 0 53.72 0 0 Z " fill="#EFDD8B" transform="translate(200,198)"/>
<path d="M0 0 C0.66 0.33 1.32 0.66 2 1 C2 1.66 2 2.32 2 3 C35.99 3.33 69.98 3.66 105 4 C105 4.33 105 4.66 105 5 C69.03 5 33.06 5 -4 5 C-2.68 4.34 -1.36 3.68 0 3 C0 2.01 0 1.02 0 0 Z " fill="#E9D36D" transform="translate(214,361)"/>
<path d="M0 0 C0.33 0 0.66 0 1 0 C1.25646743 3.54023874 1.4752688 7.08185602 1.6875 10.625 C1.76033203 11.62402344 1.83316406 12.62304688 1.90820312 13.65234375 C2.46294433 23.50715806 2.46294433 23.50715806 -1 28 C-7.61798441 33.2224607 -14.57457318 32.51587112 -22.68359375 32.390625 C-24.10847679 32.38315444 -25.53337018 32.37746536 -26.95826721 32.37347412 C-30.68867914 32.35828152 -34.41845722 32.31905658 -38.14862061 32.2746582 C-41.9629255 32.23356652 -45.77733391 32.21543363 -49.59179688 32.1953125 C-57.06148528 32.15255453 -64.53065346 32.08438264 -72 32 C-72 31.67 -72 31.34 -72 31 C-51.87 31 -31.74 31 -11 31 C-11 30.34 -11 29.68 -11 29 C-9.02 29 -7.04 29 -5 29 C-5.495 27.515 -5.495 27.515 -6 26 C-4.68 26 -3.36 26 -2 26 C-2 24.68 -2 23.36 -2 22 C-1.34 22 -0.68 22 0 22 C0 14.74 0 7.48 0 0 Z " fill="#B9842C" transform="translate(465,334)"/>
<path d="M0 0 C19.8 0 39.6 0 60 0 C60 1.32 60 2.64 60 4 C59.34 4 58.68 4 58 4 C58 3.34 58 2.68 58 2 C57.13128769 2.00333092 57.13128769 2.00333092 56.24502563 2.00672913 C50.17719138 2.02897916 44.10936886 2.0439883 38.04150391 2.05493164 C35.78173349 2.05993756 33.52196627 2.06674429 31.26220703 2.07543945 C28.00031745 2.08766974 24.73847096 2.09326587 21.4765625 2.09765625 C20.47823395 2.10281754 19.4799054 2.10797882 18.45132446 2.11329651 C12.24050096 2.11378504 6.16637985 1.74422917 0 1 C0 0.67 0 0.34 0 0 Z " fill="#F1E49D" transform="translate(214,187)"/>
<path d="M0 0 C0 3.66666667 0 7.33333333 0 11 C0.99 11.33 1.98 11.66 3 12 C2.01 12.33 1.02 12.66 0 13 C-5.47945205 10.04109589 -5.47945205 10.04109589 -7 7 C-7 4.47601429 -6.3761033 3.10036819 -5 1 C-3 0 -3 0 0 0 Z " fill="#F5D857" transform="translate(208,352)"/>
<path d="M0 0 C0.33 0 0.66 0 1 0 C1.25646743 3.54023874 1.4752688 7.08185602 1.6875 10.625 C1.76033203 11.62402344 1.83316406 12.62304688 1.90820312 13.65234375 C2.22164263 19.22050443 2.37498638 23.26743483 -1 28 C-3.98782033 30.53964728 -7.0278492 32 -11 32 C-11 31.01 -11 30.02 -11 29 C-9.02 29 -7.04 29 -5 29 C-5.33 28.01 -5.66 27.02 -6 26 C-4.68 26 -3.36 26 -2 26 C-2 24.68 -2 23.36 -2 22 C-1.34 22 -0.68 22 0 22 C0 14.74 0 7.48 0 0 Z " fill="#AD7222" transform="translate(465,334)"/>
<path d="M0 0 C0.680625 0.309375 1.36125 0.61875 2.0625 0.9375 C-3.14876761 7.27552817 -3.14876761 7.27552817 -5.9375 9.9375 C-6.494375 10.494375 -7.05125 11.05125 -7.625 11.625 C-8.058125 12.058125 -8.49125 12.49125 -8.9375 12.9375 C-9.875 10.375 -9.875 10.375 -9.9375 6.9375 C-7.39725331 3.09320975 -4.7780807 -0.10166129 0 0 Z " fill="#C7AD4C" transform="translate(283.9375,99.0625)"/>
<path d="M0 0 C2.94921875 -0.38818359 2.94921875 -0.38818359 6.6875 -0.3984375 C7.34580811 -0.40130768 8.00411621 -0.40417786 8.68237305 -0.40713501 C10.07439026 -0.40917676 11.46643609 -0.40363902 12.85839844 -0.39111328 C14.99218747 -0.37505878 17.12408255 -0.39095563 19.2578125 -0.41015625 C20.60937919 -0.40817383 21.9609447 -0.40433019 23.3125 -0.3984375 C24.54613281 -0.39505371 25.77976562 -0.39166992 27.05078125 -0.38818359 C28.51064453 -0.19603271 28.51064453 -0.19603271 30 0 C30.66 0.99 31.32 1.98 32 3 C29.69 3 27.38 3 25 3 C25 2.34 25 1.68 25 1 C22.3122562 1.14209669 19.62486698 1.2885723 16.9375 1.4375 C15.80924805 1.49647461 15.80924805 1.49647461 14.65820312 1.55664062 C10.05591667 1.81564376 5.56351372 2.3220248 1 3 C0.01 3 -0.98 3 -2 3 C-1.34 2.01 -0.68 1.02 0 0 Z " fill="#FBE275" transform="translate(279,188)"/>
<path d="M0 0 C1.62490954 -0.02698189 3.24994633 -0.04638757 4.875 -0.0625 C5.77992188 -0.07410156 6.68484375 -0.08570313 7.6171875 -0.09765625 C10 0 10 0 12 1 C12 1.66 12 2.32 12 3 C10.02 3 8.04 3 6 3 C6 3.66 6 4.32 6 5 C4.35 5 2.7 5 1 5 C0.67 3.35 0.34 1.7 0 0 Z " fill="#C87E0D" transform="translate(448,360)"/>
<path d="M0 0 C3.79235994 1.48985569 5.80565887 3.58658047 8 7 C7.75 9.3125 7.75 9.3125 7 11 C6.01 11 5.02 11 4 11 C3.67 10.34 3.34 9.68 3 9 C2.34 9 1.68 9 1 9 C1.20625 8.071875 1.4125 7.14375 1.625 6.1875 C2.36692966 2.84826598 2.36692966 2.84826598 0 0 Z " fill="#F6CD41" transform="translate(384,100)"/>
<path d="M0 0 C-0.33 0.66 -0.66 1.32 -1 2 C-3.97 2 -6.94 2 -10 2 C-10.66 3.32 -11.32 4.64 -12 6 C-14.125 6.75 -14.125 6.75 -16 7 C-15.77039733 3.7855626 -14.91240233 2.91897216 -12.5 0.6875 C-7.9496119 -1.50643712 -4.83197628 -0.98787071 0 0 Z " fill="#B68C26" transform="translate(367,10)"/>
<path d="M0 0 C1.65 0.33 3.3 0.66 5 1 C4.34 2.98 3.68 4.96 3 7 C2.1646875 6.566875 2.1646875 6.566875 1.3125 6.125 C-1.08494645 4.9586747 -3.51596939 3.9660119 -6 3 C-6 2.67 -6 2.34 -6 2 C-4.02 2 -2.04 2 0 2 C0 1.34 0 0.68 0 0 Z " fill="#DAA113" transform="translate(387,96)"/>
<path d="M0 0 C2.05078125 0.03255208 4.1015625 0.06510417 6.15234375 0.09765625 C6.15234375 1.41765625 6.15234375 2.73765625 6.15234375 4.09765625 C3.90234375 4.84765625 3.90234375 4.84765625 1.15234375 5.09765625 C-1.16015625 3.16015625 -1.16015625 3.16015625 -2.84765625 1.09765625 C-1.84765625 0.09765625 -1.84765625 0.09765625 0 0 Z " fill="#E3A411" transform="translate(451.84765625,10.90234375)"/>
<path d="M0 0 C0.33 1.32 0.66 2.64 1 4 C0.01 4.33 -0.98 4.66 -2 5 C-2 6.65 -2 8.3 -2 10 C-3.32 9.34 -4.64 8.68 -6 8 C-3.375 2.25 -3.375 2.25 0 0 Z " fill="#B6AB69" transform="translate(206,189)"/>
<path d="M0 0 C1.98 0 3.96 0 6 0 C5.34 1.32 4.68 2.64 4 4 C3.34 4 2.68 4 2 4 C1.731875 4.639375 1.46375 5.27875 1.1875 5.9375 C0 8 0 8 -3 9 C-1.79618552 6.50638429 -0.54571278 4.31856917 1 2 C0.67 1.34 0.34 0.68 0 0 Z " fill="#F3D557" transform="translate(283,99)"/>
<path d="M0 0 C0.2475 0.639375 0.495 1.27875 0.75 1.9375 C1.81562433 4.18741541 1.81562433 4.18741541 4.125 4.75 C4.74375 4.8325 5.3625 4.915 6 5 C6 5.66 6 6.32 6 7 C6.99 7.33 7.98 7.66 9 8 C8.01 8.33 7.02 8.66 6 9 C0.42379182 5.98884758 0.42379182 5.98884758 -0.9375 2.8125 C-0.958125 2.214375 -0.97875 1.61625 -1 1 C-0.67 0.67 -0.34 0.34 0 0 Z " fill="#C1B05D" transform="translate(202,356)"/>
<path d="M0 0 C3.48864279 0.36089408 6.09032693 2.1410422 9 4 C8.67 4.99 8.34 5.98 8 7 C5.5 5.625 5.5 5.625 3 4 C3 3.34 3 2.68 3 2 C1.35 2 -0.3 2 -2 2 C-1.34 1.34 -0.68 0.68 0 0 Z " fill="#B28224" transform="translate(455,9)"/>
<path d="M0 0 C0.66 0.33 1.32 0.66 2 1 C2 1.66 2 2.32 2 3 C3.65 3 5.3 3 7 3 C3.91111478 5.05925681 3.29064073 5.2390374 -0.1875 5.125 C-2.0746875 5.063125 -2.0746875 5.063125 -4 5 C-2.68 4.34 -1.36 3.68 0 3 C0 2.01 0 1.02 0 0 Z " fill="#D8C251" transform="translate(214,361)"/>
<path d="M0 0 C0.66 0 1.32 0 2 0 C2.6875 1.8125 2.6875 1.8125 3 4 C1.5625 5.75 1.5625 5.75 0 7 C-0.38133299 5.0085944 -0.71325582 3.00720923 -1 1 C-0.67 0.67 -0.34 0.34 0 0 Z " fill="#AB9447" transform="translate(275,105)"/>
<path d="M0 0 C1.65 0 3.3 0 5 0 C4.01 0.33 3.02 0.66 2 1 C2 1.66 2 2.32 2 3 C2.99 3.33 3.98 3.66 5 4 C1.25 5.125 1.25 5.125 -1 4 C-0.67 2.68 -0.34 1.36 0 0 Z " fill="#E7AA0E" transform="translate(357,11)"/>
</svg>
