<?xml version="1.0" encoding="UTF-8"?>
<svg version="1.1" xmlns="http://www.w3.org/2000/svg" width="311" height="181">
<path d="M0 0 C1.68765599 1.17884031 3.35635646 2.3855311 5 3.625 C5.70382813 4.13546875 6.40765625 4.6459375 7.1328125 5.171875 C18.79322008 14.40874689 26.26574551 29.2080218 29 43.625 C29.125 47.125 29.125 47.125 29 49.625 C30.31871094 49.7796875 30.31871094 49.7796875 31.6640625 49.9375 C40.97385874 51.85614653 48.59893574 59.10033547 54 66.625 C60.58944361 77.60180275 62.61184153 88.76432243 60.53515625 101.46875 C57.33644506 113.4307942 49.73975821 123.31923457 39.1015625 129.5625 C29.02198522 134.65849446 18.61369986 134.77463305 7.5480957 134.77026367 C5.70498055 134.77530159 5.70498055 134.77530159 3.82463074 134.78044128 C0.47307979 134.78828258 -2.87840917 134.79161709 -6.22996497 134.79225707 C-8.33068398 134.79297095 -10.43139661 134.79511167 -12.53211403 134.79775429 C-19.8803816 134.80699057 -27.22863111 134.81109149 -34.5769043 134.81030273 C-41.39442856 134.80970299 -48.21187344 134.82023893 -55.02937764 134.8360464 C-60.90825349 134.84918498 -66.7871036 134.85448397 -72.66599399 134.85384732 C-76.16567553 134.85359411 -79.66528649 134.85634636 -83.16495323 134.86702538 C-87.07704043 134.87863811 -90.98902151 134.87392113 -94.90112305 134.86791992 C-96.60750443 134.87634918 -96.60750443 134.87634918 -98.34835815 134.88494873 C-112.36618953 134.83067338 -124.52073934 133.04312448 -136 124.625 C-136.969375 123.944375 -137.93875 123.26375 -138.9375 122.5625 C-146.75188619 115.89970757 -152.02662685 104.74808075 -153 94.625 C-153.67624404 80.08575323 -151.26060115 67.65620108 -141.26953125 56.421875 C-137.25007422 52.18547983 -133.67545809 48.45876714 -128 46.625 C-128.0825 45.325625 -128.165 44.02625 -128.25 42.6875 C-128.24146603 37.25136087 -126.6097007 33.32591782 -124 28.625 C-123.67257813 28.00625 -123.34515625 27.3875 -123.0078125 26.75 C-118.84497687 19.94361181 -111.17972887 15.19233534 -103.5625 13.125 C-95.89114476 11.85563906 -88.24567546 13.0058225 -81 15.625 C-80.47792969 14.98433594 -79.95585938 14.34367187 -79.41796875 13.68359375 C-59.72564831 -9.45746932 -26.17892897 -15.9303098 0 0 Z " fill="#EBBC12" transform="translate(192,19.375)"/>
<path d="M0 0 C0.74503784 -0.00511093 1.49007568 -0.01022186 2.25769043 -0.01548767 C4.72208678 -0.02939497 7.18620382 -0.02842607 9.65063477 -0.02612305 C11.36312464 -0.03000939 13.07561354 -0.03434393 14.7881012 -0.03910828 C18.37845992 -0.04657295 21.96872031 -0.04627745 25.55908203 -0.04101562 C30.16047505 -0.03522093 34.76146556 -0.05215063 39.36279202 -0.0753603 C42.89982965 -0.09009108 46.43677021 -0.09097024 49.97383308 -0.08785057 C51.670307 -0.08836412 53.36678631 -0.09360826 55.06323051 -0.10366249 C57.43564899 -0.11599697 59.80728163 -0.1092537 62.1796875 -0.09765625 C62.88060013 -0.10529999 63.58151276 -0.11294373 64.30366516 -0.12081909 C67.32960084 -0.08811782 69.39221236 0.12893781 72.05921936 1.61042786 C74.59989199 4.26084288 74.782096 6.82672444 74.81567383 10.33129883 C74.82528137 11.14223999 74.83488892 11.95318115 74.8447876 12.78869629 C74.84903748 13.66062622 74.85328735 14.53255615 74.85766602 15.4309082 C74.86336609 16.32958618 74.86906616 17.22826416 74.87493896 18.1541748 C74.88438173 20.05386174 74.89092008 21.953565 74.89477539 23.85327148 C74.90450389 26.76355316 74.93554305 29.67313533 74.96704102 32.58325195 C74.97356897 34.42829984 74.97882025 36.27335278 74.98266602 38.1184082 C74.99501282 38.99033813 75.00735962 39.86226807 75.02008057 40.76062012 C75.01707947 41.57156128 75.01407837 42.38250244 75.01098633 43.21801758 C75.01645477 44.2869928 75.01645477 44.2869928 75.02203369 45.37756348 C74.53949492 47.86855667 73.66719936 48.76813368 71.65454102 50.2746582 C70.66454102 50.2746582 69.67454102 50.2746582 68.65454102 50.2746582 C68.65454102 50.9346582 68.65454102 51.5946582 68.65454102 52.2746582 C67.00454102 52.2746582 65.35454102 52.2746582 63.65454102 52.2746582 C63.65454102 53.2646582 63.65454102 54.2546582 63.65454102 55.2746582 C65.63454102 55.7696582 65.63454102 55.7696582 67.65454102 56.2746582 C66.16954102 56.7696582 66.16954102 56.7696582 64.65454102 57.2746582 C63.66454102 60.2446582 62.67454102 63.2146582 61.65454102 66.2746582 C45.15454102 66.2746582 28.65454102 66.2746582 11.65454102 66.2746582 C11.65454102 64.9546582 11.65454102 63.6346582 11.65454102 62.2746582 C11.32454102 61.6146582 10.99454102 60.9546582 10.65454102 60.2746582 C11.30938477 59.94852539 11.96422852 59.62239258 12.63891602 59.28637695 C15.05572351 57.29785442 15.05572351 57.29785442 15.04516602 53.48168945 C15.01864378 52.0163359 14.97103219 50.5512427 14.90454102 49.0871582 C14.8774707 47.96277344 14.8774707 47.96277344 14.84985352 46.81567383 C14.80278211 44.9681211 14.73103867 43.12122662 14.65454102 41.2746582 C14.32454102 41.2746582 13.99454102 41.2746582 13.65454102 41.2746582 C13.67774414 42.26208008 13.70094727 43.24950195 13.72485352 44.2668457 C13.75192383 46.18883789 13.75192383 46.18883789 13.77954102 48.1496582 C13.80274414 49.42583008 13.82594727 50.70200195 13.84985352 52.0168457 C13.65454102 55.2746582 13.65454102 55.2746582 11.65454102 57.2746582 C9.49047852 57.2512207 9.49047852 57.2512207 7.02954102 56.8996582 C6.21227539 56.78879883 5.39500977 56.67793945 4.55297852 56.5637207 C3.92649414 56.46833008 3.30000977 56.37293945 2.65454102 56.2746582 C2.65454102 55.6146582 2.65454102 54.9546582 2.65454102 54.2746582 C1.66454102 54.2746582 0.67454102 54.2746582 -0.34545898 54.2746582 C-0.34545898 53.6146582 -0.34545898 52.9546582 -0.34545898 52.2746582 C-1.99545898 52.2746582 -3.64545898 52.2746582 -5.34545898 52.2746582 C-5.84045898 50.7896582 -5.84045898 50.7896582 -6.34545898 49.2746582 C-7.17045898 48.6146582 -7.99545898 47.9546582 -8.84545898 47.2746582 C-11.34545898 45.2746582 -11.34545898 45.2746582 -12.34545898 42.2746582 C-12.45433523 39.590081 -12.50949337 36.93224369 -12.51342773 34.24731445 C-12.51842033 33.06932533 -12.51842033 33.06932533 -12.52351379 31.86753845 C-12.52857361 30.20743393 -12.53092241 28.54731926 -12.53076172 26.88720703 C-12.53294777 24.35017108 -12.55111195 21.81357034 -12.57006836 19.27661133 C-12.57300258 17.66268052 -12.57498718 16.04874765 -12.57592773 14.43481445 C-12.58311325 13.6774147 -12.59029877 12.92001495 -12.59770203 12.1396637 C-12.56824603 5.334749 -12.56824603 5.334749 -10.34545898 2.2746582 C-6.74824413 -0.12348503 -4.15424612 -0.01464114 0 0 Z " fill="#EDBD11" transform="translate(121.345458984375,78.725341796875)"/>
<path d="M0 0 C1.68765599 1.17884031 3.35635646 2.3855311 5 3.625 C5.70382813 4.13546875 6.40765625 4.6459375 7.1328125 5.171875 C18.79322008 14.40874689 26.26574551 29.2080218 29 43.625 C29.125 47.125 29.125 47.125 29 49.625 C30.31871094 49.7796875 30.31871094 49.7796875 31.6640625 49.9375 C40.97385874 51.85614653 48.59893574 59.10033547 54 66.625 C60.58944361 77.60180275 62.61184153 88.76432243 60.53515625 101.46875 C57.33644506 113.4307942 49.73975821 123.31923457 39.1015625 129.5625 C29.02198522 134.65849446 18.61369986 134.77463305 7.5480957 134.77026367 C5.70498055 134.77530159 5.70498055 134.77530159 3.82463074 134.78044128 C0.47307979 134.78828258 -2.87840917 134.79161709 -6.22996497 134.79225707 C-8.33068398 134.79297095 -10.43139661 134.79511167 -12.53211403 134.79775429 C-19.8803816 134.80699057 -27.22863111 134.81109149 -34.5769043 134.81030273 C-41.39442856 134.80970299 -48.21187344 134.82023893 -55.02937764 134.8360464 C-60.90825349 134.84918498 -66.7871036 134.85448397 -72.66599399 134.85384732 C-76.16567553 134.85359411 -79.66528649 134.85634636 -83.16495323 134.86702538 C-87.07704043 134.87863811 -90.98902151 134.87392113 -94.90112305 134.86791992 C-96.60750443 134.87634918 -96.60750443 134.87634918 -98.34835815 134.88494873 C-112.36618953 134.83067338 -124.52073934 133.04312448 -136 124.625 C-136.969375 123.944375 -137.93875 123.26375 -138.9375 122.5625 C-146.75188619 115.89970757 -152.02662685 104.74808075 -153 94.625 C-153.67624404 80.08575323 -151.26060115 67.65620108 -141.26953125 56.421875 C-137.25007422 52.18547983 -133.67545809 48.45876714 -128 46.625 C-128.0825 45.325625 -128.165 44.02625 -128.25 42.6875 C-128.24146603 37.25136087 -126.6097007 33.32591782 -124 28.625 C-123.67257813 28.00625 -123.34515625 27.3875 -123.0078125 26.75 C-118.84497687 19.94361181 -111.17972887 15.19233534 -103.5625 13.125 C-95.89114476 11.85563906 -88.24567546 13.0058225 -81 15.625 C-80.47792969 14.98433594 -79.95585938 14.34367187 -79.41796875 13.68359375 C-59.72564831 -9.45746932 -26.17892897 -15.9303098 0 0 Z M-73 17.625 C-74.26234296 19.76948341 -74.26234296 19.76948341 -75 21.625 C-73.63875 23.048125 -73.63875 23.048125 -72.25 24.5 C-66.0859061 31.75960822 -64.28200791 39.25121442 -65 48.625 C-66.65 48.625 -68.3 48.625 -70 48.625 C-70.08636719 47.8515625 -70.17273438 47.078125 -70.26171875 46.28125 C-71.44467198 37.51220221 -73.55759635 32.06740365 -79.8125 25.8125 C-86.90587347 20.9444986 -93.42211469 19.71054076 -102 20.625 C-108.77932137 22.57836379 -114.40421559 26.83675441 -118.39453125 32.66015625 C-121.55786151 38.81914909 -121.41374966 44.83260967 -121 51.625 C-121.886875 51.8725 -122.77375 52.12 -123.6875 52.375 C-132.69841632 55.77534578 -139.02959497 64.12073313 -143 72.625 C-147.42043065 83.39874922 -146.89558376 93.72031666 -143 104.625 C-138.15619076 114.48339381 -130.11018654 121.12720221 -120.21769714 125.53736687 C-114.50370954 127.46878613 -108.87004414 127.31111053 -102.890625 127.25610352 C-101.50784389 127.26125422 -100.12506938 127.26854413 -98.74230957 127.27778625 C-95.01894893 127.29616262 -91.29631247 127.28345021 -87.57298279 127.26369596 C-83.65704648 127.24719309 -79.74115188 127.25613841 -75.82519531 127.26121521 C-69.2518368 127.26572328 -62.67876403 127.24994668 -56.10546875 127.22192383 C-48.53052211 127.18987763 -40.95609053 127.18989182 -33.38110733 127.2071386 C-26.06239686 127.22306089 -18.74387331 127.21623364 -11.4251709 127.19920158 C-8.32494055 127.19236994 -5.2248618 127.19332318 -2.12463379 127.20074654 C1.53314903 127.20846808 5.19035322 127.19609483 8.84803772 127.16889763 C10.81269037 127.158846 12.77741296 127.16813506 14.74206543 127.17822266 C26.50076733 127.05291379 36.58936158 124.19958848 45 115.625 C51.400744 107.2914274 55.30443686 97.20543234 54 86.625 C51.80957595 75.08876666 45.41899504 66.47236152 36 59.625 C27.04189781 53.75472849 15.31633002 54.7901524 5 54.625 C5.33 52.975 5.66 51.325 6 49.625 C10.95 49.295 15.9 48.965 21 48.625 C22.14500592 36.94593964 16.20177152 26.43236127 9 17.625 C0.66201927 7.69595532 -11.22603334 0.61420785 -24.25488281 -0.58203125 C-43.5821002 -1.67883321 -59.47372651 3.06638861 -73 17.625 Z " fill="#0F0C09" transform="translate(192,19.375)"/>
<path d="M0 0 C0.74503784 -0.00511093 1.49007568 -0.01022186 2.25769043 -0.01548767 C4.72208678 -0.02939497 7.18620382 -0.02842607 9.65063477 -0.02612305 C11.36312464 -0.03000939 13.07561354 -0.03434393 14.7881012 -0.03910828 C18.37845992 -0.04657295 21.96872031 -0.04627745 25.55908203 -0.04101562 C30.16047505 -0.03522093 34.76146556 -0.05215063 39.36279202 -0.0753603 C42.89982965 -0.09009108 46.43677021 -0.09097024 49.97383308 -0.08785057 C51.670307 -0.08836412 53.36678631 -0.09360826 55.06323051 -0.10366249 C57.43564899 -0.11599697 59.80728163 -0.1092537 62.1796875 -0.09765625 C62.88060013 -0.10529999 63.58151276 -0.11294373 64.30366516 -0.12081909 C67.32960084 -0.08811782 69.39221236 0.12893781 72.05921936 1.61042786 C74.59989199 4.26084288 74.782096 6.82672444 74.81567383 10.33129883 C74.82528137 11.14223999 74.83488892 11.95318115 74.8447876 12.78869629 C74.84903748 13.66062622 74.85328735 14.53255615 74.85766602 15.4309082 C74.86336609 16.32958618 74.86906616 17.22826416 74.87493896 18.1541748 C74.88438173 20.05386174 74.89092008 21.953565 74.89477539 23.85327148 C74.90450389 26.76355316 74.93554305 29.67313533 74.96704102 32.58325195 C74.97356897 34.42829984 74.97882025 36.27335278 74.98266602 38.1184082 C74.99501282 38.99033813 75.00735962 39.86226807 75.02008057 40.76062012 C75.01707947 41.57156128 75.01407837 42.38250244 75.01098633 43.21801758 C75.01645477 44.2869928 75.01645477 44.2869928 75.02203369 45.37756348 C74.53949492 47.86855667 73.66719936 48.76813368 71.65454102 50.2746582 C70.66454102 50.2746582 69.67454102 50.2746582 68.65454102 50.2746582 C68.65454102 50.9346582 68.65454102 51.5946582 68.65454102 52.2746582 C66.34454102 52.2746582 64.03454102 52.2746582 61.65454102 52.2746582 C61.65454102 49.3046582 61.65454102 46.3346582 61.65454102 43.2746582 C61.98454102 43.9346582 62.31454102 44.5946582 62.65454102 45.2746582 C64.63454102 44.6146582 66.61454102 43.9546582 68.65454102 43.2746582 C68.98454102 31.0646582 69.31454102 18.8546582 69.65454102 6.2746582 C66.18149345 5.11697568 63.47712453 5.14759323 59.81225586 5.14526367 C59.12092056 5.14351135 58.42958527 5.14175903 57.71730042 5.13995361 C55.43333422 5.13555391 53.14944549 5.13846582 50.86547852 5.1418457 C49.28032415 5.14117228 47.69516988 5.14020193 46.11001587 5.13894653 C42.78956111 5.13747224 39.46913327 5.13961608 36.14868164 5.14428711 C31.8834285 5.14999354 27.61823815 5.14669793 23.35298729 5.14071465 C20.08116173 5.13710972 16.80935118 5.13824714 13.53752518 5.14084244 C11.96417865 5.14151142 10.39083077 5.1406843 8.81748581 5.13836288 C6.6242992 5.13583647 4.43121597 5.13967632 2.23803711 5.14526367 C0.98799896 5.14605927 -0.26203918 5.14685486 -1.54995728 5.14767456 C-4.2511257 4.95556103 -4.2511257 4.95556103 -5.34545898 6.2746582 C-5.43404544 9.01359905 -5.46069377 11.7271909 -5.44311523 14.46606445 C-5.44170029 15.28590317 -5.44028534 16.10574188 -5.43882751 16.95042419 C-5.43321188 19.57937203 -5.42065678 22.20823594 -5.40795898 24.8371582 C-5.402946 26.61515177 -5.39838274 28.39314666 -5.39428711 30.17114258 C-5.38323737 34.53901365 -5.3659623 38.90682168 -5.34545898 43.2746582 C-3.36545898 43.6046582 -1.38545898 43.9346582 0.65454102 44.2746582 C0.65454102 44.9346582 0.65454102 45.5946582 0.65454102 46.2746582 C1.64454102 45.7796582 1.64454102 45.7796582 2.65454102 45.2746582 C3.12105308 43.14889038 3.12105308 43.14889038 3.27954102 40.7121582 C3.35430664 39.88586914 3.42907227 39.05958008 3.50610352 38.20825195 C3.55508789 37.57016602 3.60407227 36.93208008 3.65454102 36.2746582 C10.1064381 36.76159383 10.1064381 36.76159383 12.36547852 38.8762207 C14.12569732 42.15129448 14.01722662 44.70136554 13.96704102 48.3996582 C13.96317383 49.63973633 13.95930664 50.87981445 13.95532227 52.1574707 C13.65454102 55.2746582 13.65454102 55.2746582 11.65454102 57.2746582 C9.49047852 57.2512207 9.49047852 57.2512207 7.02954102 56.8996582 C6.21227539 56.78879883 5.39500977 56.67793945 4.55297852 56.5637207 C3.92649414 56.46833008 3.30000977 56.37293945 2.65454102 56.2746582 C2.65454102 55.6146582 2.65454102 54.9546582 2.65454102 54.2746582 C1.66454102 54.2746582 0.67454102 54.2746582 -0.34545898 54.2746582 C-0.34545898 53.6146582 -0.34545898 52.9546582 -0.34545898 52.2746582 C-1.99545898 52.2746582 -3.64545898 52.2746582 -5.34545898 52.2746582 C-5.84045898 50.7896582 -5.84045898 50.7896582 -6.34545898 49.2746582 C-7.17045898 48.6146582 -7.99545898 47.9546582 -8.84545898 47.2746582 C-11.34545898 45.2746582 -11.34545898 45.2746582 -12.34545898 42.2746582 C-12.45433523 39.590081 -12.50949337 36.93224369 -12.51342773 34.24731445 C-12.51842033 33.06932533 -12.51842033 33.06932533 -12.52351379 31.86753845 C-12.52857361 30.20743393 -12.53092241 28.54731926 -12.53076172 26.88720703 C-12.53294777 24.35017108 -12.55111195 21.81357034 -12.57006836 19.27661133 C-12.57300258 17.66268052 -12.57498718 16.04874765 -12.57592773 14.43481445 C-12.58311325 13.6774147 -12.59029877 12.92001495 -12.59770203 12.1396637 C-12.56824603 5.334749 -12.56824603 5.334749 -10.34545898 2.2746582 C-6.74824413 -0.12348503 -4.15424612 -0.01464114 0 0 Z M49.65454102 12.2746582 C53.28454102 12.2746582 56.91454102 12.2746582 60.65454102 12.2746582 C60.32454102 25.4746582 59.99454102 38.6746582 59.65454102 52.2746582 C60.31454102 52.6046582 60.97454102 52.9346582 61.65454102 53.2746582 C60.66454102 55.7496582 60.66454102 55.7496582 59.65454102 58.2746582 C53.71454102 58.7696582 53.71454102 58.7696582 47.65454102 59.2746582 C47.60515125 53.06332565 47.56882625 46.85210708 47.54467773 40.640625 C47.53461207 38.52699798 47.52095845 36.41338491 47.50366211 34.29980469 C47.47943872 31.26404378 47.46806364 28.22846677 47.45922852 25.19262695 C47.44890594 24.24566452 47.43858337 23.29870209 47.427948 22.32304382 C47.42779694 21.44235733 47.42764587 20.56167084 47.42749023 19.65429688 C47.42304901 18.87930344 47.41860779 18.10431 47.41403198 17.30583191 C47.65454102 15.2746582 47.65454102 15.2746582 49.65454102 12.2746582 Z " fill="#D5B12A" transform="translate(121.345458984375,78.725341796875)"/>
<path d="M0 0 C0.33 1.32 0.66 2.64 1 4 C0.34 4 -0.32 4 -1 4 C-1 6.31 -1 8.62 -1 11 C-0.34 11 0.32 11 1 11 C1 10.34 1 9.68 1 9 C3.64 8.67 6.28 8.34 9 8 C11.52576557 11.67357598 12.36751239 14.07176064 12.29296875 18.51953125 C12.28330078 19.54111328 12.27363281 20.56269531 12.26367188 21.61523438 C12.23853516 22.67033203 12.21339844 23.72542969 12.1875 24.8125 C12.16719727 26.42415039 12.16719727 26.42415039 12.14648438 28.06835938 C12.11122577 30.71275455 12.06194366 33.35611748 12 36 C10.515 36.495 10.515 36.495 9 37 C9 37.66 9 38.32 9 39 C6.29120665 40.35439668 3.99066732 40.06501451 1 40 C1 39.34 1 38.68 1 38 C0.34 38 -0.32 38 -1 38 C-2.25248502 35.49502996 -2.11374406 33.79146726 -2.09765625 30.9921875 C-2.09443359 30.00605469 -2.09121094 29.01992187 -2.08789062 28.00390625 C-2.07951172 26.97136719 -2.07113281 25.93882813 -2.0625 24.875 C-2.05798828 23.83472656 -2.05347656 22.79445313 -2.04882812 21.72265625 C-2.03701952 19.14838038 -2.02055075 16.57421854 -2 14 C-2.66 14 -3.32 14 -4 14 C-4 22.25 -4 30.5 -4 39 C-14 39 -14 39 -16 38 C-16.0247636 33.65836985 -16.04289015 29.3167774 -16.05493164 24.97509766 C-16.05995288 23.49885339 -16.06677116 22.02261408 -16.07543945 20.54638672 C-16.08760189 18.42153702 -16.09325046 16.29675322 -16.09765625 14.171875 C-16.10289307 12.8940918 -16.10812988 11.61630859 -16.11352539 10.29980469 C-16.02194632 7.6379064 -15.80108514 5.51690418 -15 3 C-14.25234375 3.11859375 -13.5046875 3.2371875 -12.734375 3.359375 C-6.66657466 4.40546104 -6.66657466 4.40546104 -1.3125 2.0625 C-0.6628125 1.0415625 -0.6628125 1.0415625 0 0 Z " fill="#ECBC18" transform="translate(155,98)"/>
<path d="M0 0 C0.74503784 -0.00511093 1.49007568 -0.01022186 2.25769043 -0.01548767 C4.72208678 -0.02939497 7.18620382 -0.02842607 9.65063477 -0.02612305 C11.36312464 -0.03000939 13.07561354 -0.03434393 14.7881012 -0.03910828 C18.37845992 -0.04657295 21.96872031 -0.04627745 25.55908203 -0.04101562 C30.16047505 -0.03522093 34.76146556 -0.05215063 39.36279202 -0.0753603 C42.89982965 -0.09009108 46.43677021 -0.09097024 49.97383308 -0.08785057 C51.670307 -0.08836412 53.36678631 -0.09360826 55.06323051 -0.10366249 C57.43564899 -0.11599697 59.80728163 -0.1092537 62.1796875 -0.09765625 C62.88060013 -0.10529999 63.58151276 -0.11294373 64.30366516 -0.12081909 C67.32960084 -0.08811782 69.39221236 0.12893781 72.05921936 1.61042786 C75.52707777 5.22807774 74.79944415 9.87051542 74.78735352 14.5559082 C74.78831024 15.365802 74.78926697 16.1756958 74.79025269 17.01013184 C74.79093282 18.72151772 74.78909013 20.43290619 74.78491211 22.14428711 C74.7795615 24.76462597 74.78486271 27.38479343 74.79125977 30.00512695 C74.79059895 31.66788775 74.78931773 33.33064844 74.78735352 34.9934082 C74.78937775 35.77784302 74.79140198 36.56227783 74.79348755 37.3704834 C74.77955918 40.59990662 74.68314924 43.18883353 73.65454102 46.2746582 C72.99454102 46.2746582 72.33454102 46.2746582 71.65454102 46.2746582 C71.65454102 46.9346582 71.65454102 47.5946582 71.65454102 48.2746582 C68.5195581 50.13242586 66.27982669 50.47606296 62.65454102 50.2746582 C62.65454102 48.9546582 62.65454102 47.6346582 62.65454102 46.2746582 C63.78891602 45.9652832 64.92329102 45.6559082 66.09204102 45.3371582 C69.44229201 44.64541289 69.44229201 44.64541289 70.65454102 43.2746582 C70.78032454 40.64349551 70.84319045 38.039999 70.85766602 35.4074707 C70.86336609 34.61694305 70.86906616 33.82641541 70.87493896 33.01193237 C70.88440309 31.33568669 70.89092853 29.65942228 70.89477539 27.9831543 C70.90447459 25.41723138 70.93548095 22.85211144 70.96704102 20.28637695 C70.97357145 18.66007964 70.97882176 17.03377658 70.98266602 15.4074707 C71.00118622 14.25421799 71.00118622 14.25421799 71.02008057 13.07766724 C71.0552399 9.13175797 71.0552399 9.13175797 69.57038879 5.5710907 C66.64259007 3.58988246 64.14985215 3.90062561 60.64453125 3.90234375 C59.58067703 3.89686775 59.58067703 3.89686775 58.49533081 3.89128113 C56.1510219 3.88317498 53.807404 3.8967843 51.46313477 3.91137695 C49.83553569 3.9118955 48.20793598 3.91137802 46.58033752 3.90986633 C43.1698369 3.90995606 39.75957268 3.92038639 36.34912109 3.93847656 C31.97178716 3.96118184 27.59479816 3.96170463 23.21742153 3.95495892 C19.85717183 3.95162211 16.49700116 3.95824326 13.13676643 3.96808815 C11.5223844 3.97194407 9.90799358 3.97308675 8.29360771 3.9715023 C6.04061919 3.97113258 3.78807778 3.98372468 1.53515625 4 C0.25180893 4.00460739 -1.03153839 4.00921478 -2.35377502 4.01396179 C-5.46117442 3.96167205 -5.46117442 3.96167205 -7.34545898 6.2746582 C-7.54527924 9.04801248 -7.62525098 11.71935463 -7.61108398 14.4934082 C-7.61299744 15.30708862 -7.61491089 16.12076904 -7.61688232 16.95910645 C-7.61824425 18.68066721 -7.61454726 20.40223823 -7.60620117 22.1237793 C-7.59550157 24.7641499 -7.60609598 27.4038401 -7.61889648 30.04418945 C-7.61757489 31.71476388 -7.6150125 33.38533788 -7.61108398 35.0559082 C-7.61513245 35.84864136 -7.61918091 36.64137451 -7.62335205 37.45812988 C-7.75650021 41.83393247 -7.75650021 41.83393247 -5.34545898 45.2746582 C-2.77484587 45.92233613 -2.77484587 45.92233613 -0.34545898 46.2746582 C-0.34545898 47.5946582 -0.34545898 48.9146582 -0.34545898 50.2746582 C-4.21387839 50.84354341 -5.32157871 50.29164994 -8.59545898 47.9621582 C-11.94047245 44.69316777 -12.30309504 43.31923212 -12.49072266 38.69287109 C-12.50408276 37.21105978 -12.51125627 35.7291844 -12.51342773 34.24731445 C-12.51842033 33.06932533 -12.51842033 33.06932533 -12.52351379 31.86753845 C-12.52857361 30.20743393 -12.53092241 28.54731926 -12.53076172 26.88720703 C-12.53294777 24.35017108 -12.55111195 21.81357034 -12.57006836 19.27661133 C-12.57300258 17.66268052 -12.57498718 16.04874765 -12.57592773 14.43481445 C-12.58311325 13.6774147 -12.59029877 12.92001495 -12.59770203 12.1396637 C-12.56824603 5.334749 -12.56824603 5.334749 -10.34545898 2.2746582 C-6.74824413 -0.12348503 -4.15424612 -0.01464114 0 0 Z " fill="#180700" transform="translate(121.345458984375,78.725341796875)"/>
<path d="M0 0 C0.04934926 5.65998046 0.08569529 11.31983636 0.10986328 16.97998047 C0.11993582 18.90643494 0.13359443 20.83287408 0.15087891 22.75927734 C0.17507241 25.52445252 0.18647036 28.289426 0.1953125 31.0546875 C0.20563507 31.9193161 0.21595764 32.7839447 0.22659302 33.67477417 C0.22699106 35.78453521 0.12265243 37.89380718 0 40 C-2 42 -2 42 -5 42.25 C-8 42 -8 42 -10 40 C-10.18772998 37.08235543 -10.25553095 34.26129187 -10.23046875 31.34375 C-10.23001053 30.48567749 -10.22955231 29.62760498 -10.2290802 28.74353027 C-10.22605674 26.9278017 -10.21816763 25.11207576 -10.20581055 23.29638672 C-10.18757399 20.51130013 -10.18530071 17.72654626 -10.18554688 14.94140625 C-10.18063095 13.17968461 -10.17480231 11.41796524 -10.16796875 9.65625 C-10.16685593 8.81976929 -10.1657431 7.98328857 -10.16459656 7.12145996 C-10.11606528 1.23213057 -10.11606528 1.23213057 -9 -1 C-5.23375329 -2.25541557 -3.62811066 -1.37061958 0 0 Z " fill="#110B00" transform="translate(180,94)"/>
<path d="M0 0 C3.0625 0.1875 3.0625 0.1875 5.0625 2.1875 C5.32128906 5.04492188 5.32128906 5.04492188 5.328125 8.65625 C5.33070313 9.94917969 5.33328125 11.24210937 5.3359375 12.57421875 C5.33174805 13.24888184 5.32755859 13.92354492 5.32324219 14.61865234 C5.3125407 16.67966157 5.32313943 18.73979919 5.3359375 20.80078125 C5.33335937 22.09371094 5.33078125 23.38664062 5.328125 24.71875 C5.32586914 25.91048828 5.32361328 27.10222656 5.32128906 28.33007812 C5.0625 31.1875 5.0625 31.1875 3.0625 33.1875 C0 33.375 0 33.375 -2.9375 33.1875 C-4.84599948 31.27900052 -4.06809633 27.87271226 -4.0703125 25.34375 C-4.07126923 24.65945923 -4.07222595 23.97516846 -4.07321167 23.2701416 C-4.0738933 21.82088123 -4.07204023 20.37161782 -4.06787109 18.92236328 C-4.06252252 16.69687072 -4.0678166 14.47157999 -4.07421875 12.24609375 C-4.07355797 10.84114539 -4.0722768 9.43619715 -4.0703125 8.03125 C-4.06918457 6.74412109 -4.06805664 5.45699219 -4.06689453 4.13085938 C-3.89622873 0.24869545 -3.89622873 0.24869545 0 0 Z " fill="#0F0901" transform="translate(144.9375,102.8125)"/>
<path d="M0 0 C0.66 0.33 1.32 0.66 2 1 C4.24599216 1.12103681 6.49554976 1.1775068 8.74462891 1.20532227 C9.43742447 1.21522186 10.13022003 1.22512146 10.8440094 1.23532104 C13.13815878 1.26695497 15.43232889 1.29170086 17.7265625 1.31640625 C19.31554712 1.33697415 20.90452624 1.35797058 22.49349976 1.37937927 C26.67903195 1.43461691 30.86461366 1.48401869 35.05023193 1.53222656 C39.3199912 1.58242926 43.58967842 1.63812174 47.859375 1.69335938 C56.23952245 1.80096163 64.6197301 1.90240199 73 2 C73 2.33 73 2.66 73 3 C71.67242172 3.01213028 71.67242172 3.01213028 70.31802368 3.02450562 C61.98918189 3.1023515 53.66050394 3.18961151 45.33187294 3.28752708 C41.04973229 3.33753581 36.76761686 3.38386522 32.48535156 3.421875 C28.35499783 3.4586703 24.22485282 3.5050141 20.09467697 3.55806351 C18.516612 3.57663819 16.93850223 3.59173472 15.36037064 3.60334396 C13.15490457 3.62015427 10.94991977 3.64917535 8.74462891 3.68115234 C6.85932968 3.70113785 6.85932968 3.70113785 4.9359436 3.7215271 C1.87825895 3.69695553 1.87825895 3.69695553 0 6 C-0.19982025 8.77335427 -0.279792 11.44469643 -0.265625 14.21875 C-0.26753845 15.03243042 -0.2694519 15.84611084 -0.27142334 16.68444824 C-0.27278527 18.406009 -0.26908828 20.12758003 -0.26074219 21.84912109 C-0.25004258 24.4894917 -0.260637 27.12918189 -0.2734375 29.76953125 C-0.27211591 31.44010567 -0.26955352 33.11067967 -0.265625 34.78125 C-0.26967346 35.57398315 -0.27372192 36.36671631 -0.27789307 37.18347168 C-0.41104123 41.55927427 -0.41104123 41.55927427 2 45 C4.57061311 45.64767793 4.57061311 45.64767793 7 46 C7 47.32 7 48.64 7 50 C3.1315806 50.56888521 2.02388028 50.01699174 -1.25 47.6875 C-4.59501346 44.41850957 -4.95763605 43.04457392 -5.14526367 38.41821289 C-5.15862377 36.93640158 -5.16579729 35.4545262 -5.16796875 33.97265625 C-5.17296135 32.79466713 -5.17296135 32.79466713 -5.17805481 31.59288025 C-5.18311463 29.93277573 -5.18546343 28.27266105 -5.18530273 26.61254883 C-5.18748879 24.07551287 -5.20565296 21.53891213 -5.22460938 19.00195312 C-5.22754359 17.38802232 -5.2295282 15.77408945 -5.23046875 14.16015625 C-5.23765427 13.4027565 -5.24483978 12.64535675 -5.25224304 11.86500549 C-5.22278704 5.0600908 -5.22278704 5.0600908 -3 2 C-2.01 1.34 -1.02 0.68 0 0 Z " fill="#402E06" transform="translate(114,79)"/>
<path d="M0 0 C2.3431213 0.25561323 4.67843403 0.59270772 7 1 C8.8779923 4.75598459 8.18475762 9.30473982 8.1875 13.4375 C8.19974609 14.40494141 8.21199219 15.37238281 8.22460938 16.36914062 C8.22750977 17.76229492 8.22750977 17.76229492 8.23046875 19.18359375 C8.23457764 20.03493896 8.23868652 20.88628418 8.24291992 21.76342773 C8 24 8 24 6 27 C3 27.3125 3 27.3125 0 27 C-2.52439695 24.47560305 -2.25679544 23.58943181 -2.265625 20.09765625 C-2.26820313 19.12505859 -2.27078125 18.15246094 -2.2734375 17.15039062 C-2.26570312 16.13138672 -2.25796875 15.11238281 -2.25 14.0625 C-2.25773438 13.04736328 -2.26546875 12.03222656 -2.2734375 10.98632812 C-2.27085937 10.01244141 -2.26828125 9.03855469 -2.265625 8.03515625 C-2.26336914 7.1419165 -2.26111328 6.24867676 -2.25878906 5.32836914 C-2 3 -2 3 0 0 Z " fill="#010101" transform="translate(157,109)"/>
<path d="M0 0 C3.3 0 6.6 0 10 0 C10 0.66 10 1.32 10 2 C55.21 2 100.42 2 147 2 C147 2.33 147 2.66 147 3 C128.57186303 3.04671737 110.14374143 3.08198756 91.71555805 3.10362434 C83.15906609 3.11393763 74.60261092 3.12799897 66.04614258 3.15087891 C58.58846884 3.17081117 51.13082174 3.18371606 43.67312211 3.18817699 C39.72420496 3.19078464 35.77536405 3.19691488 31.82647133 3.21146011 C28.10913363 3.22504143 24.39190353 3.22922153 20.67454338 3.22621536 C18.66088361 3.22702735 16.64723555 3.23778613 14.63360596 3.24884033 C13.43192276 3.246091 12.23023956 3.24334167 10.99214172 3.24050903 C9.42831993 3.24327441 9.42831993 3.24327441 7.83290577 3.24609566 C4.86963726 2.98867534 2.68630306 2.24485254 0 1 C0 0.67 0 0.34 0 0 Z " fill="#CFAB31" transform="translate(70,143)"/>
<path d="M0 0 C0.66 0 1.32 0 2 0 C3.59969413 3.19938827 3.14181878 6.67049328 3.1328125 10.18359375 C3.13376923 10.9949025 3.13472595 11.80621124 3.13571167 12.6421051 C3.13639271 14.35946734 3.13454372 16.07683215 3.13037109 17.79418945 C3.12502865 20.42339876 3.13031507 23.0524367 3.13671875 25.68164062 C3.13605782 27.34895871 3.13477635 29.01627669 3.1328125 30.68359375 C3.13483673 31.47116562 3.13686096 32.25873749 3.13894653 33.07017517 C3.12504608 36.30735953 3.03104833 38.906855 2 42 C1.34 42 0.68 42 0 42 C0 42.66 0 43.32 0 44 C-3.13498292 45.85776765 -5.37471432 46.20140476 -9 46 C-9 44.68 -9 43.36 -9 42 C-7.865625 41.690625 -6.73125 41.38125 -5.5625 41.0625 C-2.21224901 40.37075469 -2.21224901 40.37075469 -1 39 C-0.83976438 36.11747355 -0.74045971 33.25621473 -0.68359375 30.37109375 C-0.66281265 29.50686295 -0.64203156 28.64263214 -0.62062073 27.75221252 C-0.55502886 24.98072555 -0.49619582 22.20914079 -0.4375 19.4375 C-0.39432392 17.56314077 -0.35070994 15.68879157 -0.30664062 13.81445312 C-0.19933773 9.20973664 -0.09809785 4.60492142 0 0 Z " fill="#1F1200" transform="translate(193,83)"/>
<path d="M0 0 C2.875 -0.125 2.875 -0.125 6 0 C8 2 8 2 8.265625 5.1875 C8.26046875 6.445625 8.2553125 7.70375 8.25 9 C8.25515625 10.258125 8.2603125 11.51625 8.265625 12.8125 C8 16 8 16 6 18 C2.9375 18.1875 2.9375 18.1875 0 18 C-1.7462388 16.2537612 -1.13221151 14.00121676 -1.13671875 11.67773438 C-1.13285156 10.97970703 -1.12898438 10.28167969 -1.125 9.5625 C-1.12886719 8.86833984 -1.13273437 8.17417969 -1.13671875 7.45898438 C-1.12663994 2.25327988 -1.12663994 2.25327988 0 0 Z " fill="#120B01" transform="translate(127,118)"/>
<path d="M0 0 C0 0.66 0 1.32 0 2 C-0.928125 2.1546875 -0.928125 2.1546875 -1.875 2.3125 C-4.36526484 2.87525373 -4.36526484 2.87525373 -6 6 C-7.98885912 7.55379619 -10.04733683 8.97013109 -12.125 10.40234375 C-15.1775367 13.0033594 -15.90294318 15.04908885 -16.30859375 19.0234375 C-16.35113281 20.12945312 -16.39367187 21.23546875 -16.4375 22.375 C-17.07290392 31.50636919 -17.07290392 31.50636919 -20 35 C-22.01421623 35.6385494 -24.00281666 36.01165944 -26.08203125 36.3828125 C-29.30780112 37.42084028 -30.32094221 40.20157035 -32 43 C-33.91645956 44.56367845 -35.8614352 45.73630262 -38 47 C-35.62942413 40.08080648 -30.3651558 35.17606663 -24.125 31.5 C-21 30 -21 30 -19 30 C-19.05800781 29.24976562 -19.11601563 28.49953125 -19.17578125 27.7265625 C-19.51746021 19.9753313 -18.55508719 14.38393765 -14 8 C-10.01324682 3.7951531 -5.9365729 0 0 0 Z " fill="#D2B133" transform="translate(90,41)"/>
<path d="M0 0 C2.10889814 3.1633472 2.24344542 5.13043394 2.22265625 8.9140625 C2.21943359 9.9453125 2.21621094 10.9765625 2.21289062 12.0390625 C2.20451172 13.11929688 2.19613281 14.19953125 2.1875 15.3125 C2.18298828 16.40046875 2.17847656 17.4884375 2.17382812 18.609375 C2.16201776 21.30213789 2.14554778 23.99479188 2.125 26.6875 C1.135 27.0175 0.145 27.3475 -0.875 27.6875 C-0.875 28.3475 -0.875 29.0075 -0.875 29.6875 C-3.58379335 31.04189668 -5.88433268 30.75251451 -8.875 30.6875 C-8.875 30.0275 -8.875 29.3675 -8.875 28.6875 C-9.535 28.6875 -10.195 28.6875 -10.875 28.6875 C-10.875 19.7775 -10.875 10.8675 -10.875 1.6875 C-10.215 1.6875 -9.555 1.6875 -8.875 1.6875 C-8.875 1.0275 -8.875 0.3675 -8.875 -0.3125 C-2.3739605 -1.66177235 -2.3739605 -1.66177235 0 0 Z M-7.875 1.6875 C-10.05246353 4.9536953 -10.13106429 5.93695834 -10.140625 9.72265625 C-10.14320313 10.69654297 -10.14578125 11.67042969 -10.1484375 12.67382812 C-10.14070312 13.68896484 -10.13296875 14.70410156 -10.125 15.75 C-10.13273438 16.76900391 -10.14046875 17.78800781 -10.1484375 18.83789062 C-10.14585937 19.81048828 -10.14328125 20.78308594 -10.140625 21.78515625 C-10.13836914 22.67726807 -10.13611328 23.56937988 -10.13378906 24.48852539 C-10.08084252 26.89473345 -10.08084252 26.89473345 -7.875 28.6875 C-4.875 29.10416667 -4.875 29.10416667 -1.875 28.6875 C1.03993325 24.31510012 0.45470877 20.32947939 0.4375 15.1875 C0.45361328 14.22457031 0.46972656 13.26164062 0.48632812 12.26953125 C0.48697266 11.34527344 0.48761719 10.42101562 0.48828125 9.46875 C0.49126221 8.62376953 0.49424316 7.77878906 0.49731445 6.90820312 C0.04287699 4.19766988 -0.6957836 3.31728224 -2.875 1.6875 C-5.41758463 1.18735047 -5.41758463 1.18735047 -7.875 1.6875 Z " fill="#D5B12D" transform="translate(164.875,107.3125)"/>
<path d="M0 0 C3.63 0 7.26 0 11 0 C10.67 14.19 10.34 28.38 10 43 C9.67 43 9.34 43 9 43 C8.67 29.8 8.34 16.6 8 3 C5.36 2.67 2.72 2.34 0 2 C-0.02464638 7.82071622 -0.0428343 13.64140234 -0.05493164 19.4621582 C-0.05997267 21.44393441 -0.06680538 23.42570689 -0.07543945 25.4074707 C-0.08751515 28.24952109 -0.09323045 31.09152247 -0.09765625 33.93359375 C-0.10281754 34.82525742 -0.10797882 35.71692108 -0.11329651 36.63560486 C-0.11349177 38.75740601 -0.0621003 40.8791078 0 43 C1.18424326 44.41577477 1.18424326 44.41577477 4.5625 44.0625 C6.2640625 44.0315625 6.2640625 44.0315625 8 44 C8 44.66 8 45.32 8 46 C3.05 46.495 3.05 46.495 -2 47 C-2.04938976 40.78866744 -2.08571476 34.57744888 -2.10986328 28.3659668 C-2.11992894 26.25233978 -2.13358257 24.1387267 -2.15087891 22.02514648 C-2.1751023 18.98938558 -2.18647738 15.95380857 -2.1953125 12.91796875 C-2.20563507 11.97100632 -2.21595764 11.02404388 -2.22659302 10.04838562 C-2.22674408 9.16769913 -2.22689514 8.28701263 -2.22705078 7.37963867 C-2.231492 6.60464523 -2.23593323 5.82965179 -2.24050903 5.03117371 C-2 3 -2 3 0 0 Z " fill="#DCB931" transform="translate(171,91)"/>
<path d="M0 0 C2.67927341 4.01891012 2.15601248 6.24161923 2 11 C-2.95 11.33 -7.9 11.66 -13 12 C-13.33 13.65 -13.66 15.3 -14 17 C-13.37955811 17.02505615 -12.75911621 17.0501123 -12.11987305 17.07592773 C-9.30887603 17.19196721 -6.49820759 17.31465759 -3.6875 17.4375 C-2.71103516 17.47681641 -1.73457031 17.51613281 -0.72851562 17.55664062 C0.20927734 17.59853516 1.14707031 17.64042969 2.11328125 17.68359375 C2.97735596 17.72025146 3.84143066 17.75690918 4.73168945 17.79467773 C7 18 7 18 10 19 C9.67 19.66 9.34 20.32 9 21 C1.08 21 -6.84 21 -15 21 C-15.66 22.32 -16.32 23.64 -17 25 C-17.99 24.34 -18.98 23.68 -20 23 C-20 22.34 -20 21.68 -20 21 C-19.34 21 -18.68 21 -18 21 C-17.23882028 18.63188533 -16.89195955 17.3565335 -17.625 14.9375 C-18 13 -18 13 -16.9375 11.3125 C-11.87205277 7.881068 -4.87810914 8.89544865 1 9 C0.67 6.03 0.34 3.06 0 0 Z " fill="#D0AE34" transform="translate(211,57)"/>
<path d="M0 0 C2.3431213 0.25561323 4.67843403 0.59270772 7 1 C8.8779923 4.75598459 8.18475762 9.30473982 8.1875 13.4375 C8.19974609 14.40494141 8.21199219 15.37238281 8.22460938 16.36914062 C8.22750977 17.76229492 8.22750977 17.76229492 8.23046875 19.18359375 C8.23457764 20.03493896 8.23868652 20.88628418 8.24291992 21.76342773 C8 24 8 24 6 27 C3 27.3125 3 27.3125 0 27 C-2.52439695 24.47560305 -2.25679544 23.58943181 -2.265625 20.09765625 C-2.26820313 19.12505859 -2.27078125 18.15246094 -2.2734375 17.15039062 C-2.26570312 16.13138672 -2.25796875 15.11238281 -2.25 14.0625 C-2.25773438 13.04736328 -2.26546875 12.03222656 -2.2734375 10.98632812 C-2.27085937 10.01244141 -2.26828125 9.03855469 -2.265625 8.03515625 C-2.26336914 7.1419165 -2.26111328 6.24867676 -2.25878906 5.32836914 C-2 3 -2 3 0 0 Z M2 1 C-0.15669572 4.23504358 -0.24833577 5.12190963 -0.23046875 8.8515625 C-0.22853516 9.78484375 -0.22660156 10.718125 -0.22460938 11.6796875 C-0.21236328 12.65164062 -0.20011719 13.62359375 -0.1875 14.625 C-0.18685547 15.6046875 -0.18621094 16.584375 -0.18554688 17.59375 C-0.57792545 22.13588359 -0.57792545 22.13588359 1 26 C2.66617115 26.04063832 4.33388095 26.042721 6 26 C6.05800828 22.39590081 6.09359869 18.79192149 6.125 15.1875 C6.14175781 14.16333984 6.15851563 13.13917969 6.17578125 12.08398438 C6.18544922 10.60961914 6.18544922 10.60961914 6.1953125 9.10546875 C6.21102295 7.74651489 6.21102295 7.74651489 6.22705078 6.36010742 C6.16165391 3.73063552 6.16165391 3.73063552 4 1 C3.34 1 2.68 1 2 1 Z " fill="#301F00" transform="translate(157,109)"/>
<path d="M0 0 C0.99 0.33 1.98 0.66 3 1 C2.01 1.33 1.02 1.66 0 2 C-1.6177674 5.73245395 -1.18045591 10.08329631 -1.203125 14.08984375 C-1.20882507 14.87138321 -1.21452515 15.65292267 -1.22039795 16.45814514 C-1.22982544 18.1080694 -1.23637297 19.75801231 -1.24023438 21.40795898 C-1.24995291 23.92530193 -1.28100176 26.44183239 -1.3125 28.95898438 C-1.31902953 30.56509934 -1.3242802 32.17122012 -1.328125 33.77734375 C-1.3404718 34.52644516 -1.3528186 35.27554657 -1.36553955 36.04734802 C-1.34188595 41.62328773 -0.06767273 44.77916633 3.6875 48.8125 C4.120625 49.204375 4.55375 49.59625 5 50 C2.75 50 2.75 50 0 49 C-4.87801881 42.09244052 -4.61450233 34.87052145 -4.52148438 26.73681641 C-4.50004254 24.50442887 -4.52134629 22.27525818 -4.546875 20.04296875 C-4.55951235 12.50352676 -4.29344281 6.47423916 0 0 Z " fill="#E1BB2A" transform="translate(111,79)"/>
<path d="M0 0 C1.79639296 1.09646058 3.58697154 2.20245148 5.375 3.3125 C6.37273437 3.92738281 7.37046875 4.54226562 8.3984375 5.17578125 C11 7 11 7 13 10 C8.94568308 11.15837626 6.78187881 10.83691257 3 9 C3 9.99 3 10.98 3 12 C0.03 10.02 -2.94 8.04 -6 6 C-4.68 5.34 -3.36 4.68 -2 4 C-2 3.34 -2 2.68 -2 2 C-1.34 2 -0.68 2 0 2 C0 1.34 0 0.68 0 0 Z " fill="#18150F" transform="translate(189,18)"/>
<path d="M0 0 C-0.66 0.66 -1.32 1.32 -2 2 C-2.75539062 1.68289062 -3.51078125 1.36578125 -4.2890625 1.0390625 C-9.31787984 -0.36900636 -14.17551401 -0.46398366 -19.375 -0.625 C-20.39722656 -0.66367187 -21.41945312 -0.70234375 -22.47265625 -0.7421875 C-24.98159597 -0.83597964 -27.49053764 -0.92167879 -30 -1 C-30 -0.34 -30 0.32 -30 1 C-35.3177215 2.24200752 -40.58201328 3.30834212 -46 4 C-34.75969519 -5.83526671 -13.02080413 -5.6233807 0 0 Z " fill="#DBB536" transform="translate(180,22)"/>
<path d="M0 0 C0.33 0 0.66 0 1 0 C1.33 9.57 1.66 19.14 2 29 C7.57836298 29.31622777 7.57836298 29.31622777 11 28 C11 28.99 11 29.98 11 31 C9.37509046 31.02698189 7.75005367 31.04638757 6.125 31.0625 C4.76761719 31.07990234 4.76761719 31.07990234 3.3828125 31.09765625 C1 31 1 31 -1 30 C-1.02934711 26.50001799 -1.04691445 23.00006821 -1.0625 19.5 C-1.07087891 18.51773438 -1.07925781 17.53546875 -1.08789062 16.5234375 C-1.10659124 10.91325243 -0.838879 5.54849101 0 0 Z " fill="#B0901E" transform="translate(140,106)"/>
<path d="M0 0 C0.66 0.33 1.32 0.66 2 1 C1.21625 1.763125 0.4325 2.52625 -0.375 3.3125 C-3.07257717 5.90891805 -3.07257717 5.90891805 -5 9 C-4.01 9 -3.02 9 -2 9 C-2.061875 9.86625 -2.12375 10.7325 -2.1875 11.625 C-1.97505756 15.44896392 -0.7225037 17.62988406 1 21 C0.67 21.99 0.34 22.98 0 24 C-0.39832031 23.31292969 -0.79664062 22.62585938 -1.20703125 21.91796875 C-1.73683594 21.01691406 -2.26664062 20.11585937 -2.8125 19.1875 C-3.33457031 18.29417969 -3.85664062 17.40085937 -4.39453125 16.48046875 C-5.78532199 14.33168013 -7.1122066 12.70638383 -9 11 C-7.59155282 7.78475695 -5.89655214 5.67816132 -3.375 3.25 C-2.74335937 2.63640625 -2.11171875 2.0228125 -1.4609375 1.390625 C-0.73777344 0.70226562 -0.73777344 0.70226562 0 0 Z " fill="#D7B336" transform="translate(126,30)"/>
<path d="M0 0 C5.65617808 4.87059779 9.24839805 11.48398047 10 19 C10.48585102 27.66695533 10.48585102 27.66695533 8 32 C7.96261719 30.96359375 7.92523438 29.9271875 7.88671875 28.859375 C7.82104212 27.48954816 7.75459536 26.11975809 7.6875 24.75 C7.66494141 24.06808594 7.64238281 23.38617188 7.61914062 22.68359375 C7.39279043 18.44467192 6.74476074 16.19861882 4 13 C3.66666667 10.66666667 3.33333333 8.33333333 3 6 C1.53228729 3.73545927 1.53228729 3.73545927 0 2 C0 1.34 0 0.68 0 0 Z " fill="#CBAD38" transform="translate(236,87)"/>
<path d="M0 0 C1.64666203 0.1135629 3.29236082 0.24117381 4.9375 0.375 C5.85402344 0.44460937 6.77054688 0.51421875 7.71484375 0.5859375 C8.84599609 0.79089844 8.84599609 0.79089844 10 1 C11.46098845 3.9219769 11.11134901 6.49893475 11.09765625 9.7578125 C11.0962413 10.42086395 11.09482635 11.08391541 11.09336853 11.76705933 C11.08776754 13.88641863 11.075215 16.00567259 11.0625 18.125 C11.05748512 19.56119639 11.05292219 20.99739444 11.04882812 22.43359375 C11.03779782 25.95576345 11.02053259 29.47787145 11 33 C10.67 33 10.34 33 10 33 C9.97494385 32.12674072 9.9498877 31.25348145 9.92407227 30.35375977 C9.82912291 27.12397448 9.72987971 23.89435846 9.62768555 20.66479492 C9.58428566 19.26510801 9.54261436 17.86536641 9.50268555 16.46557617 C9.44510555 14.45738505 9.38086 12.44938851 9.31640625 10.44140625 C9.27974854 9.23170166 9.24309082 8.02199707 9.20532227 6.77563477 C9.31061734 4.09294544 9.31061734 4.09294544 8 3 C6.00041636 2.95919217 3.99954746 2.95745644 2 3 C1.34 6.3 0.68 9.6 0 13 C-0.33 13 -0.66 13 -1 13 C-1.0272415 11.58344207 -1.04650467 10.16672955 -1.0625 8.75 C-1.07410156 7.96109375 -1.08570313 7.1721875 -1.09765625 6.359375 C-1.00385306 4.09308998 -0.63241063 2.1711105 0 0 Z " fill="#DDB832" transform="translate(140,101)"/>
<path d="M0 0 C2.62451617 2.62451617 2.5832868 4.4877828 3.125 8.125 C3.29257813 9.22070312 3.46015625 10.31640625 3.6328125 11.4453125 C3.75398438 12.28835937 3.87515625 13.13140625 4 14 C5.65 14 7.3 14 9 14 C9 9.38 9 4.76 9 0 C11 2 11 2 11.1953125 5.0390625 C11.17210937 6.22242188 11.14890625 7.40578125 11.125 8.625 C11.10695312 9.81351563 11.08890625 11.00203125 11.0703125 12.2265625 C11.04710937 13.14179687 11.02390625 14.05703125 11 15 C4.375 16.25 4.375 16.25 1 14 C0.48828125 10.7421875 0.48828125 10.7421875 0.3125 6.875 C0.24675781 5.59367187 0.18101563 4.31234375 0.11328125 2.9921875 C0.07589844 2.00476562 0.03851563 1.01734375 0 0 Z " fill="#D8B838" transform="translate(118,54)"/>
<path d="M0 0 C0.33 0 0.66 0 1 0 C1.02505615 1.145896 1.0501123 2.29179199 1.07592773 3.47241211 C1.16983106 7.70853598 1.27009275 11.94448928 1.37231445 16.18041992 C1.4157282 18.01664247 1.45739839 19.85290708 1.49731445 21.68920898 C1.55486169 24.32288311 1.61859998 26.95634421 1.68359375 29.58984375 C1.70030624 30.41588608 1.71701874 31.24192841 1.73423767 32.09300232 C1.47807433 35.85476753 1.47807433 35.85476753 3 39 C5.33297433 39.04092937 7.66705225 39.04241723 10 39 C10 39.66 10 40.32 10 41 C5.05 41.495 5.05 41.495 0 42 C0 28.14 0 14.28 0 0 Z " fill="#E6C038" transform="translate(169,96)"/>
<path d="M0 0 C1.32 0.66 2.64 1.32 4 2 C4.08074203 4.62561109 4.1403623 7.24875676 4.1875 9.875 C4.22520508 10.99455078 4.22520508 10.99455078 4.26367188 12.13671875 C4.29296875 14.3046875 4.29296875 14.3046875 4 18 C1 20 1 20 -2.1875 19.625 C-3.115625 19.41875 -4.04375 19.2125 -5 19 C-5 18.67 -5 18.34 -5 18 C-3.02 17.34 -1.04 16.68 1 16 C1.02692484 13.70839681 1.04636124 11.41670454 1.0625 9.125 C1.07410156 7.84882812 1.08570313 6.57265625 1.09765625 5.2578125 C1.23176569 2.11335348 1.23176569 2.11335348 0 0 Z " fill="#D3AF27" transform="translate(133,118)"/>
<path d="M0 0 C0.66 0 1.32 0 2 0 C2 7.59 2 15.18 2 23 C1.01 23.33 0.02 23.66 -1 24 C-0.67 16.08 -0.34 8.16 0 0 Z " fill="#E1BA2F" transform="translate(165,111)"/>
<path d="M0 0 C7.64229604 -0.52304688 14.30914357 -0.04447292 21 4 C22.78125 6.140625 22.78125 6.140625 24 8 C21.64828869 7.40138258 19.3140622 6.73075648 17 6 C16.67 5.34 16.34 4.68 16 4 C10.8415585 1.75144858 5.54422282 1.41636456 0 1 C0 0.67 0 0.34 0 0 Z " fill="#D0B137" transform="translate(90,40)"/>
<path d="M0 0 C1.21816406 0.03480469 1.21816406 0.03480469 2.4609375 0.0703125 C3.68683594 0.09738281 3.68683594 0.09738281 4.9375 0.125 C5.87722656 0.15980469 5.87722656 0.15980469 6.8359375 0.1953125 C6.8359375 0.5253125 6.8359375 0.8553125 6.8359375 1.1953125 C5.1653125 1.3190625 5.1653125 1.3190625 3.4609375 1.4453125 C1.6665625 1.8165625 1.6665625 1.8165625 -0.1640625 2.1953125 C-0.8240625 3.5153125 -1.4840625 4.8353125 -2.1640625 6.1953125 C3.1159375 6.1953125 8.3959375 6.1953125 13.8359375 6.1953125 C13.8359375 6.5253125 13.8359375 6.8553125 13.8359375 7.1953125 C8.2259375 7.1953125 2.6159375 7.1953125 -3.1640625 7.1953125 C-3.4940625 5.5453125 -3.8240625 3.8953125 -4.1640625 2.1953125 C-2.1640625 0.1953125 -2.1640625 0.1953125 0 0 Z " fill="#2C1E02" transform="translate(200.1640625,67.8046875)"/>
<path d="M0 0 C0 0.99 0 1.98 0 3 C-5.3177215 4.24200752 -10.58201328 5.30834212 -16 6 C-11.38503922 1.96190932 -6.07147123 0 0 0 Z " fill="#CFAE35" transform="translate(150,20)"/>
<path d="M0 0 C1.84446577 2.76669866 2.44899138 4.23102338 3.125 7.375 C3.29257813 8.12523437 3.46015625 8.87546875 3.6328125 9.6484375 C4 12 4 12 4 17 C0.7 17 -2.6 17 -6 17 C-6 16.67 -6 16.34 -6 16 C-3.36 16 -0.72 16 2 16 C1.67 15.01 1.34 14.02 1 13 C0.77548542 10.77425665 0.59217122 8.54418481 0.4375 6.3125 C0.35371094 5.13300781 0.26992187 3.95351563 0.18359375 2.73828125 C0.12300781 1.83464844 0.06242188 0.93101563 0 0 Z " fill="#DBB72A" transform="translate(208,49)"/>
<path d="M0 0 C0 0.99 0 1.98 0 3 C-3.13498292 4.85776765 -5.37471432 5.20140476 -9 5 C-9 3.68 -9 2.36 -9 1 C-2.25 -1.125 -2.25 -1.125 0 0 Z " fill="#362301" transform="translate(193,124)"/>
<path d="M0 0 C0.350625 0.515625 0.70125 1.03125 1.0625 1.5625 C0.7325 2.5525 0.4025 3.5425 0.0625 4.5625 C-0.2675 3.9025 -0.5975 3.2425 -0.9375 2.5625 C-3.25906597 2.15520772 -5.5943787 1.81811323 -7.9375 1.5625 C-8.2675 2.5525 -8.5975 3.5425 -8.9375 4.5625 C-9.5975 4.5625 -10.2575 4.5625 -10.9375 4.5625 C-10.9375 3.5725 -10.9375 2.5825 -10.9375 1.5625 C-10.2775 1.5625 -9.6175 1.5625 -8.9375 1.5625 C-8.9375 0.9025 -8.9375 0.2425 -8.9375 -0.4375 C-2.41442308 -1.79134615 -2.41442308 -1.79134615 0 0 Z " fill="#DAB51E" transform="translate(164.9375,107.4375)"/>
<path d="M0 0 C0 0.66 0 1.32 0 2 C-0.99 2.66 -1.98 3.32 -3 4 C-3.6496875 5.175625 -3.6496875 5.175625 -4.3125 6.375 C-6.38251841 9.59502864 -8.74814516 11.0488871 -12 13 C-10.66182195 9.02031425 -8.99662286 6.61251238 -6 3.6875 C-5.29875 2.99011719 -4.5975 2.29273437 -3.875 1.57421875 C-2 0 -2 0 0 0 Z " fill="#CCAC36" transform="translate(64,75)"/>
<path d="M0 0 C2.31 0.33 4.62 0.66 7 1 C7.33 1.66 7.66 2.32 8 3 C6.02 3 4.04 3 2 3 C1.67 7.95 1.34 12.9 1 18 C0.67 18 0.34 18 0 18 C0 12.06 0 6.12 0 0 Z " fill="#C6A11E" transform="translate(125,115)"/>
<path d="M0 0 C2.46313739 1.82748903 3.83428618 3.22976216 4.48828125 6.26953125 C4.72518293 8.51479346 4.90361349 10.74455578 5 13 C3.02 13.99 3.02 13.99 1 15 C1.33 11.37 1.66 7.74 2 4 C1.01 3.67 0.02 3.34 -1 3 C-0.67 2.01 -0.34 1.02 0 0 Z " fill="#E2B725" transform="translate(114,48)"/>
<path d="M0 0 C4.82675589 2.41337795 7.69984002 5.86062408 11 10 C9.35 9.67 7.7 9.34 6 9 C6 8.34 6 7.68 6 7 C4.68 6.67 3.36 6.34 2 6 C2.33 5.01 2.66 4.02 3 3 C2.01 2.67 1.02 2.34 0 2 C0 1.34 0 0.68 0 0 Z " fill="#D7B533" transform="translate(191,29)"/>
<path d="M0 0 C2.6015625 -0.29296875 2.6015625 -0.29296875 5.625 -0.1875 C7.12933594 -0.14689453 7.12933594 -0.14689453 8.6640625 -0.10546875 C9.43492187 -0.07066406 10.20578125 -0.03585938 11 0 C11 1.65 11 3.3 11 5 C10.67 4.34 10.34 3.68 10 3 C7.64400765 2.53248212 7.64400765 2.53248212 4.9375 2.375 C4.01839844 2.30023438 3.09929687 2.22546875 2.15234375 2.1484375 C1.44207031 2.09945312 0.73179687 2.05046875 0 2 C-0.33 2.99 -0.66 3.98 -1 5 C-1.33 4.34 -1.66 3.68 -2 3 C-1.34 2.01 -0.68 1.02 0 0 Z " fill="#D2B121" transform="translate(171,91)"/>
<path d="M0 0 C5.19822672 1.36144033 8.09543873 3.46730171 12 7 C9 8 9 8 6.9375 7.25 C5 6 5 6 3 3 C2.01 2.67 1.02 2.34 0 2 C0 1.34 0 0.68 0 0 Z " fill="#D6B434" transform="translate(222,77)"/>
<path d="M0 0 C3.3 0.33 6.6 0.66 10 1 C9.67 1.99 9.34 2.98 9 4 C8.67 3.67 8.34 3.34 8 3 C6.00041636 2.95919217 3.99954746 2.95745644 2 3 C1.34 6.3 0.68 9.6 0 13 C-0.33 13 -0.66 13 -1 13 C-1.0272415 11.58344207 -1.04650467 10.16672955 -1.0625 8.75 C-1.07410156 7.96109375 -1.08570313 7.1721875 -1.09765625 6.359375 C-1 4 -1 4 0 0 Z " fill="#D3B227" transform="translate(140,101)"/>
<path d="M0 0 C-1.57533086 0.86883706 -3.16064509 1.71959068 -4.75 2.5625 C-5.63171875 3.03816406 -6.5134375 3.51382813 -7.421875 4.00390625 C-10.20701188 5.07998186 -11.26980214 5.06528748 -14 4 C-12.02 3.67 -10.04 3.34 -8 3 C-8 2.01 -8 1.02 -8 0 C-4.90645403 -0.99435406 -3.09720845 -0.87840996 0 0 Z " fill="#C9AB36" transform="translate(231,140)"/>
<path d="M0 0 C1.32 0 2.64 0 4 0 C2.44499019 3.81684226 -0.03595495 6.19195732 -3 9 C-3 7.35 -3 5.7 -3 4 C-2.01 4 -1.02 4 0 4 C0 2.68 0 1.36 0 0 Z " fill="#CEAA31" transform="translate(236,129)"/>
<path d="M0 0 C1.75 1.5625 1.75 1.5625 3 3 C2.34 3 1.68 3 1 3 C0.67 3.99 0.34 4.98 0 6 C-0.4125 5.566875 -0.825 5.13375 -1.25 4.6875 C-3.06054505 2.94161728 -4.96474232 1.47380729 -7 0 C-3.83170302 -1.05609899 -3.01480825 -1.13055309 0 0 Z " fill="#291B01" transform="translate(192,80)"/>
<path d="M0 0 C3.3 0 6.6 0 10 0 C10 0.66 10 1.32 10 2 C10.99 2.33 11.98 2.66 13 3 C8.07872966 3.16682272 4.49656104 3.24828052 0 1 C0 0.67 0 0.34 0 0 Z " fill="#BC9F2B" transform="translate(70,143)"/>
<path d="M0 0 C2.52480693 2.52480693 2.55738633 4.13823034 3.125 7.625 C3.29257813 8.62789062 3.46015625 9.63078125 3.6328125 10.6640625 C3.75398438 11.43492188 3.87515625 12.20578125 4 13 C3.01 13.33 2.02 13.66 1 14 C0.67 9.38 0.34 4.76 0 0 Z " fill="#CAAD37" transform="translate(118,54)"/>
<path d="M0 0 C1.6510403 0.39553053 3.2958515 0.81713897 4.9375 1.25 C5.85402344 1.48203125 6.77054687 1.7140625 7.71484375 1.953125 C10 3 10 3 10.81640625 5.109375 C10.87699219 5.73328125 10.93757813 6.3571875 11 7 C6.00724943 5.72278474 3.42388092 3.82669043 0 0 Z " fill="#C6A936" transform="translate(59,136)"/>
<path d="M0 0 C0.66 0.99 1.32 1.98 2 3 C0.9171875 3.61875 0.9171875 3.61875 -0.1875 4.25 C-2.97969862 5.98736803 -5.47012585 7.90381857 -8 10 C-6.44303593 6.17836093 -3.96591316 3.81381505 -1 1 C-0.67 0.67 -0.34 0.34 0 0 Z " fill="#27262C" transform="translate(77,38)"/>
<path d="M0 0 C0.66 0.33 1.32 0.66 2 1 C-1.3 3.97 -4.6 6.94 -8 10 C-8.66 9.67 -9.32 9.34 -10 9 C-6.7 6.03 -3.4 3.06 0 0 Z " fill="#2C2C2A" transform="translate(124,22)"/>
<path d="M0 0 C0.33 0 0.66 0 1 0 C1.66 1.98 2.32 3.96 3 6 C5.31 6 7.62 6 10 6 C10 6.66 10 7.32 10 8 C6.7 8.33 3.4 8.66 0 9 C0 6.03 0 3.06 0 0 Z " fill="#D2AF26" transform="translate(169,129)"/>
<path d="M0 0 C-4.455 2.97 -4.455 2.97 -9 6 C-8 2 -8 2 -5.625 0.1875 C-3 -1 -3 -1 0 0 Z " fill="#231603" transform="translate(132,27)"/>
<path d="M0 0 C2.375 0.25 2.375 0.25 5 1 C6.3125 3.0625 6.3125 3.0625 7 5 C4.625 4.75 4.625 4.75 2 4 C0.6875 1.9375 0.6875 1.9375 0 0 Z " fill="#0A0306" transform="translate(191,26)"/>
<path d="M0 0 C-1.28913487 0.67154933 -2.58140204 1.33708859 -3.875 2 C-4.59429687 2.37125 -5.31359375 2.7425 -6.0546875 3.125 C-8 4 -8 4 -10 4 C-9 1 -9 1 -6.6875 -0.25 C-3.83402593 -1.04631835 -2.75197675 -0.8214856 0 0 Z " fill="#221603" transform="translate(142,22)"/>
<path d="M0 0 C0.99 0 1.98 0 3 0 C3.33 2.31 3.66 4.62 4 7 C2 5.75 2 5.75 0 4 C0 2.68 0 1.36 0 0 Z " fill="#D8B624" transform="translate(55,129)"/>
<path d="M0 0 C0.6875 1.625 0.6875 1.625 1 4 C-0.4375 7.25 -0.4375 7.25 -2 10 C-2.33 10 -2.66 10 -3 10 C-2.25 3.375 -2.25 3.375 0 0 Z " fill="#D8B73C" transform="translate(243,119)"/>
<path d="M0 0 C2.97 1.65 5.94 3.3 9 5 C8.01 5.33 7.02 5.66 6 6 C2.8125 4.1875 2.8125 4.1875 0 2 C0 1.34 0 0.68 0 0 Z " fill="#CFB039" transform="translate(182,23)"/>
<path d="M0 0 C0.598125 0.763125 1.19625 1.52625 1.8125 2.3125 C3.46959332 4.3483575 5.10297674 6.1978279 7 8 C4.625 7.6875 4.625 7.6875 2 7 C0 4 0 4 0 0 Z " fill="#C5A725" transform="translate(109,121)"/>
</svg>
