<?xml version="1.0" encoding="UTF-8"?>
<svg version="1.1" xmlns="http://www.w3.org/2000/svg" width="360" height="360">
<path d="M0 0 C118.8 0 237.6 0 360 0 C360 118.8 360 237.6 360 360 C241.2 360 122.4 360 0 360 C0 241.2 0 122.4 0 0 Z " fill="#FED342" transform="translate(0,0)"/>
<path d="M0 0 C24.2453035 -0.04690991 48.4906001 -0.08208129 72.73593998 -0.10362434 C83.99576912 -0.11389707 95.25556992 -0.12787997 106.51538086 -0.15087891 C116.33983282 -0.1709363 126.16426423 -0.18374545 135.98873609 -0.18817699 C141.18124307 -0.19076365 146.3736913 -0.1967579 151.56617928 -0.21146011 C218.01843655 -0.39217986 218.01843655 -0.39217986 241 10 C241.95648438 10.43054687 242.91296875 10.86109375 243.8984375 11.3046875 C254.55455416 16.58797223 262.91339154 24.69054869 267 36 C268.19923687 40.61648782 268.14785968 45.11930568 268.14526367 49.85424805 C268.15030159 51.17724159 268.15030159 51.17724159 268.15544128 52.52696228 C268.164928 55.43856217 268.16689348 58.35010437 268.16796875 61.26171875 C268.1711837 63.29327925 268.17454796 65.32483952 268.17805481 67.35639954 C268.18404095 71.61577897 268.18589532 75.87513814 268.18530273 80.13452148 C268.18520132 85.57367358 268.19883406 91.01269453 268.21607494 96.45181561 C268.2272346 100.64960824 268.2292207 104.84736961 268.22869301 109.04517555 C268.2298679 111.04928856 268.23426191 113.05340252 268.24202538 115.05750084 C268.25190229 117.87135157 268.2489167 120.68492338 268.24291992 123.4987793 C268.24853943 124.31523926 268.25415894 125.13169922 268.25994873 125.97290039 C268.19216582 138.58776361 264.94753826 151.94716319 256.00390625 161.2578125 C243.64671303 172.0011033 227.45225378 175.34007698 211.50244141 175.23950195 C210.51709915 175.24151611 209.5317569 175.24353027 208.51655579 175.24560547 C206.39741927 175.24912451 204.2782722 175.24841691 202.15913773 175.24382973 C198.79407081 175.23818481 195.42934199 175.24747934 192.06430054 175.2610321 C182.50378823 175.29794567 172.94339429 175.3167176 163.3828125 175.30541992 C157.5149581 175.29953984 151.64758362 175.31796473 145.77982712 175.35130882 C143.55771604 175.35921314 141.33555195 175.35805408 139.11345291 175.34728432 C123.22556317 175.27357663 109.84824436 176.13658008 97.5 187.25 C86.15041681 199.73454151 82.75892201 211.80709906 82.5859375 228.47265625 C82.56657135 229.6363121 82.5472052 230.79996796 82.5272522 231.99888611 C82.46785079 235.68668469 82.42122923 239.37451515 82.375 243.0625 C82.33678393 245.57488281 82.29773012 248.08725302 82.2578125 250.59960938 C82.16218191 256.73296047 82.07702084 262.86638848 82 269 C77.74992247 269.02495303 73.49988519 269.0429783 69.24975586 269.05493164 C67.807691 269.05992148 66.36563109 269.06671573 64.92358398 269.07543945 C47.93030368 269.17557317 34.90869211 268.23151482 22 256 C0.54714759 233.32563287 -0.1767207 199.50132648 -0.11352539 170.06103516 C-0.1132427 168.19692486 -0.11340286 166.33281445 -0.1139679 164.46870422 C-0.11425266 159.45108831 -0.10840809 154.43349671 -0.10139394 149.4158864 C-0.0951067 144.15619565 -0.09455238 138.89650423 -0.09336853 133.6368103 C-0.09027096 123.6960092 -0.08207895 113.7552192 -0.07201904 103.81442297 C-0.06080881 92.48904322 -0.05533512 81.16366293 -0.05032361 69.83827901 C-0.0398949 46.55884653 -0.02232617 23.27942389 0 0 Z " fill="#3772A4" transform="translate(0,0)"/>
<path d="M0 0 C56.43 0 112.86 0 171 0 C171 50.49 171 100.98 171 153 C170.67 153 170.34 153 170 153 C169.91363281 152.40316406 169.82726562 151.80632812 169.73828125 151.19140625 C167.76352602 138.99865146 164.28722814 127.16192608 159 116 C159 115.34 159 114.68 159 114 C158.34 114 157.68 114 157 114 C157 113.01 157 112.02 157 111 C156.34 111 155.68 111 155 111 C153.5546875 109.4609375 153.5546875 109.4609375 151.875 107.375 C145.01572944 99.35362162 136.53383127 93.73117179 126 92 C123.27944185 91.85224479 120.57772146 91.74509296 117.85546875 91.68359375 C116.7007885 91.6524221 116.7007885 91.6524221 115.52278137 91.62062073 C113.07777333 91.55553951 110.63266317 91.49643409 108.1875 91.4375 C106.52407823 91.39427532 104.86066656 91.35065979 103.19726562 91.30664062 C99.13161352 91.19990093 95.06585929 91.09851829 91 91 C91.00999275 91.87418076 91.00999275 91.87418076 91.02018738 92.76602173 C91.08719305 98.89929619 91.13206752 105.03246465 91.16479492 111.16601562 C91.17976739 113.44698316 91.20015257 115.72792247 91.22631836 118.00878906 C91.46289026 139.17965486 90.46809306 157.31700164 75.484375 173.65234375 C67.46832222 181.29872419 54.93229264 185.19563087 44.05615234 185.31884766 C43.07110718 185.33391609 43.07110718 185.33391609 42.06616211 185.34928894 C39.90609476 185.38001386 37.74615371 185.39717225 35.5859375 185.4140625 C34.05114787 185.43284273 32.51636782 185.45242077 30.9815979 185.4727478 C26.93221081 185.5240185 22.8827882 185.56356589 18.83325195 185.60089111 C15.61504526 185.63245313 12.39696709 185.67219786 9.17885971 185.71249771 C-17.44611379 186.04490467 -17.44611379 186.04490467 -29.34667969 185.95214844 C-31.29832535 185.9398671 -31.29832535 185.9398671 -33.28939819 185.92733765 C-35.6757415 185.90886819 -38.0620438 185.88175072 -40.44815063 185.84341431 C-51.32068289 185.75802873 -61.81825254 186.56657357 -71.5 191.8125 C-72.16257812 192.14314453 -72.82515625 192.47378906 -73.5078125 192.81445312 C-79.52509889 195.93696927 -83.65687858 200.20641904 -87.625 205.6875 C-88.47964844 206.83798828 -88.47964844 206.83798828 -89.3515625 208.01171875 C-93.41377366 215.37567974 -94.44633617 222.85848124 -94.40405273 231.15625 C-94.41434761 232.59738159 -94.41434761 232.59738159 -94.42485046 234.06762695 C-94.44300261 237.2119059 -94.43929803 240.35568042 -94.43359375 243.5 C-94.43816059 245.70377767 -94.44346765 247.90755392 -94.44947815 250.11132812 C-94.45838613 254.71750699 -94.45601184 259.32351224 -94.44604492 263.9296875 C-94.43454913 269.81390611 -94.45478843 275.69752514 -94.48396206 281.58166504 C-94.50236081 286.12861902 -94.5020244 290.67543022 -94.49632454 295.22241211 C-94.49617183 297.39120323 -94.50217462 299.56000433 -94.51461601 301.72875977 C-94.52959636 304.76746634 -94.51879754 307.80507629 -94.50170898 310.84375 C-94.51137695 311.72716064 -94.52104492 312.61057129 -94.53100586 313.52075195 C-94.42808794 322.31910067 -91.70986578 329.96128388 -85.5625 336.375 C-84.82128906 337.16648437 -84.08007812 337.95796875 -83.31640625 338.7734375 C-78.60140322 343.3055652 -74.19833825 346.08072839 -68.1875 348.5 C-67.44266357 348.80188232 -66.69782715 349.10376465 -65.93041992 349.41479492 C-58.46811917 352.34852266 -50.88851348 354.53720707 -43 356 C-42.06373779 356.17660156 -41.12747559 356.35320312 -40.1628418 356.53515625 C-29.19596596 358.35930431 -18.27968574 358.3977139 -7.1875 358.375 C-6.19165894 358.37445618 -5.19581787 358.37391235 -4.1697998 358.37335205 C19.54161507 358.31380436 46.75472912 357.74153542 66.21484375 342.3203125 C68 341 68 341 70 341 C70 340.34 70 339.68 70 339 C70.66 339 71.32 339 72 339 C76.2967405 330.5257975 78.59792026 323.52809821 78.609375 313.9609375 C78.62500488 313.06673096 78.64063477 312.17252441 78.65673828 311.2512207 C78.70873629 307.95941102 78.72749982 304.66714346 78.75 301.375 C78.8325 293.99125 78.915 286.6075 79 279 C49.96 279 20.92 279 -9 279 C-9 274.71 -9 270.42 -9 266 C-6.54395073 265.99453156 -6.54395073 265.99453156 -4.0382843 265.98895264 C11.42446215 265.95194315 26.88699031 265.89433974 42.34958172 265.81609726 C50.29824317 265.7763983 58.24680693 265.74395963 66.19555664 265.72900391 C73.12897239 265.71593971 80.06217236 265.68885458 86.99546653 265.64538693 C90.66185815 265.62287843 94.32798469 265.60708287 97.99445152 265.60811615 C102.10166393 265.60900959 106.20810284 265.57858024 110.31518555 265.54589844 C111.51209518 265.5509288 112.70900482 265.55595917 113.94218445 265.56114197 C126.05468789 265.41292216 136.39124919 262.45607751 146 255 C147.03125 254.2575 148.0625 253.515 149.125 252.75 C162.08968043 240.34900132 166.81747574 223.07888797 170 206 C170.33 206 170.66 206 171 206 C171 256.82 171 307.64 171 360 C52.2 360 -66.6 360 -189 360 C-189 303.57 -189 247.14 -189 189 C-188.67 189 -188.34 189 -188 189 C-187.94054199 189.8206897 -187.94054199 189.8206897 -187.87988281 190.65795898 C-186.0952856 214.26443342 -182.4912974 241.15801214 -164 258 C-150.7525599 267.85549242 -137.79599094 268.11901977 -121.9375 268.5625 C-120.4850161 268.60578755 -119.03254199 268.64940474 -117.58007812 268.69335938 C-114.05349009 268.79937254 -110.52679065 268.90092748 -107 269 C-107.00666183 268.3626593 -107.01332367 267.7253186 -107.02018738 267.06866455 C-107.08699626 260.38420703 -107.13198814 253.69984568 -107.16479492 247.01513672 C-107.17980232 244.5264907 -107.20021464 242.03787077 -107.22631836 239.54931641 C-107.26305706 235.95468675 -107.2798075 232.36040936 -107.29296875 228.765625 C-107.30845261 227.66825012 -107.32393646 226.57087524 -107.33988953 225.44024658 C-107.3429052 211.33036007 -103.41772218 198.07529148 -93.671875 187.55078125 C-79.837057 174.71801782 -64.50709118 174.28684451 -46.69140625 174.3984375 C-44.43423195 174.39292638 -42.17706268 174.38479195 -39.91990662 174.37417603 C-34.00532518 174.35140055 -28.09111489 174.3554653 -22.17651367 174.36798096 C-12.71652873 174.38635389 -3.2567612 174.37609717 6.20317268 174.34212112 C9.48339434 174.33607608 12.76313586 174.3492017 16.0433197 174.36410522 C33.79933733 174.37435845 51.77382858 172.89680952 66.03125 161.015625 C76.13679934 150.66946734 78.14220209 137.62050701 78.16113281 123.80517578 C78.16609772 122.922742 78.17106262 122.04030823 78.17617798 121.13113403 C78.1906846 118.23585203 78.19758125 115.34062475 78.203125 112.4453125 C78.20595238 111.45013485 78.20877975 110.4549572 78.21169281 109.42962265 C78.22663655 104.16613249 78.2358972 98.90266941 78.24023438 93.63916016 C78.24572087 88.22357943 78.26976664 82.80824986 78.29820633 77.39274788 C78.31689158 73.20782763 78.32204138 69.02296731 78.32357025 64.83800888 C78.32658253 62.8422597 78.33456247 60.84651122 78.34775543 58.85080338 C78.44147136 43.58895764 78.00132558 32.42996013 67.03125 20.9375 C56.02137468 10.40631491 42.06636028 6.22505476 27.375 3.875 C26.32699219 3.70323242 25.27898437 3.53146484 24.19921875 3.35449219 C16.13701308 2.07772837 8.15869821 1.26149674 0 1 C0 0.67 0 0.34 0 0 Z " fill="#F3F2F1" transform="translate(189,0)"/>
<path d="M0 0 C55.44 0 110.88 0 168 0 C168 0.33 168 0.66 168 1 C167.34741211 1.03440186 166.69482422 1.06880371 166.02246094 1.10424805 C143.17376719 2.39473907 118.66832204 4.79981933 101 21 C99.38130676 22.98218366 99.38130676 22.98218366 98.25 25 C97.86328125 25.639375 97.4765625 26.27875 97.078125 26.9375 C94.98028903 30.95075143 93.75476694 34.33024413 93.68115234 38.88208008 C93.66109131 39.83570435 93.64103027 40.78932861 93.62036133 41.77185059 C93.60900146 42.76108521 93.5976416 43.75031982 93.5859375 44.76953125 C93.56829346 45.6884314 93.55064941 46.60733154 93.5324707 47.55407715 C93.46959676 50.97337627 93.42327688 54.39296364 93.375 57.8125 C93.25125 65.464375 93.1275 73.11625 93 81 C122.04 81 151.08 81 181 81 C181 84.96 181 88.92 181 93 C179.39799744 93.00586624 177.79599487 93.01173248 176.14544678 93.01777649 C161.02088112 93.07508098 145.89647591 93.14770833 130.77206039 93.23571491 C122.99714265 93.28056693 115.22226963 93.32000562 107.44726562 93.34643555 C100.6658737 93.36950186 93.88462458 93.40299517 87.10334611 93.44870156 C83.51695319 93.47251819 79.93070068 93.49132225 76.34423065 93.49761391 C72.32791739 93.5048559 68.31208897 93.53539014 64.29589844 93.56762695 C63.12344574 93.56619186 61.95099304 93.56475677 60.74301147 93.5632782 C45.93709866 93.73046967 32.83674607 97.81496727 21.84375 108.01953125 C5.9686803 125.07177773 2.55629524 147.63849471 1 170 C0.67 170 0.34 170 0 170 C0 113.9 0 57.8 0 0 Z " fill="#F6F6F6" transform="translate(0,0)"/>
<path d="M0 0 C0.99080566 0.07831055 1.98161133 0.15662109 3.00244141 0.23730469 C4.38181885 0.36347168 4.38181885 0.36347168 5.7890625 0.4921875 C6.6032666 0.56550293 7.4174707 0.63881836 8.25634766 0.71435547 C10.375 1.125 10.375 1.125 13.375 3.125 C15.1384375 3.5890625 15.1384375 3.5890625 16.9375 4.0625 C20.375 5.125 20.375 5.125 22.375 8.125 C21.653125 8.82625 20.93125 9.5275 20.1875 10.25 C18.20567874 12.21493073 16.42792847 14.25678456 14.6875 16.4375 C13.5428125 17.7678125 13.5428125 17.7678125 12.375 19.125 C11.715 19.125 11.055 19.125 10.375 19.125 C10.230625 19.7025 10.08625 20.28 9.9375 20.875 C9.375 23.125 9.375 23.125 8.6875 25.1875 C8.09787634 27.44610278 8.09787634 27.44610278 10.375 30.125 C9.715 30.125 9.055 30.125 8.375 30.125 C8.045 31.115 7.715 32.105 7.375 33.125 C5.3125 34.3125 5.3125 34.3125 3.375 35.125 C3.375 36.115 3.375 37.105 3.375 38.125 C1.89 38.62 1.89 38.62 0.375 39.125 C0.375 40.445 0.375 41.765 0.375 43.125 C1.695 42.795 3.015 42.465 4.375 42.125 C4.045 43.445 3.715 44.765 3.375 46.125 C2.611875 45.795 1.84875 45.465 1.0625 45.125 C-1.61569135 43.95063314 -1.61569135 43.95063314 -4.625 44.125 C-4.955 44.125 -5.285 44.125 -5.625 44.125 C-6.82338209 46.45354463 -6.82338209 46.45354463 -7.625 49.125 C-6.965 50.115 -6.305 51.105 -5.625 52.125 C-9.5 50.25 -9.5 50.25 -10.625 49.125 C-10.91375 49.764375 -11.2025 50.40375 -11.5 51.0625 C-12.625 53.125 -12.625 53.125 -14.625 54.125 C-15.12 55.115 -15.12 55.115 -15.625 56.125 C-16.285 56.125 -16.945 56.125 -17.625 56.125 C-18.73336423 58.00816159 -18.73336423 58.00816159 -19.625 60.125 C-19.295 60.785 -18.965 61.445 -18.625 62.125 C-18.58477609 64.4579866 -18.58179753 66.79206666 -18.625 69.125 C-18.955 68.465 -19.285 67.805 -19.625 67.125 C-21.74864481 66.89890663 -21.74864481 66.89890663 -23.25 68.625 C-23.70375 69.12 -24.1575 69.615 -24.625 70.125 C-24.955 69.465 -25.285 68.805 -25.625 68.125 C-24.1875 65.5 -24.1875 65.5 -22.625 63.125 C-22.955 62.795 -23.285 62.465 -23.625 62.125 C-24.285 62.125 -24.945 62.125 -25.625 62.125 C-25.893125 62.888125 -26.16125 63.65125 -26.4375 64.4375 C-27.60478256 67.07924473 -28.54557031 68.21192469 -30.625 70.125 C-31.64300576 71.44463709 -32.64748365 72.77509646 -33.625 74.125 C-35.11 73.135 -35.11 73.135 -36.625 72.125 C-36.955 74.105 -37.285 76.085 -37.625 78.125 C-44.52688971 78.96354735 -50.73922188 79.14093448 -57.625 78.125 C-57.625 78.785 -57.625 79.445 -57.625 80.125 C-74.455 80.125 -91.285 80.125 -108.625 80.125 C-108.728125 72.57625 -108.83125 65.0275 -108.9375 57.25 C-108.98302002 54.88730957 -109.02854004 52.52461914 -109.07543945 50.09033203 C-109.09006185 48.1878399 -109.10279836 46.28533195 -109.11328125 44.3828125 C-109.13886108 43.41915771 -109.16444092 42.45550293 -109.1907959 41.46264648 C-109.19631071 32.76468245 -106.15763833 25.07396097 -100.24609375 18.5546875 C-74.36934171 -4.26673719 -32.15230994 -2.603548 0 0 Z " fill="#3876A9" transform="translate(201.625,0.875)"/>
<path d="M0 0 C-0.33 2.97 -0.66 5.94 -1 9 C-5.95 9 -10.9 9 -16 9 C-16 10.65 -16 12.3 -16 14 C-24.89574489 14.17153474 -33.79159986 14.33673429 -42.6875 14.5 C-43.99464966 14.52434113 -45.30179932 14.54868225 -46.64855957 14.57376099 C-78.66881145 15.16466913 -78.66881145 15.16466913 -93.4362793 14.875 C-100.79243991 14.78746284 -107.76355478 15.72149887 -115 17 C-116.99978902 17.33459673 -118.99972824 17.66830133 -121 18 C-121 15.03 -121 12.06 -121 9 C-116.05 9 -111.1 9 -106 9 C-106 7.68 -106 6.36 -106 5 C-109.3 5 -112.6 5 -116 5 C-116 4.67 -116 4.34 -116 4 C-114.81586517 3.99413376 -113.63173035 3.98826752 -112.41171265 3.98222351 C-101.20224099 3.92478232 -89.99295935 3.85191047 -78.78368187 3.76428509 C-73.02214354 3.71973222 -67.26067348 3.68044347 -61.49902344 3.65356445 C-55.92918428 3.62738026 -50.35960998 3.58687282 -44.78993607 3.53681374 C-42.6747329 3.52024663 -40.55948403 3.5086696 -38.44422531 3.50238609 C-27.91426623 3.46796864 -17.99300873 3.33967708 -7.75674438 0.63825989 C-5.06529057 0.01511651 -2.75053767 -0.11841471 0 0 Z " fill="#FDFDFE" transform="translate(241,171)"/>
<path d="M0 0 C0.33 0 0.66 0 1 0 C1 26.07 1 52.14 1 79 C-3.95 79 -8.9 79 -14 79 C-14 74.05 -14 69.1 -14 64 C-18.95 64 -23.9 64 -29 64 C-29.33 60.37 -29.66 56.74 -30 53 C-29.13375 52.443125 -28.2675 51.88625 -27.375 51.3125 C-10.79404471 40.09026094 -4.3699587 22.3291081 -0.62890625 3.375 C-0.31759766 1.704375 -0.31759766 1.704375 0 0 Z " fill="#EFEFED" transform="translate(359,206)"/>
<path d="M0 0 C4.95 0 9.9 0 15 0 C15 4.95 15 9.9 15 15 C19.95 15 24.9 15 30 15 C30 10.05 30 5.1 30 0 C34.95 0 39.9 0 45 0 C45 4.95 45 9.9 45 15 C49.95 15 54.9 15 60 15 C60 21.93 60 28.86 60 36 C58.35 34.35 56.7 32.7 55 31 C45.14264407 21.17984164 35.48990805 16.9875673 21.63671875 16.68359375 C20.84473587 16.66281265 20.05275299 16.64203156 19.23677063 16.62062073 C16.72043072 16.55552196 14.20399128 16.49642577 11.6875 16.4375 C9.97590139 16.394277 8.26431265 16.35066152 6.55273438 16.30664062 C2.36859016 16.19988153 -1.81565362 16.09850365 -6 16 C-6 20.62 -6 25.24 -6 30 C-8.97 30 -11.94 30 -15 30 C-15 25.05 -15 20.1 -15 15 C-10.05 15 -5.1 15 0 15 C0 10.05 0 5.1 0 0 Z " fill="#FEFDFC" transform="translate(285,75)"/>
<path d="M0 0 C4.16781945 2.4930443 7.19382503 5.4508023 9 10 C9.70077817 14.93804153 9.55558401 18.88883198 7.3125 23.375 C3.0524578 28.21072358 -0.18911198 30.71414698 -6.6875 31.375 C-11.72890144 31.30988965 -15.19916844 29.17903653 -19 26 C-22.05120501 22.25981322 -22.75233735 18.7881446 -23 14 C-22.04186415 8.44281209 -20.35804081 5.56566975 -16 2 C-10.80535876 -1.62416831 -5.95576642 -1.71240045 0 0 Z " fill="#EFEEEB" transform="translate(237,301)"/>
<path d="M0 0 C3.375 1.75 3.375 1.75 6 4 C6.763125 4.515625 7.52625 5.03125 8.3125 5.5625 C11.08132469 9.56191344 11.20363803 14.2145062 11 19 C9.89953829 22.76268978 8.53857229 24.8036918 5.5 27.25 C4.58734375 28.00023437 4.58734375 28.00023437 3.65625 28.765625 C-0.51871277 31.87715386 -4.9762625 31.43650168 -10 31 C-14.72403852 29.0487667 -17.72471109 25.55057782 -20 21 C-20.68982266 15.90471898 -21.16871344 11.03349872 -18.54296875 6.46484375 C-13.11894531 0.17297656 -8.16099418 -0.92941119 0 0 Z " fill="#EEEEEF" transform="translate(136,28)"/>
<path d="M0 0 C0 1.65 0 3.3 0 5 C-4.95 5 -9.9 5 -15 5 C-15 9.95 -15 14.9 -15 20 C-19.95 20 -24.9 20 -30 20 C-30 15.05 -30 10.1 -30 5 C-34.95 5 -39.9 5 -45 5 C-45 4.01 -45 3.02 -45 2 C-49.95 2 -54.9 2 -60 2 C-60 2.99 -60 3.98 -60 5 C-64.95 5 -69.9 5 -75 5 C-75 4.34 -75 3.68 -75 3 C-79.95 2.67 -84.9 2.34 -90 2 C-90 2.99 -90 3.98 -90 5 C-94.95 5 -99.9 5 -105 5 C-105 4.01 -105 3.02 -105 2 C-109.95 2 -114.9 2 -120 2 C-120 2.99 -120 3.98 -120 5 C-124.62 5 -129.24 5 -134 5 C-134 7.64 -134 10.28 -134 13 C-105.29 13 -76.58 13 -47 13 C-47 13.33 -47 13.66 -47 14 C-76.04 14 -105.08 14 -135 14 C-135 9.71 -135 5.42 -135 1 C-117.69349546 0.86952814 -100.38699032 0.73913552 -83.08048439 0.60884857 C-75.04519241 0.54835523 -67.00990065 0.48783364 -58.97460938 0.42724609 C-51.97292668 0.37445221 -44.97124359 0.32171078 -37.96956003 0.26903296 C-34.26054568 0.24112599 -30.55153153 0.21319234 -26.84251785 0.18519592 C-22.70702423 0.15398133 -18.57152974 0.12288382 -14.43603516 0.09179688 C-13.19957748 0.08244614 -11.96311981 0.0730954 -10.68919373 0.0634613 C-9.56736191 0.05504715 -8.44553009 0.046633 -7.28970337 0.03796387 C-6.31075922 0.03058952 -5.33181507 0.02321518 -4.32320595 0.01561737 C-2.88216046 0.00593018 -1.44107805 0 0 0 Z " fill="#EFEFEF" transform="translate(315,265)"/>
<path d="M0 0 C20.79 0 41.58 0 63 0 C63 0.33 63 0.66 63 1 C62.34741211 1.03440186 61.69482422 1.06880371 61.02246094 1.10424805 C38.20299335 2.39308838 13.63074879 4.78375255 -4 21 C-5.61856608 23.0517671 -5.61856608 23.0517671 -6.75 25.125 C-7.13671875 25.78757812 -7.5234375 26.45015625 -7.921875 27.1328125 C-8.45554687 28.05707031 -8.45554687 28.05707031 -9 29 C-9.66 29.99 -10.32 30.98 -11 32 C-11 31.34 -11 30.68 -11 30 C-12.32 30 -13.64 30 -15 30 C-15 25.05 -15 20.1 -15 15 C-10.05 15 -5.1 15 0 15 C0 10.05 0 5.1 0 0 Z " fill="#F1F1F2" transform="translate(105,0)"/>
<path d="M0 0 C3.30236266 -0.6727035 4.82511911 -0.93559292 8 0 C10.83936358 2.53867455 13.19392197 5.25784331 15.60546875 8.203125 C18.84701331 11.98933365 22.14564901 14.91986236 26.8125 16.75 C27.864375 17.1625 28.91625 17.575 30 18 C30 21.96 30 25.92 30 30 C25.05 30 20.1 30 15 30 C15 25.05 15 20.1 15 15 C10.05 15 5.1 15 0 15 C0 10.05 0 5.1 0 0 Z " fill="#FEFEFD" transform="translate(90,330)"/>
<path d="M0 0 C2.64 0 5.28 0 8 0 C8 4.95 8 9.9 8 15 C3.05 15 -1.9 15 -7 15 C-7 19.95 -7 24.9 -7 30 C-11.95 30 -16.9 30 -22 30 C-22 25.05 -22 20.1 -22 15 C-26.95 15 -31.9 15 -37 15 C-37 14.67 -37 14.34 -37 14 C-24.79 14 -12.58 14 0 14 C0 9.38 0 4.76 0 0 Z " fill="#FFFFFF" transform="translate(82,255)"/>
<path d="M0 0 C1.32 0 2.64 0 4 0 C3.67 16.83 3.34 33.66 3 51 C2.67 51 2.34 51 2 51 C2 49.02 2 47.04 2 45 C1.34 45 0.68 45 0 45 C0 40.05 0 35.1 0 30 C-4.95 30 -9.9 30 -15 30 C-15 25.05 -15 20.1 -15 15 C-10.05 15 -5.1 15 0 15 C0 10.05 0 5.1 0 0 Z " fill="#FDFDFD" transform="translate(90,30)"/>
<path d="M0 0 C1.32 0.4125 2.64 0.825 4 1.25 C8.56059594 2.60916065 13.14259943 3.87255365 17.75 5.0625 C18.98234375 5.38347656 20.2146875 5.70445312 21.484375 6.03515625 C34.17613242 8.88819397 46.50502711 9.31622095 59.45825195 9.26074219 C62.42875639 9.25003153 65.39865458 9.26068758 68.36914062 9.2734375 C78.05779718 9.27949714 87.45128655 8.98124933 97.02368164 7.42871094 C99.73627637 7.03798693 102.2654144 6.9198796 105 7 C105 8.32 105 9.64 105 11 C70.35 11 35.7 11 0 11 C0 7.37 0 3.74 0 0 Z " fill="#EFEEE9" transform="translate(120,349)"/>
<path d="M0 0 C10.23 0 20.46 0 31 0 C31 9 31 9 30 11 C25.05 11 20.1 11 15 11 C15 10.34 15 9.68 15 9 C10.05 9 5.1 9 0 9 C0 6.03 0 3.06 0 0 Z " fill="#FBFBFB" transform="translate(150,81)"/>
<path d="M0 0 C2 2 2 2 2.1953125 5.4765625 C2.18387695 6.85952633 2.15791258 8.24238057 2.125 9.625 C2.08375 12.05875 2.0425 14.4925 2 17 C-2.95 17 -7.9 17 -13 17 C-13 19.64 -13 22.28 -13 25 C-13.66 25 -14.32 25 -15 25 C-17.96009657 19.96663742 -17.96853406 14.65941914 -17 9 C-12.795748 1.72686887 -8.34430307 -0.4551438 0 0 Z " fill="#FCFDFD" transform="translate(133,28)"/>
<path d="M0 0 C20.13 0 40.26 0 61 0 C61 0.33 61 0.66 61 1 C55.72 1 50.44 1 45 1 C45 1.99 45 2.98 45 4 C40.05 4 35.1 4 30 4 C30 3.01 30 2.02 30 1 C25.05 1 20.1 1 15 1 C15 1.99 15 2.98 15 4 C10.38 4 5.76 4 1 4 C1 6.64 1 9.28 1 12 C29.71 12 58.42 12 88 12 C88 12.33 88 12.66 88 13 C58.96 13 29.92 13 0 13 C0 8.71 0 4.42 0 0 Z " fill="#F0E9CD" transform="translate(180,266)"/>
<path d="M0 0 C4.95 0 9.9 0 15 0 C15 4.95 15 9.9 15 15 C10.05 15 5.1 15 0 15 C0 10.05 0 5.1 0 0 Z " fill="#FFFFFF" transform="translate(345,345)"/>
<path d="M0 0 C4.95 0 9.9 0 15 0 C15 4.95 15 9.9 15 15 C10.05 15 5.1 15 0 15 C0 10.05 0 5.1 0 0 Z " fill="#EFEFEF" transform="translate(330,345)"/>
<path d="M0 0 C4.95 0 9.9 0 15 0 C15 4.95 15 9.9 15 15 C10.05 15 5.1 15 0 15 C0 10.05 0 5.1 0 0 Z " fill="#FFFFFF" transform="translate(315,345)"/>
<path d="M0 0 C4.95 0 9.9 0 15 0 C15 4.95 15 9.9 15 15 C10.05 15 5.1 15 0 15 C0 10.05 0 5.1 0 0 Z " fill="#EFEFEF" transform="translate(300,345)"/>
<path d="M0 0 C4.95 0 9.9 0 15 0 C15 4.95 15 9.9 15 15 C10.05 15 5.1 15 0 15 C0 10.05 0 5.1 0 0 Z " fill="#FFFFFF" transform="translate(285,345)"/>
<path d="M0 0 C4.95 0 9.9 0 15 0 C15 4.95 15 9.9 15 15 C10.05 15 5.1 15 0 15 C0 10.05 0 5.1 0 0 Z " fill="#EFEFEF" transform="translate(270,345)"/>
<path d="M0 0 C4.95 0 9.9 0 15 0 C15 4.95 15 9.9 15 15 C10.05 15 5.1 15 0 15 C0 10.05 0 5.1 0 0 Z " fill="#FFFFFF" transform="translate(255,345)"/>
<path d="M0 0 C4.95 0 9.9 0 15 0 C15 4.95 15 9.9 15 15 C10.05 15 5.1 15 0 15 C0 10.05 0 5.1 0 0 Z " fill="#EFEFEF" transform="translate(90,345)"/>
<path d="M0 0 C4.95 0 9.9 0 15 0 C15 4.95 15 9.9 15 15 C10.05 15 5.1 15 0 15 C0 10.05 0 5.1 0 0 Z " fill="#FFFFFF" transform="translate(75,345)"/>
<path d="M0 0 C4.95 0 9.9 0 15 0 C15 4.95 15 9.9 15 15 C10.05 15 5.1 15 0 15 C0 10.05 0 5.1 0 0 Z " fill="#EFEFEF" transform="translate(60,345)"/>
<path d="M0 0 C4.95 0 9.9 0 15 0 C15 4.95 15 9.9 15 15 C10.05 15 5.1 15 0 15 C0 10.05 0 5.1 0 0 Z " fill="#FFFFFF" transform="translate(45,345)"/>
<path d="M0 0 C4.95 0 9.9 0 15 0 C15 4.95 15 9.9 15 15 C10.05 15 5.1 15 0 15 C0 10.05 0 5.1 0 0 Z " fill="#EFEFEF" transform="translate(30,345)"/>
<path d="M0 0 C4.95 0 9.9 0 15 0 C15 4.95 15 9.9 15 15 C10.05 15 5.1 15 0 15 C0 10.05 0 5.1 0 0 Z " fill="#FFFFFF" transform="translate(15,345)"/>
<path d="M0 0 C4.95 0 9.9 0 15 0 C15 4.95 15 9.9 15 15 C10.05 15 5.1 15 0 15 C0 10.05 0 5.1 0 0 Z " fill="#EFEFEF" transform="translate(0,345)"/>
<path d="M0 0 C4.95 0 9.9 0 15 0 C15 4.95 15 9.9 15 15 C10.05 15 5.1 15 0 15 C0 10.05 0 5.1 0 0 Z " fill="#EFEFEF" transform="translate(345,330)"/>
<path d="M0 0 C4.95 0 9.9 0 15 0 C15 4.95 15 9.9 15 15 C10.05 15 5.1 15 0 15 C0 10.05 0 5.1 0 0 Z " fill="#FFFFFF" transform="translate(330,330)"/>
<path d="M0 0 C4.95 0 9.9 0 15 0 C15 4.95 15 9.9 15 15 C10.05 15 5.1 15 0 15 C0 10.05 0 5.1 0 0 Z " fill="#EFEFEF" transform="translate(315,330)"/>
<path d="M0 0 C4.95 0 9.9 0 15 0 C15 4.95 15 9.9 15 15 C10.05 15 5.1 15 0 15 C0 10.05 0 5.1 0 0 Z " fill="#FFFFFF" transform="translate(300,330)"/>
<path d="M0 0 C4.95 0 9.9 0 15 0 C15 4.95 15 9.9 15 15 C10.05 15 5.1 15 0 15 C0 10.05 0 5.1 0 0 Z " fill="#EFEFEF" transform="translate(285,330)"/>
<path d="M0 0 C4.95 0 9.9 0 15 0 C15 4.95 15 9.9 15 15 C10.05 15 5.1 15 0 15 C0 10.05 0 5.1 0 0 Z " fill="#FFFFFF" transform="translate(270,330)"/>
<path d="M0 0 C4.95 0 9.9 0 15 0 C15 4.95 15 9.9 15 15 C10.05 15 5.1 15 0 15 C0 10.05 0 5.1 0 0 Z " fill="#EFEFEF" transform="translate(75,330)"/>
<path d="M0 0 C4.95 0 9.9 0 15 0 C15 4.95 15 9.9 15 15 C10.05 15 5.1 15 0 15 C0 10.05 0 5.1 0 0 Z " fill="#FFFFFF" transform="translate(60,330)"/>
<path d="M0 0 C4.95 0 9.9 0 15 0 C15 4.95 15 9.9 15 15 C10.05 15 5.1 15 0 15 C0 10.05 0 5.1 0 0 Z " fill="#EFEFEF" transform="translate(45,330)"/>
<path d="M0 0 C4.95 0 9.9 0 15 0 C15 4.95 15 9.9 15 15 C10.05 15 5.1 15 0 15 C0 10.05 0 5.1 0 0 Z " fill="#FFFFFF" transform="translate(30,330)"/>
<path d="M0 0 C4.95 0 9.9 0 15 0 C15 4.95 15 9.9 15 15 C10.05 15 5.1 15 0 15 C0 10.05 0 5.1 0 0 Z " fill="#EFEFEF" transform="translate(15,330)"/>
<path d="M0 0 C4.95 0 9.9 0 15 0 C15 4.95 15 9.9 15 15 C10.05 15 5.1 15 0 15 C0 10.05 0 5.1 0 0 Z " fill="#FFFFFF" transform="translate(0,330)"/>
<path d="M0 0 C4.95 0 9.9 0 15 0 C15 4.95 15 9.9 15 15 C10.05 15 5.1 15 0 15 C0 10.05 0 5.1 0 0 Z " fill="#FFFFFF" transform="translate(345,315)"/>
<path d="M0 0 C4.95 0 9.9 0 15 0 C15 4.95 15 9.9 15 15 C10.05 15 5.1 15 0 15 C0 10.05 0 5.1 0 0 Z " fill="#EFEFEF" transform="translate(330,315)"/>
<path d="M0 0 C4.95 0 9.9 0 15 0 C15 4.95 15 9.9 15 15 C10.05 15 5.1 15 0 15 C0 10.05 0 5.1 0 0 Z " fill="#FFFFFF" transform="translate(315,315)"/>
<path d="M0 0 C4.95 0 9.9 0 15 0 C15 4.95 15 9.9 15 15 C10.05 15 5.1 15 0 15 C0 10.05 0 5.1 0 0 Z " fill="#EFEFEF" transform="translate(300,315)"/>
<path d="M0 0 C4.95 0 9.9 0 15 0 C15 4.95 15 9.9 15 15 C10.05 15 5.1 15 0 15 C0 10.05 0 5.1 0 0 Z " fill="#FFFFFF" transform="translate(285,315)"/>
<path d="M0 0 C4.95 0 9.9 0 15 0 C15 4.95 15 9.9 15 15 C10.05 15 5.1 15 0 15 C0 10.05 0 5.1 0 0 Z " fill="#EFEFEF" transform="translate(270,315)"/>
<path d="M0 0 C4.95 0 9.9 0 15 0 C15.09765625 10.83984375 15.09765625 10.83984375 15 14 C13.37229232 15.62770768 11.42709546 15.39546606 9.1875 15.625 C7.87845703 15.76808594 7.87845703 15.76808594 6.54296875 15.9140625 C4 16 4 16 0 15 C0 10.05 0 5.1 0 0 Z " fill="#FEFEFE" transform="translate(225,315)"/>
<path d="M0 0 C4.95 0 9.9 0 15 0 C15 4.95 15 9.9 15 15 C10.05 15 5.1 15 0 15 C0 10.05 0 5.1 0 0 Z " fill="#FFFFFF" transform="translate(75,315)"/>
<path d="M0 0 C4.95 0 9.9 0 15 0 C15 4.95 15 9.9 15 15 C10.05 15 5.1 15 0 15 C0 10.05 0 5.1 0 0 Z " fill="#EFEFEF" transform="translate(60,315)"/>
<path d="M0 0 C4.95 0 9.9 0 15 0 C15 4.95 15 9.9 15 15 C10.05 15 5.1 15 0 15 C0 10.05 0 5.1 0 0 Z " fill="#FFFFFF" transform="translate(45,315)"/>
<path d="M0 0 C4.95 0 9.9 0 15 0 C15 4.95 15 9.9 15 15 C10.05 15 5.1 15 0 15 C0 10.05 0 5.1 0 0 Z " fill="#EFEFEF" transform="translate(30,315)"/>
<path d="M0 0 C4.95 0 9.9 0 15 0 C15 4.95 15 9.9 15 15 C10.05 15 5.1 15 0 15 C0 10.05 0 5.1 0 0 Z " fill="#FFFFFF" transform="translate(15,315)"/>
<path d="M0 0 C4.95 0 9.9 0 15 0 C15 4.95 15 9.9 15 15 C10.05 15 5.1 15 0 15 C0 10.05 0 5.1 0 0 Z " fill="#EFEFEF" transform="translate(0,315)"/>
<path d="M0 0 C4.95 0 9.9 0 15 0 C15 4.95 15 9.9 15 15 C10.05 15 5.1 15 0 15 C0 10.05 0 5.1 0 0 Z " fill="#EFEFEF" transform="translate(345,300)"/>
<path d="M0 0 C4.95 0 9.9 0 15 0 C15 4.95 15 9.9 15 15 C10.05 15 5.1 15 0 15 C0 10.05 0 5.1 0 0 Z " fill="#FFFFFF" transform="translate(330,300)"/>
<path d="M0 0 C4.95 0 9.9 0 15 0 C15 4.95 15 9.9 15 15 C10.05 15 5.1 15 0 15 C0 10.05 0 5.1 0 0 Z " fill="#EFEFEF" transform="translate(315,300)"/>
<path d="M0 0 C4.95 0 9.9 0 15 0 C15 4.95 15 9.9 15 15 C10.05 15 5.1 15 0 15 C0 10.05 0 5.1 0 0 Z " fill="#FFFFFF" transform="translate(300,300)"/>
<path d="M0 0 C4.95 0 9.9 0 15 0 C15 4.95 15 9.9 15 15 C10.05 15 5.1 15 0 15 C0 10.05 0 5.1 0 0 Z " fill="#EFEFEF" transform="translate(285,300)"/>
<path d="M0 0 C4.95 0 9.9 0 15 0 C15 4.95 15 9.9 15 15 C10.05 15 5.1 15 0 15 C0 10.05 0 5.1 0 0 Z " fill="#FFFFFF" transform="translate(270,300)"/>
<path d="M0 0 C4.95 0 9.9 0 15 0 C15 4.95 15 9.9 15 15 C10.05 15 5.1 15 0 15 C0 10.05 0 5.1 0 0 Z " fill="#FFFFFF" transform="translate(60,300)"/>
<path d="M0 0 C4.95 0 9.9 0 15 0 C15 4.95 15 9.9 15 15 C10.05 15 5.1 15 0 15 C0 10.05 0 5.1 0 0 Z " fill="#EFEFEF" transform="translate(45,300)"/>
<path d="M0 0 C4.95 0 9.9 0 15 0 C15 4.95 15 9.9 15 15 C10.05 15 5.1 15 0 15 C0 10.05 0 5.1 0 0 Z " fill="#FFFFFF" transform="translate(30,300)"/>
<path d="M0 0 C4.95 0 9.9 0 15 0 C15 4.95 15 9.9 15 15 C10.05 15 5.1 15 0 15 C0 10.05 0 5.1 0 0 Z " fill="#EFEFEF" transform="translate(15,300)"/>
<path d="M0 0 C4.95 0 9.9 0 15 0 C15 4.95 15 9.9 15 15 C10.05 15 5.1 15 0 15 C0 10.05 0 5.1 0 0 Z " fill="#FFFFFF" transform="translate(0,300)"/>
<path d="M0 0 C4.95 0 9.9 0 15 0 C15 4.95 15 9.9 15 15 C10.05 15 5.1 15 0 15 C0 10.05 0 5.1 0 0 Z " fill="#FFFFFF" transform="translate(345,285)"/>
<path d="M0 0 C4.95 0 9.9 0 15 0 C15 4.95 15 9.9 15 15 C10.05 15 5.1 15 0 15 C0 10.05 0 5.1 0 0 Z " fill="#EFEFEF" transform="translate(330,285)"/>
<path d="M0 0 C4.95 0 9.9 0 15 0 C15 4.95 15 9.9 15 15 C10.05 15 5.1 15 0 15 C0 10.05 0 5.1 0 0 Z " fill="#EFEFEF" transform="translate(300,285)"/>
<path d="M0 0 C4.95 0 9.9 0 15 0 C15 4.95 15 9.9 15 15 C10.05 15 5.1 15 0 15 C0 10.05 0 5.1 0 0 Z " fill="#FFFFFF" transform="translate(285,285)"/>
<path d="M0 0 C4.95 0 9.9 0 15 0 C15 4.95 15 9.9 15 15 C10.05 15 5.1 15 0 15 C0 10.05 0 5.1 0 0 Z " fill="#EFEFEF" transform="translate(270,285)"/>
<path d="M0 0 C4.95 0 9.9 0 15 0 C15 4.95 15 9.9 15 15 C10.05 15 5.1 15 0 15 C0 10.05 0 5.1 0 0 Z " fill="#FFFFFF" transform="translate(75,285)"/>
<path d="M0 0 C4.95 0 9.9 0 15 0 C15 4.95 15 9.9 15 15 C10.05 15 5.1 15 0 15 C0 10.05 0 5.1 0 0 Z " fill="#EFEFEF" transform="translate(60,285)"/>
<path d="M0 0 C4.95 0 9.9 0 15 0 C15 4.95 15 9.9 15 15 C10.05 15 5.1 15 0 15 C0 10.05 0 5.1 0 0 Z " fill="#FFFFFF" transform="translate(45,285)"/>
<path d="M0 0 C4.95 0 9.9 0 15 0 C15 4.95 15 9.9 15 15 C10.05 15 5.1 15 0 15 C0 10.05 0 5.1 0 0 Z " fill="#EFEFEF" transform="translate(30,285)"/>
<path d="M0 0 C4.95 0 9.9 0 15 0 C15 4.95 15 9.9 15 15 C10.05 15 5.1 15 0 15 C0 10.05 0 5.1 0 0 Z " fill="#FFFFFF" transform="translate(15,285)"/>
<path d="M0 0 C4.95 0 9.9 0 15 0 C15 4.95 15 9.9 15 15 C10.05 15 5.1 15 0 15 C0 10.05 0 5.1 0 0 Z " fill="#EFEFEF" transform="translate(345,270)"/>
<path d="M0 0 C4.95 0 9.9 0 15 0 C15 4.95 15 9.9 15 15 C10.05 15 5.1 15 0 15 C0 10.05 0 5.1 0 0 Z " fill="#FFFFFF" transform="translate(330,270)"/>
<path d="M0 0 C4.95 0 9.9 0 15 0 C15 4.95 15 9.9 15 15 C10.05 15 5.1 15 0 15 C0 10.05 0 5.1 0 0 Z " fill="#FFFFFF" transform="translate(300,270)"/>
<path d="M0 0 C4.95 0 9.9 0 15 0 C15 4.95 15 9.9 15 15 C10.05 15 5.1 15 0 15 C0 10.05 0 5.1 0 0 Z " fill="#FFFFFF" transform="translate(270,270)"/>
<path d="M0 0 C4.95 0 9.9 0 15 0 C15 4.95 15 9.9 15 15 C10.05 15 5.1 15 0 15 C0 10.05 0 5.1 0 0 Z " fill="#EFEFEF" transform="translate(45,270)"/>
<path d="M0 0 C4.95 0 9.9 0 15 0 C15 4.95 15 9.9 15 15 C10.05 15 5.1 15 0 15 C0 10.05 0 5.1 0 0 Z " fill="#FFFFFF" transform="translate(30,270)"/>
<path d="M0 0 C4.95 0 9.9 0 15 0 C15 4.95 15 9.9 15 15 C10.05 15 5.1 15 0 15 C0 10.05 0 5.1 0 0 Z " fill="#EFEFEF" transform="translate(15,270)"/>
<path d="M0 0 C4.95 0 9.9 0 15 0 C15 4.95 15 9.9 15 15 C10.05 15 5.1 15 0 15 C0 10.05 0 5.1 0 0 Z " fill="#FFFFFF" transform="translate(0,270)"/>
<path d="M0 0 C4.95 0 9.9 0 15 0 C15 4.95 15 9.9 15 15 C10.05 15 5.1 15 0 15 C0 10.05 0 5.1 0 0 Z " fill="#FFFFFF" transform="translate(345,255)"/>
<path d="M0 0 C4.95 0 9.9 0 15 0 C15 4.95 15 9.9 15 15 C10.05 15 5.1 15 0 15 C0 10.05 0 5.1 0 0 Z " fill="#EFEFEF" transform="translate(0,255)"/>
<path d="M0 0 C4.95 0 9.9 0 15 0 C15 4.95 15 9.9 15 15 C10.05 15 5.1 15 0 15 C0 10.05 0 5.1 0 0 Z " fill="#EFEFEF" transform="translate(345,90)"/>
<path d="M0 0 C4.95 0 9.9 0 15 0 C15 4.95 15 9.9 15 15 C10.05 15 5.1 15 0 15 C0 10.05 0 5.1 0 0 Z " fill="#FFFFFF" transform="translate(0,90)"/>
<path d="M0 0 C4.95 0 9.9 0 15 0 C15 4.95 15 9.9 15 15 C10.05 15 5.1 15 0 15 C0 10.05 0 5.1 0 0 Z " fill="#FFFFFF" transform="translate(345,75)"/>
<path d="M0 0 C4.95 0 9.9 0 15 0 C15 4.95 15 9.9 15 15 C10.05 15 5.1 15 0 15 C0 10.05 0 5.1 0 0 Z " fill="#EFEFEF" transform="translate(330,75)"/>
<path d="M0 0 C4.95 0 9.9 0 15 0 C15 4.95 15 9.9 15 15 C10.05 15 5.1 15 0 15 C0 10.05 0 5.1 0 0 Z " fill="#FFFFFF" transform="translate(315,75)"/>
<path d="M0 0 C4.95 0 9.9 0 15 0 C15 4.95 15 9.9 15 15 C10.05 15 5.1 15 0 15 C0 10.05 0 5.1 0 0 Z " fill="#EFEFEF" transform="translate(300,75)"/>
<path d="M0 0 C4.95 0 9.9 0 15 0 C15 4.95 15 9.9 15 15 C10.05 15 5.1 15 0 15 C0 10.05 0 5.1 0 0 Z " fill="#EFEFEF" transform="translate(60,75)"/>
<path d="M0 0 C4.95 0 9.9 0 15 0 C15 4.95 15 9.9 15 15 C10.05 15 5.1 15 0 15 C0 10.05 0 5.1 0 0 Z " fill="#FFFFFF" transform="translate(45,75)"/>
<path d="M0 0 C4.95 0 9.9 0 15 0 C15 4.95 15 9.9 15 15 C10.05 15 5.1 15 0 15 C0 10.05 0 5.1 0 0 Z " fill="#FFFFFF" transform="translate(15,75)"/>
<path d="M0 0 C4.95 0 9.9 0 15 0 C15 4.95 15 9.9 15 15 C10.05 15 5.1 15 0 15 C0 10.05 0 5.1 0 0 Z " fill="#EFEFEF" transform="translate(0,75)"/>
<path d="M0 0 C4.95 0 9.9 0 15 0 C15 4.95 15 9.9 15 15 C10.05 15 5.1 15 0 15 C0 10.05 0 5.1 0 0 Z " fill="#EFEFEF" transform="translate(345,60)"/>
<path d="M0 0 C4.95 0 9.9 0 15 0 C15 4.95 15 9.9 15 15 C10.05 15 5.1 15 0 15 C0 10.05 0 5.1 0 0 Z " fill="#FFFFFF" transform="translate(330,60)"/>
<path d="M0 0 C4.95 0 9.9 0 15 0 C15 4.95 15 9.9 15 15 C10.05 15 5.1 15 0 15 C0 10.05 0 5.1 0 0 Z " fill="#EFEFEF" transform="translate(315,60)"/>
<path d="M0 0 C4.95 0 9.9 0 15 0 C15 4.95 15 9.9 15 15 C10.05 15 5.1 15 0 15 C0 10.05 0 5.1 0 0 Z " fill="#FFFFFF" transform="translate(300,60)"/>
<path d="M0 0 C4.95 0 9.9 0 15 0 C15 4.95 15 9.9 15 15 C10.05 15 5.1 15 0 15 C0 10.05 0 5.1 0 0 Z " fill="#EFEFEF" transform="translate(285,60)"/>
<path d="M0 0 C4.95 0 9.9 0 15 0 C15 4.95 15 9.9 15 15 C10.05 15 5.1 15 0 15 C0 10.05 0 5.1 0 0 Z " fill="#FFFFFF" transform="translate(270,60)"/>
<path d="M0 0 C4.95 0 9.9 0 15 0 C15 4.95 15 9.9 15 15 C10.05 15 5.1 15 0 15 C0 10.05 0 5.1 0 0 Z " fill="#EFEFEF" transform="translate(75,60)"/>
<path d="M0 0 C4.95 0 9.9 0 15 0 C15 4.95 15 9.9 15 15 C10.05 15 5.1 15 0 15 C0 10.05 0 5.1 0 0 Z " fill="#FFFFFF" transform="translate(60,60)"/>
<path d="M0 0 C4.95 0 9.9 0 15 0 C15 4.95 15 9.9 15 15 C10.05 15 5.1 15 0 15 C0 10.05 0 5.1 0 0 Z " fill="#EFEFEF" transform="translate(45,60)"/>
<path d="M0 0 C4.95 0 9.9 0 15 0 C15 4.95 15 9.9 15 15 C10.05 15 5.1 15 0 15 C0 10.05 0 5.1 0 0 Z " fill="#FFFFFF" transform="translate(30,60)"/>
<path d="M0 0 C4.95 0 9.9 0 15 0 C15 4.95 15 9.9 15 15 C10.05 15 5.1 15 0 15 C0 10.05 0 5.1 0 0 Z " fill="#EFEFEF" transform="translate(15,60)"/>
<path d="M0 0 C4.95 0 9.9 0 15 0 C15 4.95 15 9.9 15 15 C10.05 15 5.1 15 0 15 C0 10.05 0 5.1 0 0 Z " fill="#FFFFFF" transform="translate(0,60)"/>
<path d="M0 0 C4.95 0 9.9 0 15 0 C15 4.95 15 9.9 15 15 C10.05 15 5.1 15 0 15 C0 10.05 0 5.1 0 0 Z " fill="#FFFFFF" transform="translate(345,45)"/>
<path d="M0 0 C4.95 0 9.9 0 15 0 C15 4.95 15 9.9 15 15 C10.05 15 5.1 15 0 15 C0 10.05 0 5.1 0 0 Z " fill="#EFEFEF" transform="translate(330,45)"/>
<path d="M0 0 C4.95 0 9.9 0 15 0 C15 4.95 15 9.9 15 15 C10.05 15 5.1 15 0 15 C0 10.05 0 5.1 0 0 Z " fill="#FFFFFF" transform="translate(315,45)"/>
<path d="M0 0 C4.95 0 9.9 0 15 0 C15 4.95 15 9.9 15 15 C10.05 15 5.1 15 0 15 C0 10.05 0 5.1 0 0 Z " fill="#EFEFEF" transform="translate(300,45)"/>
<path d="M0 0 C4.95 0 9.9 0 15 0 C15 4.95 15 9.9 15 15 C10.05 15 5.1 15 0 15 C0 10.05 0 5.1 0 0 Z " fill="#FFFFFF" transform="translate(285,45)"/>
<path d="M0 0 C4.95 0 9.9 0 15 0 C15 4.95 15 9.9 15 15 C10.05 15 5.1 15 0 15 C0 10.05 0 5.1 0 0 Z " fill="#EFEFEF" transform="translate(60,45)"/>
<path d="M0 0 C4.95 0 9.9 0 15 0 C15 4.95 15 9.9 15 15 C10.05 15 5.1 15 0 15 C0 10.05 0 5.1 0 0 Z " fill="#FFFFFF" transform="translate(45,45)"/>
<path d="M0 0 C4.95 0 9.9 0 15 0 C15 4.95 15 9.9 15 15 C10.05 15 5.1 15 0 15 C0 10.05 0 5.1 0 0 Z " fill="#EFEFEF" transform="translate(30,45)"/>
<path d="M0 0 C4.95 0 9.9 0 15 0 C15 4.95 15 9.9 15 15 C10.05 15 5.1 15 0 15 C0 10.05 0 5.1 0 0 Z " fill="#FFFFFF" transform="translate(15,45)"/>
<path d="M0 0 C4.95 0 9.9 0 15 0 C15 4.95 15 9.9 15 15 C10.05 15 5.1 15 0 15 C0 10.05 0 5.1 0 0 Z " fill="#EFEFEF" transform="translate(0,45)"/>
<path d="M0 0 C4.95 0 9.9 0 15 0 C15 4.95 15 9.9 15 15 C10.05 15 5.1 15 0 15 C0 10.05 0 5.1 0 0 Z " fill="#EFEFEF" transform="translate(345,30)"/>
<path d="M0 0 C4.95 0 9.9 0 15 0 C15 4.95 15 9.9 15 15 C10.05 15 5.1 15 0 15 C0 10.05 0 5.1 0 0 Z " fill="#FFFFFF" transform="translate(330,30)"/>
<path d="M0 0 C4.95 0 9.9 0 15 0 C15 4.95 15 9.9 15 15 C10.05 15 5.1 15 0 15 C0 10.05 0 5.1 0 0 Z " fill="#EFEFEF" transform="translate(315,30)"/>
<path d="M0 0 C4.95 0 9.9 0 15 0 C15 4.95 15 9.9 15 15 C10.05 15 5.1 15 0 15 C0 10.05 0 5.1 0 0 Z " fill="#FFFFFF" transform="translate(300,30)"/>
<path d="M0 0 C4.95 0 9.9 0 15 0 C15 4.95 15 9.9 15 15 C10.05 15 5.1 15 0 15 C0 10.05 0 5.1 0 0 Z " fill="#EFEFEF" transform="translate(285,30)"/>
<path d="M0 0 C4.95 0 9.9 0 15 0 C15 4.95 15 9.9 15 15 C10.05 15 5.1 15 0 15 C0 10.05 0 5.1 0 0 Z " fill="#FFFFFF" transform="translate(270,30)"/>
<path d="M0 0 C4.95 0 9.9 0 15 0 C15 4.95 15 9.9 15 15 C10.05 15 5.1 15 0 15 C0 10.05 0 5.1 0 0 Z " fill="#EFEFEF" transform="translate(75,30)"/>
<path d="M0 0 C4.95 0 9.9 0 15 0 C15 4.95 15 9.9 15 15 C10.05 15 5.1 15 0 15 C0 10.05 0 5.1 0 0 Z " fill="#FFFFFF" transform="translate(60,30)"/>
<path d="M0 0 C4.95 0 9.9 0 15 0 C15 4.95 15 9.9 15 15 C10.05 15 5.1 15 0 15 C0 10.05 0 5.1 0 0 Z " fill="#EFEFEF" transform="translate(45,30)"/>
<path d="M0 0 C4.95 0 9.9 0 15 0 C15 4.95 15 9.9 15 15 C10.05 15 5.1 15 0 15 C0 10.05 0 5.1 0 0 Z " fill="#FFFFFF" transform="translate(30,30)"/>
<path d="M0 0 C4.95 0 9.9 0 15 0 C15 4.95 15 9.9 15 15 C10.05 15 5.1 15 0 15 C0 10.05 0 5.1 0 0 Z " fill="#EFEFEF" transform="translate(15,30)"/>
<path d="M0 0 C4.95 0 9.9 0 15 0 C15 4.95 15 9.9 15 15 C10.05 15 5.1 15 0 15 C0 10.05 0 5.1 0 0 Z " fill="#FFFFFF" transform="translate(0,30)"/>
<path d="M0 0 C4.95 0 9.9 0 15 0 C15 4.95 15 9.9 15 15 C10.05 15 5.1 15 0 15 C0 10.05 0 5.1 0 0 Z " fill="#FFFFFF" transform="translate(345,15)"/>
<path d="M0 0 C4.95 0 9.9 0 15 0 C15 4.95 15 9.9 15 15 C10.05 15 5.1 15 0 15 C0 10.05 0 5.1 0 0 Z " fill="#EFEFEF" transform="translate(330,15)"/>
<path d="M0 0 C4.95 0 9.9 0 15 0 C15 4.95 15 9.9 15 15 C10.05 15 5.1 15 0 15 C0 10.05 0 5.1 0 0 Z " fill="#FFFFFF" transform="translate(315,15)"/>
<path d="M0 0 C4.95 0 9.9 0 15 0 C15 4.95 15 9.9 15 15 C10.05 15 5.1 15 0 15 C0 10.05 0 5.1 0 0 Z " fill="#EFEFEF" transform="translate(300,15)"/>
<path d="M0 0 C4.95 0 9.9 0 15 0 C15 4.95 15 9.9 15 15 C10.05 15 5.1 15 0 15 C0 10.05 0 5.1 0 0 Z " fill="#FFFFFF" transform="translate(285,15)"/>
<path d="M0 0 C4.95 0 9.9 0 15 0 C15 4.95 15 9.9 15 15 C10.05 15 5.1 15 0 15 C0 10.05 0 5.1 0 0 Z " fill="#EFEFEF" transform="translate(270,15)"/>
<path d="M0 0 C4.95 0 9.9 0 15 0 C15 4.95 15 9.9 15 15 C10.05 15 5.1 15 0 15 C0 10.05 0 5.1 0 0 Z " fill="#FFFFFF" transform="translate(75,15)"/>
<path d="M0 0 C4.95 0 9.9 0 15 0 C15 4.95 15 9.9 15 15 C10.05 15 5.1 15 0 15 C0 10.05 0 5.1 0 0 Z " fill="#EFEFEF" transform="translate(60,15)"/>
<path d="M0 0 C4.95 0 9.9 0 15 0 C15 4.95 15 9.9 15 15 C10.05 15 5.1 15 0 15 C0 10.05 0 5.1 0 0 Z " fill="#FFFFFF" transform="translate(45,15)"/>
<path d="M0 0 C4.95 0 9.9 0 15 0 C15 4.95 15 9.9 15 15 C10.05 15 5.1 15 0 15 C0 10.05 0 5.1 0 0 Z " fill="#EFEFEF" transform="translate(30,15)"/>
<path d="M0 0 C4.95 0 9.9 0 15 0 C15 4.95 15 9.9 15 15 C10.05 15 5.1 15 0 15 C0 10.05 0 5.1 0 0 Z " fill="#FFFFFF" transform="translate(15,15)"/>
<path d="M0 0 C4.95 0 9.9 0 15 0 C15 4.95 15 9.9 15 15 C10.05 15 5.1 15 0 15 C0 10.05 0 5.1 0 0 Z " fill="#EFEFEF" transform="translate(0,15)"/>
<path d="M0 0 C4.95 0 9.9 0 15 0 C15 4.95 15 9.9 15 15 C10.05 15 5.1 15 0 15 C0 10.05 0 5.1 0 0 Z " fill="#EFEFEF" transform="translate(345,0)"/>
<path d="M0 0 C4.95 0 9.9 0 15 0 C15 4.95 15 9.9 15 15 C10.05 15 5.1 15 0 15 C0 10.05 0 5.1 0 0 Z " fill="#FFFFFF" transform="translate(330,0)"/>
<path d="M0 0 C4.95 0 9.9 0 15 0 C15 4.95 15 9.9 15 15 C10.05 15 5.1 15 0 15 C0 10.05 0 5.1 0 0 Z " fill="#EFEFEF" transform="translate(315,0)"/>
<path d="M0 0 C4.95 0 9.9 0 15 0 C15 4.95 15 9.9 15 15 C10.05 15 5.1 15 0 15 C0 10.05 0 5.1 0 0 Z " fill="#FFFFFF" transform="translate(300,0)"/>
<path d="M0 0 C4.95 0 9.9 0 15 0 C15 4.95 15 9.9 15 15 C10.05 15 5.1 15 0 15 C0 10.05 0 5.1 0 0 Z " fill="#EFEFEF" transform="translate(285,0)"/>
<path d="M0 0 C4.95 0 9.9 0 15 0 C15 4.95 15 9.9 15 15 C10.05 15 5.1 15 0 15 C0 10.05 0 5.1 0 0 Z " fill="#FFFFFF" transform="translate(270,0)"/>
<path d="M0 0 C4.95 0 9.9 0 15 0 C15 4.95 15 9.9 15 15 C10.05 15 5.1 15 0 15 C0 10.05 0 5.1 0 0 Z " fill="#EFEFEF" transform="translate(255,0)"/>
<path d="M0 0 C4.95 0 9.9 0 15 0 C15 4.95 15 9.9 15 15 C10.05 15 5.1 15 0 15 C0 10.05 0 5.1 0 0 Z " fill="#FFFFFF" transform="translate(90,0)"/>
<path d="M0 0 C4.95 0 9.9 0 15 0 C15 4.95 15 9.9 15 15 C10.05 15 5.1 15 0 15 C0 10.05 0 5.1 0 0 Z " fill="#EFEFEF" transform="translate(75,0)"/>
<path d="M0 0 C4.95 0 9.9 0 15 0 C15 4.95 15 9.9 15 15 C10.05 15 5.1 15 0 15 C0 10.05 0 5.1 0 0 Z " fill="#FFFFFF" transform="translate(60,0)"/>
<path d="M0 0 C4.95 0 9.9 0 15 0 C15 4.95 15 9.9 15 15 C10.05 15 5.1 15 0 15 C0 10.05 0 5.1 0 0 Z " fill="#EFEFEF" transform="translate(45,0)"/>
<path d="M0 0 C4.95 0 9.9 0 15 0 C15 4.95 15 9.9 15 15 C10.05 15 5.1 15 0 15 C0 10.05 0 5.1 0 0 Z " fill="#FFFFFF" transform="translate(30,0)"/>
<path d="M0 0 C4.95 0 9.9 0 15 0 C15 4.95 15 9.9 15 15 C10.05 15 5.1 15 0 15 C0 10.05 0 5.1 0 0 Z " fill="#FFFFFF" transform="translate(0,0)"/>
<path d="M0 0 C0.33 0 0.66 0 1 0 C1.03963867 0.54712646 1.07927734 1.09425293 1.12011719 1.65795898 C2.30934629 17.38896328 4.40868327 32.24110594 10.265625 46.99609375 C11 49 11 49 11 51 C7.37 51 3.74 51 0 51 C0 34.17 0 17.34 0 0 Z " fill="#E9ECF0" transform="translate(0,189)"/>
<path d="M0 0 C0 1.65 0 3.3 0 5 C-4.95 5 -9.9 5 -15 5 C-15 4.01 -15 3.02 -15 2 C-19.95 2 -24.9 2 -30 2 C-30 2.99 -30 3.98 -30 5 C-34.95 5 -39.9 5 -45 5 C-45 4.01 -45 3.02 -45 2 C-49.95 2 -54.9 2 -60 2 C-60 2.99 -60 3.98 -60 5 C-64.95 5 -69.9 5 -75 5 C-74.67 3.68 -74.34 2.36 -74 1 C-64.64690944 0.8694532 -55.29381682 0.73905514 -45.94072151 0.60884857 C-41.59801253 0.54838802 -37.25530428 0.48787565 -32.91259766 0.42724609 C-28.72401978 0.36877025 -24.53544005 0.3104289 -20.34685898 0.25218201 C-18.74642749 0.22990235 -17.14599668 0.20757369 -15.54556656 0.18519592 C-13.30918807 0.15393436 -11.07280725 0.12284482 -8.83642578 0.09179688 C-7.56179474 0.07403198 -6.2871637 0.05626709 -4.97390747 0.03796387 C-3.3160251 0.01679992 -1.65801745 0 0 0 Z " fill="#EFEDE6" transform="translate(315,265)"/>
<path d="M0 0 C16.83 0 33.66 0 51 0 C51 2.64 51 5.28 51 8 C47.62818895 9.12393702 47.18534393 8.92044548 44.0390625 7.6953125 C38.574879 5.75469945 33.08897918 4.78901774 27.375 3.875 C25.80298828 3.61734863 25.80298828 3.61734863 24.19921875 3.35449219 C16.13701308 2.07772837 8.15869821 1.26149674 0 1 C0 0.67 0 0.34 0 0 Z " fill="#E8ECEF" transform="translate(189,0)"/>
<path d="M0 0 C0.33 0 0.66 0 1 0 C1.05100661 6.79521452 1.08586157 13.59037906 1.10986328 20.38574219 C1.11987684 22.69402919 1.13349163 25.00230364 1.15087891 27.31054688 C1.17533227 30.64195872 1.18652989 33.9732018 1.1953125 37.3046875 C1.20563507 38.32488983 1.21595764 39.34509216 1.22659302 40.39620972 C1.22758436 46.82916599 0.51595479 52.74678048 -1 59 C-3.64 59 -6.28 59 -9 59 C-9 54.05 -9 49.1 -9 44 C-6.03 44 -3.06 44 0 44 C0 29.48 0 14.96 0 0 Z " fill="#EFEBD9" transform="translate(279,91)"/>
<path d="M0 0 C0.33 0 0.66 0 1 0 C1 11.22 1 22.44 1 34 C-2.63 34 -6.26 34 -10 34 C-8.68930626 29.93503739 -7.19270287 26.00850509 -5.5625 22.0625 C-2.73915767 14.82872941 -1.29851045 7.63270779 0 0 Z " fill="#FEFDFA" transform="translate(359,206)"/>
<path d="M0 0 C3.26852085 1.84288941 5.76231388 3.98330633 8 7 C8.9336358 10.69978016 9.11007799 14.19542955 9 18 C8.67 17.34 8.34 16.68 8 16 C4.37 16 0.74 16 -3 16 C-3 11.05 -3 6.1 -3 1 C-4.32 0.67 -5.64 0.34 -7 0 C-4.25745522 -1.37127239 -2.9195284 -0.82057751 0 0 Z " fill="#EDEEEF" transform="translate(138,29)"/>
<path d="M0 0 C9.9 0 19.8 0 30 0 C30 0.66 30 1.32 30 2 C29.39671875 2.04898438 28.7934375 2.09796875 28.171875 2.1484375 C27.37265625 2.22320312 26.5734375 2.29796875 25.75 2.375 C24.56664062 2.47941406 24.56664062 2.47941406 23.359375 2.5859375 C20.88112124 3.02086283 19.20904059 3.82358785 17 5 C15.52987275 5.5259847 14.05008231 6.02562367 12.5625 6.5 C10.02744444 7.3200426 7.59033708 8.1692086 5.125 9.1875 C3 10 3 10 0 10 C0 6.7 0 3.4 0 0 Z " fill="#F9FAFC" transform="translate(30,90)"/>
<path d="M0 0 C3.63 0 7.26 0 11 0 C11 4.95 11 9.9 11 15 C14.96 15 18.92 15 23 15 C19.26442554 17.49038297 16.32482118 17.75415031 12 17 C7.03529973 14.86217533 3.07579006 12.12842251 1 7 C0.3125 3.1875 0.3125 3.1875 0 0 Z " fill="#EFEDE7" transform="translate(214,315)"/>
<path d="M0 0 C0.66 0 1.32 0 2 0 C2 1.98 2 3.96 2 6 C6.29 6 10.58 6 15 6 C15 8.97 15 11.94 15 15 C10.05 15 5.1 15 0 15 C0 10.05 0 5.1 0 0 Z " fill="#EFEFEF" transform="translate(90,75)"/>
<path d="M0 0 C3.3 0 6.6 0 10 0 C10 10.89 10 21.78 10 33 C9.67 33 9.34 33 9 33 C8.87044922 32.10474609 8.87044922 32.10474609 8.73828125 31.19140625 C7.74027368 25.0293962 6.26480123 19.10367491 4.5 13.125 C4.28641846 12.39998291 4.07283691 11.67496582 3.8527832 10.92797852 C2.73283134 7.20501186 1.51825689 3.58477322 0 0 Z " fill="#EFEEE9" transform="translate(350,120)"/>
<path d="M0 0 C1.32 0.33 2.64 0.66 4 1 C4 5.95 4 10.9 4 16 C-0.95 16 -5.9 16 -11 16 C-10.34 14.68 -9.68 13.36 -9 12 C-8.34 12 -7.68 12 -7 12 C-7 11.34 -7 10.68 -7 10 C-6.34 10 -5.68 10 -5 10 C-4.731875 9.46375 -4.46375 8.9275 -4.1875 8.375 C-2.79166667 5.58333333 -1.39583333 2.79166667 0 0 Z " fill="#EFEEEA" transform="translate(266,329)"/>
<path d="M0 0 C4.95 0 9.9 0 15 0 C13.11129324 4.7217669 12.25435582 6.09089294 8.625 9.25 C7.85414063 9.93578125 7.08328125 10.6215625 6.2890625 11.328125 C4 13 4 13 0 14 C0 9.38 0 4.76 0 0 Z " fill="#FDFCF9" transform="translate(255,165)"/>
<path d="M0 0 C2.97 0 5.94 0 9 0 C9 4.95 9 9.9 9 15 C6.03 15 3.06 15 0 15 C0 10.05 0 5.1 0 0 Z " fill="#FFFFFF" transform="translate(270,120)"/>
<path d="M0 0 C4.95 0 9.9 0 15 0 C15 2.97 15 5.94 15 9 C10.05 9 5.1 9 0 9 C0 6.03 0 3.06 0 0 Z " fill="#EFEFEF" transform="translate(150,81)"/>
<path d="M0 0 C4.95 0 9.9 0 15 0 C15 2.97 15 5.94 15 9 C10.05 9 5.1 9 0 9 C0 6.03 0 3.06 0 0 Z " fill="#EFEFEF" transform="translate(120,81)"/>
<path d="M0 0 C0 1.32 0 2.64 0 4 C-24.75 4 -49.5 4 -75 4 C-75.33 3.01 -75.66 2.02 -76 1 C-74.98972748 1.1053582 -74.98972748 1.1053582 -73.95904541 1.21284485 C-67.49168898 1.84966865 -61.1059262 2.15975797 -54.609375 2.16796875 C-53.6616925 2.17129715 -52.71401001 2.17462555 -51.73760986 2.17805481 C-49.74776692 2.1830776 -47.75791569 2.18546459 -45.76806641 2.18530273 C-42.77101331 2.1874847 -39.77433182 2.20567844 -36.77734375 2.22460938 C-27.03338031 2.25215465 -17.59685676 1.99947359 -7.96972656 0.4309082 C-5.25887315 0.03756257 -2.73319402 -0.08036937 0 0 Z " fill="#F2F0E7" transform="translate(225,356)"/>
<path d="M0 0 C0.66 0.33 1.32 0.66 2 1 C1.67 5.29 1.34 9.58 1 14 C-3.95 14.33 -8.9 14.66 -14 15 C-9.96068487 8.26780812 -6.42990686 4.32782193 0 0 Z " fill="#FCFCFD" transform="translate(104,181)"/>
<path d="M0 0 C4.95 0 9.9 0 15 0 C15 2.64 15 5.28 15 8 C10.05 8 5.1 8 0 8 C0 5.36 0 2.72 0 0 Z " fill="#FFFFFF" transform="translate(240,270)"/>
<path d="M0 0 C4.95 0 9.9 0 15 0 C15 2.64 15 5.28 15 8 C10.05 8 5.1 8 0 8 C0 5.36 0 2.72 0 0 Z " fill="#FFFFFF" transform="translate(210,270)"/>
<path d="M0 0 C2.64 0 5.28 0 8 0 C8 4.95 8 9.9 8 15 C5.36 15 2.72 15 0 15 C0 10.05 0 5.1 0 0 Z " fill="#FFFFFF" transform="translate(82,225)"/>
<path d="M0 0 C3.63 0 7.26 0 11 0 C11.5 2.5625 11.5 2.5625 11 6 C8.64570062 8.74942655 6.04048859 11.03501885 3 13 C2.01 13 1.02 13 0 13 C0 8.71 0 4.42 0 0 Z " fill="#FCFDFD" transform="translate(135,45)"/>
<path d="M0 0 C4.62 0 9.24 0 14 0 C14 2.64 14 5.28 14 8 C9.38 8 4.76 8 0 8 C0 5.36 0 2.72 0 0 Z " fill="#FFFFFF" transform="translate(181,270)"/>
<path d="M0 0 C0 3.3 0 6.6 0 10 C-4.95 10 -9.9 10 -15 10 C-15 8.35 -15 6.7 -15 5 C-12.8765984 4.16260219 -10.7512272 3.33019717 -8.625 2.5 C-7.44164062 2.0359375 -6.25828125 1.571875 -5.0390625 1.09375 C-2 0 -2 0 0 0 Z " fill="#FEFDFB" transform="translate(330,260)"/>
<path d="M0 0 C4.95 0 9.9 0 15 0 C15 1.98 15 3.96 15 6 C13.0636296 6.50435694 11.12585854 7.00333874 9.1875 7.5 C8.10855469 7.7784375 7.02960938 8.056875 5.91796875 8.34375 C3 9 3 9 0 9 C0 6.03 0 3.06 0 0 Z " fill="#FEFEFE" transform="translate(120,180)"/>
<path d="M0 0 C0.99 0 1.98 0 3 0 C3 4.29 3 8.58 3 13 C-0.3 13 -3.6 13 -7 13 C-6.74126898 8.60157266 -6.43893111 6.50477078 -3.5 3.125 C-2.2625 2.073125 -2.2625 2.073125 -1 1 C-0.67 0.67 -0.34 0.34 0 0 Z " fill="#FEFDFA" transform="translate(222,302)"/>
<path d="M0 0 C0 2.64 0 5.28 0 8 C-4.95 8 -9.9 8 -15 8 C-15 6.35 -15 4.7 -15 3 C-13.0636296 2.49564306 -11.12585854 1.99666126 -9.1875 1.5 C-8.10855469 1.2215625 -7.02960938 0.943125 -5.91796875 0.65625 C-3 0 -3 0 0 0 Z " fill="#FDFDFA" transform="translate(240,352)"/>
<path d="M0 0 C9.24 0 18.48 0 28 0 C28 0.33 28 0.66 28 1 C23.71 1 19.42 1 15 1 C15 2.32 15 3.64 15 5 C10.05 5 5.1 5 0 5 C0 3.35 0 1.7 0 0 Z " fill="#FFFFFF" transform="translate(195,175)"/>
<path d="M0 0 C1.98 0 3.96 0 6 0 C5.80664062 0.76699219 5.61328125 1.53398437 5.4140625 2.32421875 C2.87776528 13.13487177 1.88106311 23.9495388 1 35 C0.67 35 0.34 35 0 35 C0 23.45 0 11.9 0 0 Z " fill="#E6EAEE" transform="translate(0,135)"/>
<path d="M0 0 C4.95 0 9.9 0 15 0 C15 1.65 15 3.3 15 5 C10.03926578 6.32286246 5.08888488 6.08893197 0 6 C0 4.02 0 2.04 0 0 Z " fill="#EFEDE7" transform="translate(135,180)"/>
<path d="M0 0 C2.64 0 5.28 0 8 0 C6.68 4.95 5.36 9.9 4 15 C2.68 15 1.36 15 0 15 C0 10.05 0 5.1 0 0 Z " fill="#FEFEFE" transform="translate(90,210)"/>
<path d="M0 0 C4.95 0 9.9 0 15 0 C15 1.65 15 3.3 15 5 C9.62374766 5.84888195 5.34629602 6.0024305 0 5 C0 3.35 0 1.7 0 0 Z " fill="#EFEEEC" transform="translate(165,180)"/>
<path d="M0 0 C0.99 0 1.98 0 3 0 C4.65 4.95 6.3 9.9 8 15 C5.36 15 2.72 15 0 15 C0 10.05 0 5.1 0 0 Z " fill="#EFEEE9" transform="translate(90,315)"/>
<path d="M0 0 C4.95 0 9.9 0 15 0 C15 1.65 15 3.3 15 5 C10.05 5 5.1 5 0 5 C0 3.35 0 1.7 0 0 Z " fill="#FFFFFF" transform="translate(210,180)"/>
<path d="M0 0 C4.95 0 9.9 0 15 0 C15 1.65 15 3.3 15 5 C10.05 5 5.1 5 0 5 C0 3.35 0 1.7 0 0 Z " fill="#EFEFEF" transform="translate(195,180)"/>
<path d="M0 0 C4.95 0 9.9 0 15 0 C15 1.65 15 3.3 15 5 C10.05 5 5.1 5 0 5 C0 3.35 0 1.7 0 0 Z " fill="#FFFFFF" transform="translate(180,180)"/>
<path d="M0 0 C4.95 0 9.9 0 15 0 C15 1.65 15 3.3 15 5 C10.05 5 5.1 5 0 5 C0 3.35 0 1.7 0 0 Z " fill="#FFFFFF" transform="translate(150,180)"/>
<path d="M0 0 C2.31 0 4.62 0 7 0 C6.30121844 4.47220196 5.08361385 8.96633729 3 13 C2.01 13.66 1.02 14.32 0 15 C0 10.05 0 5.1 0 0 Z " fill="#FDFCF8" transform="translate(270,150)"/>
<path d="M0 0 C3.07469025 0.43924146 5.88031785 0.95744635 8.8125 2 C12.84709134 3.26575415 16.80065684 3.6453888 21 4 C21 4.33 21 4.66 21 5 C16.34462644 5.92092281 11.85314567 6.12205997 7.125 6.0625 C6.09246094 6.05573242 6.09246094 6.05573242 5.0390625 6.04882812 C3.35933665 6.03716336 1.67965625 6.01923271 0 6 C0 4.02 0 2.04 0 0 Z " fill="#E7EBED" transform="translate(30,264)"/>
<path d="M0 0 C0.99 0 1.98 0 3 0 C3 1.98 3 3.96 3 6 C-1.95 6 -6.9 6 -12 6 C-12 4.68 -12 3.36 -12 2 C-6.06 1.505 -6.06 1.505 0 1 C0 0.67 0 0.34 0 0 Z " fill="#EDEEEE" transform="translate(222,174)"/>
<path d="M0 0 C1.75070517 0.11470137 3.50057536 0.24219028 5.25 0.375 C6.22453125 0.44460938 7.1990625 0.51421875 8.203125 0.5859375 C10.89633189 0.98465249 12.66963279 1.63507063 15 3 C15 3.66 15 4.32 15 5 C10.05 5 5.1 5 0 5 C0 3.35 0 1.7 0 0 Z " fill="#FDFCF7" transform="translate(135,355)"/>
<path d="M0 0 C4.95 0 9.9 0 15 0 C15 1.32 15 2.64 15 4 C10.05 4 5.1 4 0 4 C0 2.68 0 1.36 0 0 Z " fill="#EFEFEF" transform="translate(180,176)"/>
<path d="M0 0 C4.95 0 9.9 0 15 0 C15 1.32 15 2.64 15 4 C10.05 4 5.1 4 0 4 C0 2.68 0 1.36 0 0 Z " fill="#EFEFEF" transform="translate(150,176)"/>
<path d="M0 0 C10.89 0 21.78 0 33 0 C33 0.33 33 0.66 33 1 C32.28457031 1.05534912 31.56914062 1.11069824 30.83203125 1.16772461 C27.55453439 1.42238781 24.27726902 1.679922 21 1.9375 C19.87464844 2.02451172 18.74929687 2.11152344 17.58984375 2.20117188 C11.70226664 2.66598059 5.85229246 3.2039161 0 4 C0 2.68 0 1.36 0 0 Z " fill="#E4E9EE" transform="translate(135,0)"/>
<path d="M0 0 C0.87458862 0.09849243 0.87458862 0.09849243 1.7668457 0.19897461 C10.89410271 1.13358513 20.02200433 1.33445629 29.1875 1.5625 C30.82357626 1.60579788 32.45964409 1.6494153 34.09570312 1.69335938 C38.06371468 1.79925341 42.03181481 1.90083523 46 2 C46 2.33 46 2.66 46 3 C31.15 3 16.3 3 1 3 C0.67 2.01 0.34 1.02 0 0 Z " fill="#F1E9C8" transform="translate(149,357)"/>
<path d="M0 0 C4.95 0 9.9 0 15 0 C15 2.31 15 4.62 15 7 C14.33613281 6.72285156 13.67226563 6.44570312 12.98828125 6.16015625 C12.10527344 5.79792969 11.22226562 5.43570313 10.3125 5.0625 C9.44238281 4.70285156 8.57226562 4.34320313 7.67578125 3.97265625 C5.11820735 3.0429688 2.6778677 2.45837375 0 2 C0 1.34 0 0.68 0 0 Z " fill="#EFEDE5" transform="translate(315,90)"/>
<path d="M0 0 C0.33 0 0.66 0 1 0 C1 4.29 1 8.58 1 13 C-0.65 13 -2.3 13 -4 13 C-4.33 14.32 -4.66 15.64 -5 17 C-5.7342166 10.24520726 -3.27591952 5.81475715 0 0 Z " fill="#F6F8FA" transform="translate(89,197)"/>
<path d="M0 0 C0 7.26 0 14.52 0 22 C-0.33 22 -0.66 22 -1 22 C-1 20.02 -1 18.04 -1 16 C-1.66 16 -2.32 16 -3 16 C-3 11.05 -3 6.1 -3 1 C-1 0 -1 0 0 0 Z " fill="#FFFFFF" transform="translate(93,59)"/>
<path d="M0 0 C4.19761254 2.09880627 5.06026364 2.92655364 7 7 C7 8.32 7 9.64 7 11 C5.02 11 3.04 11 1 11 C0.67 7.37 0.34 3.74 0 0 Z " fill="#FCFBF6" transform="translate(239,304)"/>
<path d="M0 0 C2.97 0 5.94 0 9 0 C8.06862408 1.29608947 7.1296434 2.58671632 6.1875 3.875 C5.66542969 4.59429687 5.14335937 5.31359375 4.60546875 6.0546875 C3 8 3 8 0 10 C0 6.7 0 3.4 0 0 Z " fill="#FCFDFD" transform="translate(15,105)"/>
<path d="M0 0 C1.32 0 2.64 0 4 0 C3.67 4.95 3.34 9.9 3 15 C2.01 15 1.02 15 0 15 C0 10.05 0 5.1 0 0 Z " fill="#EEEFEF" transform="translate(90,225)"/>
<path d="M0 0 C5.28 0 10.56 0 16 0 C15.67 0.99 15.34 1.98 15 3 C10.05 3 5.1 3 0 3 C0 2.01 0 1.02 0 0 Z " fill="#FFFFFF" transform="translate(225,267)"/>
<path d="M0 0 C0.99 0 1.98 0 3 0 C3 4.95 3 9.9 3 15 C2.01 15 1.02 15 0 15 C0 10.05 0 5.1 0 0 Z " fill="#FFFFFF" transform="translate(90,300)"/>
<path d="M0 0 C0.99 0 1.98 0 3 0 C3 4.95 3 9.9 3 15 C2.01 15 1.02 15 0 15 C0 10.05 0 5.1 0 0 Z " fill="#FFFFFF" transform="translate(90,270)"/>
<path d="M0 0 C4.95 0 9.9 0 15 0 C15 0.99 15 1.98 15 3 C10.05 3 5.1 3 0 3 C0 2.01 0 1.02 0 0 Z " fill="#FFFFFF" transform="translate(285,267)"/>
<path d="M0 0 C4.95 0 9.9 0 15 0 C15 0.99 15 1.98 15 3 C10.05 3 5.1 3 0 3 C0 2.01 0 1.02 0 0 Z " fill="#FFFFFF" transform="translate(255,267)"/>
<path d="M0 0 C4.95 0 9.9 0 15 0 C15 0.99 15 1.98 15 3 C10.05 3 5.1 3 0 3 C0 2.01 0 1.02 0 0 Z " fill="#FFFFFF" transform="translate(195,267)"/>
<path d="M0 0 C0.99 0 1.98 0 3 0 C3 4.95 3 9.9 3 15 C2.01 15 1.02 15 0 15 C0 10.05 0 5.1 0 0 Z " fill="#FFFFFF" transform="translate(90,240)"/>
<path d="M0 0 C0.33 0 0.66 0 1 0 C1 6.27 1 12.54 1 19 C-0.65 19 -2.3 19 -4 19 C-2.02 9.595 -2.02 9.595 0 0 Z " fill="#EEECE3" transform="translate(359,206)"/>
<path d="M0 0 C-0.99 0.495 -0.99 0.495 -2 1 C-2 1.99 -2 2.98 -2 4 C-8.435 4.495 -8.435 4.495 -15 5 C-10.22015835 0.22015835 -6.6745208 -0.26174591 0 0 Z " fill="#F9FAFB" transform="translate(122,176)"/>
<path d="M0 0 C4.95 0 9.9 0 15 0 C15 0.66 15 1.32 15 2 C14.07767578 2.09087891 14.07767578 2.09087891 13.13671875 2.18359375 C12.32847656 2.26738281 11.52023438 2.35117188 10.6875 2.4375 C9.88699219 2.51871094 9.08648437 2.59992188 8.26171875 2.68359375 C5.83912821 2.95265693 5.83912821 2.95265693 3 4 C2.01 3.67 1.02 3.34 0 3 C0 2.01 0 1.02 0 0 Z " fill="#ECEDEE" transform="translate(45,90)"/>
<path d="M0 0 C0.99 0 1.98 0 3 0 C3 5.94 3 11.88 3 18 C2.67 18 2.34 18 2 18 C0.77100654 11.93184478 -0.27560214 6.20104812 0 0 Z " fill="#FBF9F0" transform="translate(357,135)"/>
<path d="M0 0 C3.96 0 7.92 0 12 0 C9.57869669 2.42130331 8.19888623 2.52840504 4.875 3.125 C3.50988281 3.37636719 3.50988281 3.37636719 2.1171875 3.6328125 C1.41851562 3.75398437 0.71984375 3.87515625 0 4 C0 2.68 0 1.36 0 0 Z " fill="#FEFEFE" transform="translate(240,180)"/>
<path d="M0 0 C0.33 0 0.66 0 1 0 C1 4.95 1 9.9 1 15 C0.01 15 -0.98 15 -2 15 C-1.85816304 13.24967156 -1.71136571 11.49974466 -1.5625 9.75 C-1.48128906 8.77546875 -1.40007812 7.8009375 -1.31640625 6.796875 C-1.04925416 4.43538247 -0.64628032 2.28098935 0 0 Z " fill="#FCFBF7" transform="translate(269,315)"/>
<path d="M0 0 C0.33 0 0.66 0 1 0 C1 2.31 1 4.62 1 7 C-1.31 7 -3.62 7 -6 7 C-5.02433888 5.83040013 -4.044375 4.66438823 -3.0625 3.5 C-2.51722656 2.8503125 -1.97195313 2.200625 -1.41015625 1.53125 C-0.71212891 0.77328125 -0.71212891 0.77328125 0 0 Z " fill="#FFFFFF" transform="translate(344,248)"/>
<path d="M0 0 C0.33 0 0.66 0 1 0 C1 3.3 1 6.6 1 10 C0.01 10 -0.98 10 -2 10 C-2.33 7.36 -2.66 4.72 -3 2 C-2.34 2 -1.68 2 -1 2 C-0.67 1.34 -0.34 0.68 0 0 Z " fill="#E9EBED" transform="translate(119,35)"/>
<path d="M0 0 C1.16945792 0.80847729 2.33550461 1.62189112 3.5 2.4375 C4.47453125 3.11619141 4.47453125 3.11619141 5.46875 3.80859375 C5.9740625 4.20175781 6.479375 4.59492188 7 5 C7 5.33 7 5.66 7 6 C4.69 6 2.38 6 0 6 C0 4.02 0 2.04 0 0 Z " fill="#EFEDE2" transform="translate(105,339)"/>
<path d="M0 0 C1.9375 0.8125 1.9375 0.8125 4 2 C4.33 2.99 4.66 3.98 5 5 C3.35 5.33 1.7 5.66 0 6 C0 4.02 0 2.04 0 0 Z " fill="#EDEEEF" transform="translate(15,249)"/>
</svg>
